SplineFontDB: 1.0
FontName: ArevSans-Roman
FullName: Arev Sans
FamilyName: Arev Sans
Weight: Book
Copyright: Copyright (c) 2003 by Bitstream, Inc. All Rights Reserved.	Modifications: Copyright (c) 2006 by Tavmjong Bah. All Right Reserved
Version: Release 0.21a
FONDName: TavmjongBah
ItalicAngle: 0
UnderlinePosition: -213
UnderlineWidth: 143
Ascent: 1556
Descent: 492
Order2: 1
NeedsXUIDChange: 1
XUID: [1021 99 424017693 5800553]
FSType: 4
PfmFamily: 17
TTFWeight: 400
TTFWidth: 5
LineGap: 410
VLineGap: 0
Panose: 2 11 6 3 3 8 4 2 2 4
OS2TypoAscent: 0
OS2TypoAOffset: 1
OS2TypoDescent: 0
OS2TypoDOffset: 1
OS2TypoLinegap: 0
OS2WinAscent: 0
OS2WinAOffset: 1
OS2WinDescent: 0
OS2WinDOffset: 1
HheadAscent: 0
HheadAOffset: 1
HheadDescent: 0
HheadDOffset: 1
OS2SubXSize: 1351
OS2SubYSize: 1228
OS2SubXOff: 0
OS2SubYOff: -446
OS2SupXSize: 1351
OS2SupYSize: 1228
OS2SupXOff: 0
OS2SupYOff: 595
OS2StrikeYSize: 143
OS2StrikeYPos: 614
OS2FamilyClass: 2050
OS2Vendor: 'Tavm'
ScriptLang: 2
 1 latn 1 dflt 
 1 DFLT 1 dflt 
KernClass: 42 49 0 0
 6 hyphen
 112 A Agrave Aacute Acircumflex Atilde Adieresis Amacron Abreve Aogonek uni01CD uni01DE uni01E0 uni01E2 Delta Lambda
 6 B Beta
 47 C Ccedilla Cacute Ccaron Ccircumflex Cdotaccent
 40 D Dcaron uni01C4 uni01C5 uni01F1 uni01F2
 1 F
 44 G Gbreve gcircumflex gdotaccent gcommaaccent
 17 H Hcircumflex Eta
 13 J Jcircumflex
 20 K Kcommaaccent Kappa
 49 L Lacute Lcommaaccent Lcaron Ldot uni01C7 uni01C8
 151 O Ograve Oacute Ocircumflex Otilde Odieresis Omacron Obreve Ohungarumlaut uni018F uni01D1 uni01EA uni01EC uni022A uni022C uni022E uni0230 Omicron Theta
 5 P Rho
 1 Q
 28 R Racute Rcommaaccent Rcaron
 56 S Scedilla Scaron Sacute Scircumflex Scaron Scommaaccent
 39 T Tcommaaccent Tcaron uni021A Gamma Tau
 127 U Ugrave Uacute Ucircumflex Udieresis Utilde Umacron Ubreve Uring Uhungarumlaut Uogonek uni01D3 uni01D5 uni01D7 uni01D9 uni01DB
 1 V
 37 W Wcircumflex Wgrave Wacute Wdieresis
 5 X Chi

StartChar: .notdef
Encoding: 65536 -1 0
Width: 1229
Flags: W
Fore
102 -362 m 1,0,-1
 102 1444 l 1,1,-1
 1126 1444 l 1,2,-1
 1126 -362 l 1,3,-1
 102 -362 l 1,0,-1
217 -248 m 1,4,-1
 1012 -248 l 1,5,-1
 1012 1329 l 1,6,-1
 217 1329 l 1,7,-1
 217 -248 l 1,4,-1
EndSplineSet
Colour: aaaa88
EndChar
StartChar: .null
Encoding: 65537 0 1
Width: 1229
Flags: W
HStem: -362 114<102 1126> 181 34<581 774> 324 34<622 764> 446 34<581 770> 677 33<502 567.5> 816 34<462 578.5> 1006 34<388 522> 1329 115<102 1126>
VStem: 102 115<-362 1444> 462 40<551 850> 581 41<181 324 358 446> 581 189<181 480> 612 43<749.5 785.5> 1012 114<-362 1444>
Fore
795 -189 m 5,0,-1
 681 110 l 5,1,-1
 724 110 l 5,2,-1
 818 -141 l 5,3,-1
 913 110 l 5,4,-1
 955 110 l 5,5,-1
 841 -189 l 5,6,-1
 795 -189 l 5,0,-1
581 480 m 5,7,-1
 770 480 l 5,8,-1
 770 446 l 5,9,-1
 622 446 l 5,10,-1
 622 358 l 5,11,-1
 764 358 l 5,12,-1
 764 324 l 5,13,-1
 622 324 l 5,14,-1
 622 215 l 5,15,-1
 774 215 l 5,16,-1
 774 181 l 5,17,-1
 581 181 l 5,18,-1
 581 480 l 5,7,-1
604 691 m 5,19,20
 617 687 617 687 629 672 c 4,21,22
 641 658 641 658 654 633 c 5,23,-1
 695 551 l 5,24,-1
 651 551 l 5,25,-1
 613 628 l 5,26,27
 598 658 598 658 584 667 c 4,28,29
 570 677 570 677 546 677 c 6,30,-1
 502 677 l 5,31,-1
 502 551 l 5,32,-1
 462 551 l 5,33,-1
 462 850 l 5,34,-1
 553 850 l 6,35,36
 604 850 604 850 630 828 c 4,37,38
 655 807 655 807 655 764 c 4,39,40
 655 735 655 735 642 717 c 4,41,42
 629 698 629 698 604 691 c 5,19,20
502 816 m 5,43,-1
 502 710 l 5,44,-1
 553 710 l 6,45,46
 582 710 582 710 597 724 c 4,47,48
 612 737 612 737 612 764 c 4,49,50
 612 790 612 790 597 803 c 260,51,52
 582 816 582 816 553 816 c 6,53,-1
 502 816 l 5,43,-1
455 1189 m 5,54,-1
 400 1040 l 5,55,-1
 510 1040 l 5,56,-1
 455 1189 l 5,54,-1
432 1228 m 5,57,-1
 478 1228 l 5,58,-1
 592 930 l 5,59,-1
 550 930 l 5,60,-1
 522 1006 l 5,61,-1
 388 1006 l 5,62,-1
 361 930 l 5,63,-1
 318 930 l 5,64,-1
 432 1228 l 5,57,-1
102 -362 m 5,65,-1
 102 1444 l 5,66,-1
 1126 1444 l 5,67,-1
 1126 -362 l 5,68,-1
 102 -362 l 5,65,-1
217 -248 m 5,69,-1
 1012 -248 l 5,70,-1
 1012 1329 l 5,71,-1
 217 1329 l 5,72,-1
 217 -248 l 5,69,-1
EndSplineSet
Colour: aaaa88
EndChar
StartChar: exclam
Encoding: 33 33 4
Width: 821
Flags: W
Fore
309 254 m 1,0,-1
 512 254 l 1,1,-1
 512 0 l 1,2,-1
 309 0 l 1,3,-1
 309 254 l 1,0,-1
309 1493 m 1,4,-1
 512 1493 l 1,5,-1
 512 838 l 1,6,-1
 492 481 l 1,7,-1
 330 481 l 1,8,-1
 309 838 l 1,9,-1
 309 1493 l 1,4,-1
EndSplineSet
Colour: aaaa88
EndChar
StartChar: quotedbl
Encoding: 34 34 5
Width: 942
Flags: W
Fore
367 1493 m 1,0,-1
 367 938 l 1,1,-1
 197 938 l 1,2,-1
 197 1493 l 1,3,-1
 367 1493 l 1,0,-1
745 1493 m 1,4,-1
 745 938 l 1,5,-1
 575 938 l 1,6,-1
 575 1493 l 1,7,-1
 745 1493 l 1,4,-1
EndSplineSet
Colour: aaaa88
EndChar
StartChar: numbersign
Encoding: 35 35 6
Width: 1716
Flags: W
Fore
1047 901 m 1,0,-1
 756 901 l 1,1,-1
 672 567 l 1,2,-1
 965 567 l 1,3,-1
 1047 901 l 1,0,-1
897 1470 m 1,4,-1
 793 1055 l 1,5,-1
 1085 1055 l 1,6,-1
 1190 1470 l 1,7,-1
 1350 1470 l 1,8,-1
 1247 1055 l 1,9,-1
 1559 1055 l 1,10,-1
 1559 901 l 1,11,-1
 1208 901 l 1,12,-1
 1126 567 l 1,13,-1
 1444 567 l 1,14,-1
 1444 414 l 1,15,-1
 1087 414 l 1,16,-1
 983 0 l 1,17,-1
 823 0 l 1,18,-1
 926 414 l 1,19,-1
 633 414 l 1,20,-1
 530 0 l 1,21,-1
 369 0 l 1,22,-1
 473 414 l 1,23,-1
 158 414 l 1,24,-1
 158 567 l 1,25,-1
 510 567 l 1,26,-1
 594 901 l 1,27,-1
 272 901 l 1,28,-1
 272 1055 l 1,29,-1
 633 1055 l 1,30,-1
 735 1470 l 1,31,-1
 897 1470 l 1,4,-1
EndSplineSet
Colour: aaaa88
EndChar
StartChar: dollar
Encoding: 36 36 7
Width: 1303
Flags: W
Fore
692 -301 m 1,0,-1
 592 -301 l 1,1,-1
 591 0 l 1,2,3
 486 2 486 2 381 24.5 c 128,-1,4
 276 47 276 47 170 92 c 1,5,-1
 170 272 l 1,6,7
 272 208 272 208 376.5 175.5 c 128,-1,8
 481 143 481 143 592 142 c 1,9,-1
 592 598 l 1,10,11
 371 634 371 634 270.5 720 c 128,-1,12
 170 806 170 806 170 956 c 0,13,14
 170 1119 170 1119 279 1213 c 128,-1,15
 388 1307 388 1307 592 1321 c 1,16,-1
 592 1556 l 1,17,-1
 692 1556 l 1,18,-1
 692 1324 l 1,19,20
 785 1320 785 1320 872 1304.5 c 128,-1,21
 959 1289 959 1289 1042 1262 c 1,22,-1
 1042 1087 l 1,23,24
 959 1129 959 1129 871.5 1152 c 128,-1,25
 784 1175 784 1175 692 1179 c 1,26,-1
 692 752 l 1,27,28
 919 717 919 717 1026 627 c 128,-1,29
 1133 537 1133 537 1133 381 c 0,30,31
 1133 212 1133 212 1019.5 114.5 c 128,-1,32
 906 17 906 17 692 2 c 1,33,-1
 692 -301 l 1,0,-1
592 770 m 1,34,-1
 592 1180 l 1,35,36
 476 1167 476 1167 415 1114 c 128,-1,37
 354 1061 354 1061 354 973 c 0,38,39
 354 887 354 887 410.5 839 c 128,-1,40
 467 791 467 791 592 770 c 1,34,-1
692 578 m 1,41,-1
 692 145 l 1,42,43
 819 162 819 162 883.5 217 c 128,-1,44
 948 272 948 272 948 362 c 0,45,46
 948 450 948 450 886.5 502 c 128,-1,47
 825 554 825 554 692 578 c 1,41,-1
EndSplineSet
Colour: aaaa88
EndChar
StartChar: percent
Encoding: 37 37 8
Width: 1946
Flags: W
Fore
1489 657 m 0,0,1
 1402 657 1402 657 1352.5 583 c 128,-1,2
 1303 509 1303 509 1303 377 c 0,3,4
 1303 247 1303 247 1352.5 172.5 c 128,-1,5
 1402 98 1402 98 1489 98 c 0,6,7
 1574 98 1574 98 1623.5 172.5 c 128,-1,8
 1673 247 1673 247 1673 377 c 0,9,10
 1673 508 1673 508 1623.5 582.5 c 128,-1,11
 1574 657 1574 657 1489 657 c 0,0,1
1489 784 m 0,12,13
 1647 784 1647 784 1740 674 c 128,-1,14
 1833 564 1833 564 1833 377 c 256,15,16
 1833 190 1833 190 1739.5 80.5 c 128,-1,17
 1646 -29 1646 -29 1489 -29 c 0,18,19
 1329 -29 1329 -29 1236 80.5 c 128,-1,20
 1143 190 1143 190 1143 377 c 0,21,22
 1143 565 1143 565 1236.5 674.5 c 128,-1,23
 1330 784 1330 784 1489 784 c 0,12,13
457 1393 m 256,24,25
 371 1393 371 1393 321.5 1318.5 c 128,-1,26
 272 1244 272 1244 272 1114 c 0,27,28
 272 982 272 982 321 908 c 128,-1,29
 370 834 370 834 457 834 c 256,30,31
 544 834 544 834 593.5 908 c 128,-1,32
 643 982 643 982 643 1114 c 0,33,34
 643 1243 643 1243 593 1318 c 128,-1,35
 543 1393 543 1393 457 1393 c 256,24,25
1360 1520 m 1,36,-1
 1520 1520 l 1,37,-1
 586 -29 l 1,38,-1
 426 -29 l 1,39,-1
 1360 1520 l 1,36,-1
457 1520 m 256,40,41
 615 1520 615 1520 709 1410.5 c 128,-1,42
 803 1301 803 1301 803 1114 c 0,43,44
 803 925 803 925 709.5 816 c 128,-1,45
 616 707 616 707 457 707 c 256,46,47
 298 707 298 707 205.5 816.5 c 128,-1,48
 113 926 113 926 113 1114 c 0,49,50
 113 1300 113 1300 206 1410 c 128,-1,51
 299 1520 299 1520 457 1520 c 256,40,41
EndSplineSet
Colour: aaaa88
EndChar
StartChar: ampersand
Encoding: 38 38 9
Width: 1597
Flags: W
Fore
498 803 m 1,0,1
 407 722 407 722 364.5 641.5 c 128,-1,2
 322 561 322 561 322 473 c 0,3,4
 322 327 322 327 428 230 c 128,-1,5
 534 133 534 133 694 133 c 0,6,7
 789 133 789 133 872 164.5 c 128,-1,8
 955 196 955 196 1028 260 c 1,9,-1
 498 803 l 1,0,1
639 915 m 2,10,-1
 1147 395 l 1,11,12
 1206 484 1206 484 1239 585.5 c 128,-1,13
 1272 687 1272 687 1278 801 c 1,14,-1
 1464 801 l 1,15,16
 1452 669 1452 669 1400 540 c 128,-1,17
 1348 411 1348 411 1255 285 c 1,18,-1
 1534 0 l 1,19,-1
 1282 0 l 1,20,-1
 1139 147 l 1,21,22
 1035 58 1035 58 921 14.5 c 128,-1,23
 807 -29 807 -29 676 -29 c 0,24,25
 435 -29 435 -29 282 108.5 c 128,-1,26
 129 246 129 246 129 461 c 0,27,28
 129 589 129 589 196 701.5 c 128,-1,29
 263 814 263 814 397 913 c 1,30,31
 349 976 349 976 324 1038.5 c 128,-1,32
 299 1101 299 1101 299 1161 c 0,33,34
 299 1323 299 1323 410 1421.5 c 128,-1,35
 521 1520 521 1520 705 1520 c 0,36,37
 788 1520 788 1520 870.5 1502 c 128,-1,38
 953 1484 953 1484 1038 1448 c 1,39,-1
 1038 1266 l 1,40,41
 951 1313 951 1313 872 1337.5 c 128,-1,42
 793 1362 793 1362 725 1362 c 0,43,44
 620 1362 620 1362 554.5 1306.5 c 128,-1,45
 489 1251 489 1251 489 1163 c 0,46,47
 489 1112 489 1112 518.5 1060.5 c 128,-1,48
 548 1009 548 1009 639 915 c 2,10,-1
EndSplineSet
Colour: aaaa88
EndChar
StartChar: quotesingle
Encoding: 39 39 10
Width: 563
Flags: W
Fore
367 1493 m 1,0,-1
 367 938 l 1,1,-1
 197 938 l 1,2,-1
 197 1493 l 1,3,-1
 367 1493 l 1,0,-1
EndSplineSet
Colour: aaaa88
EndChar
StartChar: parenleft
Encoding: 40 40 11
Width: 799
Flags: W
Fore
635 1554 m 1,0,1
 501 1324 501 1324 436 1099 c 128,-1,2
 371 874 371 874 371 643 c 256,3,4
 371 412 371 412 436.5 185.5 c 128,-1,5
 502 -41 502 -41 635 -270 c 1,6,-1
 475 -270 l 1,7,8
 325 -35 325 -35 250.5 192 c 128,-1,9
 176 419 176 419 176 643 c 0,10,11
 176 866 176 866 250 1092 c 128,-1,12
 324 1318 324 1318 475 1554 c 1,13,-1
 635 1554 l 1,0,1
EndSplineSet
Colour: aaaa88
EndChar
StartChar: parenright
Encoding: 41 41 12
Width: 799
Flags: W
Fore
164 1554 m 1,0,-1
 324 1554 l 1,1,2
 474 1318 474 1318 548.5 1092 c 128,-1,3
 623 866 623 866 623 643 c 0,4,5
 623 419 623 419 548.5 192 c 128,-1,6
 474 -35 474 -35 324 -270 c 1,7,-1
 164 -270 l 1,8,9
 297 -41 297 -41 362.5 185.5 c 128,-1,10
 428 412 428 412 428 643 c 256,11,12
 428 874 428 874 362.5 1099 c 128,-1,13
 297 1324 297 1324 164 1554 c 1,0,-1
EndSplineSet
Colour: aaaa88
EndChar
StartChar: asterisk
Encoding: 42 42 13
Width: 1024
Flags: W
Fore
963 1247 m 1,0,-1
 604 1053 l 1,1,-1
 963 858 l 1,2,-1
 905 760 l 1,3,-1
 569 963 l 1,4,-1
 569 586 l 1,5,-1
 455 586 l 1,6,-1
 455 963 l 1,7,-1
 119 760 l 1,8,-1
 61 858 l 1,9,-1
 420 1053 l 1,10,-1
 61 1247 l 1,11,-1
 119 1346 l 1,12,-1
 455 1143 l 1,13,-1
 455 1520 l 1,14,-1
 569 1520 l 1,15,-1
 569 1143 l 1,16,-1
 905 1346 l 1,17,-1
 963 1247 l 1,0,-1
EndSplineSet
Colour: aaaa88
EndChar
StartChar: plus
Encoding: 43 43 14
Width: 1716
Flags: W
Fore
942 1284 m 1,0,-1
 942 727 l 1,1,-1
 1499 727 l 1,2,-1
 1499 557 l 1,3,-1
 942 557 l 1,4,-1
 942 0 l 1,5,-1
 774 0 l 1,6,-1
 774 557 l 1,7,-1
 217 557 l 1,8,-1
 217 727 l 1,9,-1
 774 727 l 1,10,-1
 774 1284 l 1,11,-1
 942 1284 l 1,0,-1
EndSplineSet
Colour: aaaa88
EndChar
StartChar: comma
Encoding: 44 44 15
Width: 651
Flags: W
Fore
240 254 m 1,0,-1
 451 254 l 1,1,-1
 451 82 l 1,2,-1
 287 -238 l 1,3,-1
 158 -238 l 1,4,-1
 240 82 l 1,5,-1
 240 254 l 1,0,-1
EndSplineSet
Colour: aaaa88
EndChar
StartChar: hyphen
Encoding: 45 45 16
Width: 739
Flags: W
Fore
100 643 m 1,0,-1
 639 643 l 1,1,-1
 639 479 l 1,2,-1
 100 479 l 1,3,-1
 100 643 l 1,0,-1
EndSplineSet
Colour: aaaa88
EndChar
StartChar: period
Encoding: 46 46 17
Width: 651
Flags: W
Fore
219 254 m 1,0,-1
 430 254 l 1,1,-1
 430 0 l 1,2,-1
 219 0 l 1,3,-1
 219 254 l 1,0,-1
EndSplineSet
Colour: aaaa88
EndChar
StartChar: slash
Encoding: 47 47 18
Width: 690
Flags: W
Fore
520 1493 m 1,0,-1
 690 1493 l 1,1,-1
 170 -190 l 1,2,-1
 0 -190 l 1,3,-1
 520 1493 l 1,0,-1
EndSplineSet
Colour: aaaa88
EndChar
StartChar: zero
Encoding: 48 48 19
Width: 1303
Flags: W
Fore
651 1360 m 0,0,1
 495 1360 495 1360 416.5 1206.5 c 128,-1,2
 338 1053 338 1053 338 745 c 0,3,4
 338 438 338 438 416.5 284.5 c 128,-1,5
 495 131 495 131 651 131 c 0,6,7
 808 131 808 131 886.5 284.5 c 128,-1,8
 965 438 965 438 965 745 c 0,9,10
 965 1053 965 1053 886.5 1206.5 c 128,-1,11
 808 1360 808 1360 651 1360 c 0,0,1
651 1520 m 256,12,13
 902 1520 902 1520 1034.5 1321.5 c 128,-1,14
 1167 1123 1167 1123 1167 745 c 0,15,16
 1167 368 1167 368 1034.5 169.5 c 128,-1,17
 902 -29 902 -29 651 -29 c 256,18,19
 400 -29 400 -29 267.5 169.5 c 128,-1,20
 135 368 135 368 135 745 c 0,21,22
 135 1123 135 1123 267.5 1321.5 c 128,-1,23
 400 1520 400 1520 651 1520 c 256,12,13
EndSplineSet
Colour: aaaa88
EndChar
StartChar: one
Encoding: 49 49 20
Width: 1303
Flags: W
Fore
254 170 m 1,0,-1
 584 170 l 1,1,-1
 584 1309 l 1,2,-1
 225 1237 l 1,3,-1
 225 1421 l 1,4,-1
 582 1493 l 1,5,-1
 784 1493 l 1,6,-1
 784 170 l 1,7,-1
 1114 170 l 1,8,-1
 1114 0 l 1,9,-1
 254 0 l 1,10,-1
 254 170 l 1,0,-1
EndSplineSet
Colour: aaaa88
EndChar
StartChar: two
Encoding: 50 50 21
Width: 1303
Flags: W
Fore
393 170 m 1,0,-1
 1098 170 l 1,1,-1
 1098 0 l 1,2,-1
 150 0 l 1,3,-1
 150 170 l 1,4,5
 265 289 265 289 463.5 489.5 c 128,-1,6
 662 690 662 690 713 748 c 0,7,8
 810 857 810 857 848.5 932.5 c 128,-1,9
 887 1008 887 1008 887 1081 c 0,10,11
 887 1200 887 1200 803.5 1275 c 128,-1,12
 720 1350 720 1350 586 1350 c 0,13,14
 491 1350 491 1350 385.5 1317 c 128,-1,15
 280 1284 280 1284 160 1217 c 1,16,-1
 160 1421 l 1,17,18
 282 1470 282 1470 388 1495 c 128,-1,19
 494 1520 494 1520 582 1520 c 0,20,21
 814 1520 814 1520 952 1404 c 128,-1,22
 1090 1288 1090 1288 1090 1094 c 0,23,24
 1090 1002 1090 1002 1055.5 919.5 c 128,-1,25
 1021 837 1021 837 930 725 c 0,26,27
 905 696 905 696 771 557.5 c 128,-1,28
 637 419 637 419 393 170 c 1,0,-1
EndSplineSet
Colour: aaaa88
EndChar
StartChar: three
Encoding: 51 51 22
Width: 1303
Flags: W
Fore
831 805 m 1,0,1
 976 774 976 774 1057.5 676 c 128,-1,2
 1139 578 1139 578 1139 434 c 0,3,4
 1139 213 1139 213 987 92 c 128,-1,5
 835 -29 835 -29 555 -29 c 0,6,7
 461 -29 461 -29 361.5 -10.5 c 128,-1,8
 262 8 262 8 156 45 c 1,9,-1
 156 240 l 1,10,11
 240 191 240 191 340 166 c 128,-1,12
 440 141 440 141 549 141 c 0,13,14
 739 141 739 141 838.5 216 c 128,-1,15
 938 291 938 291 938 434 c 0,16,17
 938 566 938 566 845.5 640.5 c 128,-1,18
 753 715 753 715 588 715 c 2,19,-1
 414 715 l 1,20,-1
 414 881 l 1,21,-1
 596 881 l 2,22,23
 745 881 745 881 824 940.5 c 128,-1,24
 903 1000 903 1000 903 1112 c 0,25,26
 903 1227 903 1227 821.5 1288.5 c 128,-1,27
 740 1350 740 1350 588 1350 c 0,28,29
 505 1350 505 1350 410 1332 c 128,-1,30
 315 1314 315 1314 201 1276 c 1,31,-1
 201 1456 l 1,32,33
 316 1488 316 1488 416.5 1504 c 128,-1,34
 517 1520 517 1520 606 1520 c 0,35,36
 836 1520 836 1520 970 1415.5 c 128,-1,37
 1104 1311 1104 1311 1104 1133 c 0,38,39
 1104 1009 1104 1009 1033 923.5 c 128,-1,40
 962 838 962 838 831 805 c 1,0,1
EndSplineSet
Colour: aaaa88
EndChar
StartChar: four
Encoding: 52 52 23
Width: 1303
Flags: W
Fore
774 1317 m 1,0,-1
 264 520 l 1,1,-1
 774 520 l 1,2,-1
 774 1317 l 1,0,-1
721 1493 m 1,3,-1
 975 1493 l 1,4,-1
 975 520 l 1,5,-1
 1188 520 l 1,6,-1
 1188 352 l 1,7,-1
 975 352 l 1,8,-1
 975 0 l 1,9,-1
 774 0 l 1,10,-1
 774 352 l 1,11,-1
 100 352 l 1,12,-1
 100 547 l 1,13,-1
 721 1493 l 1,3,-1
EndSplineSet
Colour: aaaa88
EndChar
StartChar: five
Encoding: 53 53 24
Width: 1303
Flags: W
Fore
221 1493 m 1,0,-1
 1014 1493 l 1,1,-1
 1014 1323 l 1,2,-1
 406 1323 l 1,3,-1
 406 957 l 1,4,5
 450 972 450 972 494 979.5 c 128,-1,6
 538 987 538 987 582 987 c 0,7,8
 832 987 832 987 978 850 c 128,-1,9
 1124 713 1124 713 1124 479 c 0,10,11
 1124 238 1124 238 974 104.5 c 128,-1,12
 824 -29 824 -29 551 -29 c 0,13,14
 457 -29 457 -29 359.5 -13 c 128,-1,15
 262 3 262 3 158 35 c 1,16,-1
 158 238 l 1,17,18
 248 189 248 189 344 165 c 128,-1,19
 440 141 440 141 547 141 c 0,20,21
 720 141 720 141 821 232 c 128,-1,22
 922 323 922 323 922 479 c 256,23,24
 922 635 922 635 821 726 c 128,-1,25
 720 817 720 817 547 817 c 0,26,27
 466 817 466 817 385.5 799 c 128,-1,28
 305 781 305 781 221 743 c 1,29,-1
 221 1493 l 1,0,-1
EndSplineSet
Colour: aaaa88
EndChar
StartChar: six
Encoding: 54 54 25
Width: 1303
Flags: W
Fore
676 827 m 256,0,1
 540 827 540 827 460.5 734 c 128,-1,2
 381 641 381 641 381 479 c 0,3,4
 381 318 381 318 460.5 224.5 c 128,-1,5
 540 131 540 131 676 131 c 256,6,7
 812 131 812 131 891.5 224.5 c 128,-1,8
 971 318 971 318 971 479 c 0,9,10
 971 641 971 641 891.5 734 c 128,-1,11
 812 827 812 827 676 827 c 256,0,1
1077 1460 m 1,12,-1
 1077 1276 l 1,13,14
 1001 1312 1001 1312 923.5 1331 c 128,-1,15
 846 1350 846 1350 770 1350 c 0,16,17
 570 1350 570 1350 464.5 1215 c 128,-1,18
 359 1080 359 1080 344 807 c 1,19,20
 403 894 403 894 492 940.5 c 128,-1,21
 581 987 581 987 688 987 c 0,22,23
 913 987 913 987 1043.5 850.5 c 128,-1,24
 1174 714 1174 714 1174 479 c 0,25,26
 1174 249 1174 249 1038 110 c 128,-1,27
 902 -29 902 -29 676 -29 c 0,28,29
 417 -29 417 -29 280 169.5 c 128,-1,30
 143 368 143 368 143 745 c 0,31,32
 143 1099 143 1099 311 1309.5 c 128,-1,33
 479 1520 479 1520 762 1520 c 0,34,35
 838 1520 838 1520 915.5 1505 c 128,-1,36
 993 1490 993 1490 1077 1460 c 1,12,-1
EndSplineSet
Colour: aaaa88
EndChar
StartChar: seven
Encoding: 55 55 26
Width: 1303
Flags: W
Fore
168 1493 m 1,0,-1
 1128 1493 l 1,1,-1
 1128 1407 l 1,2,-1
 586 0 l 1,3,-1
 375 0 l 1,4,-1
 885 1323 l 1,5,-1
 168 1323 l 1,6,-1
 168 1493 l 1,0,-1
EndSplineSet
Colour: aaaa88
EndChar
StartChar: eight
Encoding: 56 56 27
Width: 1303
Flags: W
Fore
651 709 m 0,0,1
 507 709 507 709 424.5 632 c 128,-1,2
 342 555 342 555 342 420 c 256,3,4
 342 285 342 285 424.5 208 c 128,-1,5
 507 131 507 131 651 131 c 256,6,7
 795 131 795 131 878 208.5 c 128,-1,8
 961 286 961 286 961 420 c 0,9,10
 961 555 961 555 878.5 632 c 128,-1,11
 796 709 796 709 651 709 c 0,0,1
449 795 m 1,12,13
 319 827 319 827 246.5 916 c 128,-1,14
 174 1005 174 1005 174 1133 c 0,15,16
 174 1312 174 1312 301.5 1416 c 128,-1,17
 429 1520 429 1520 651 1520 c 0,18,19
 874 1520 874 1520 1001 1416 c 128,-1,20
 1128 1312 1128 1312 1128 1133 c 0,21,22
 1128 1005 1128 1005 1055.5 916 c 128,-1,23
 983 827 983 827 854 795 c 1,24,25
 1000 761 1000 761 1081.5 662 c 128,-1,26
 1163 563 1163 563 1163 420 c 0,27,28
 1163 203 1163 203 1030.5 87 c 128,-1,29
 898 -29 898 -29 651 -29 c 256,30,31
 404 -29 404 -29 271.5 87 c 128,-1,32
 139 203 139 203 139 420 c 0,33,34
 139 563 139 563 221 662 c 128,-1,35
 303 761 303 761 449 795 c 1,12,13
375 1114 m 256,36,37
 375 998 375 998 447.5 933 c 128,-1,38
 520 868 520 868 651 868 c 0,39,40
 781 868 781 868 854.5 933 c 128,-1,41
 928 998 928 998 928 1114 c 256,42,43
 928 1230 928 1230 854.5 1295 c 128,-1,44
 781 1360 781 1360 651 1360 c 0,45,46
 520 1360 520 1360 447.5 1295 c 128,-1,47
 375 1230 375 1230 375 1114 c 256,36,37
EndSplineSet
Colour: aaaa88
EndChar
StartChar: nine
Encoding: 57 57 28
Width: 1303
Flags: W
Fore
225 31 m 1,0,-1
 225 215 l 1,1,2
 301 179 301 179 379 160 c 128,-1,3
 457 141 457 141 532 141 c 0,4,5
 732 141 732 141 837.5 275.5 c 128,-1,6
 943 410 943 410 958 684 c 1,7,8
 900 598 900 598 811 552 c 128,-1,9
 722 506 722 506 614 506 c 0,10,11
 390 506 390 506 259.5 641.5 c 128,-1,12
 129 777 129 777 129 1012 c 0,13,14
 129 1242 129 1242 265 1381 c 128,-1,15
 401 1520 401 1520 627 1520 c 0,16,17
 886 1520 886 1520 1022.5 1321.5 c 128,-1,18
 1159 1123 1159 1123 1159 745 c 0,19,20
 1159 392 1159 392 991.5 181.5 c 128,-1,21
 824 -29 824 -29 541 -29 c 0,22,23
 465 -29 465 -29 387 -14 c 128,-1,24
 309 1 309 1 225 31 c 1,0,-1
627 664 m 256,25,26
 763 664 763 664 842.5 757 c 128,-1,27
 922 850 922 850 922 1012 c 0,28,29
 922 1173 922 1173 842.5 1266.5 c 128,-1,30
 763 1360 763 1360 627 1360 c 256,31,32
 491 1360 491 1360 411.5 1266.5 c 128,-1,33
 332 1173 332 1173 332 1012 c 0,34,35
 332 850 332 850 411.5 757 c 128,-1,36
 491 664 491 664 627 664 c 256,25,26
EndSplineSet
Colour: aaaa88
EndChar
StartChar: colon
Encoding: 58 58 29
Width: 690
Flags: W
Fore
240 254 m 1,0,-1
 451 254 l 1,1,-1
 451 0 l 1,2,-1
 240 0 l 1,3,-1
 240 254 l 1,0,-1
240 1059 m 1,4,-1
 451 1059 l 1,5,-1
 451 805 l 1,6,-1
 240 805 l 1,7,-1
 240 1059 l 1,4,-1
EndSplineSet
Colour: aaaa88
EndChar
StartChar: semicolon
Encoding: 59 59 30
Width: 690
Flags: W
Fore
240 1059 m 1,0,-1
 451 1059 l 1,1,-1
 451 805 l 1,2,-1
 240 805 l 1,3,-1
 240 1059 l 1,0,-1
240 254 m 1,4,-1
 451 254 l 1,5,-1
 451 82 l 1,6,-1
 287 -238 l 1,7,-1
 158 -238 l 1,8,-1
 240 82 l 1,9,-1
 240 254 l 1,4,-1
EndSplineSet
Colour: aaaa88
EndChar
StartChar: less
Encoding: 60 60 31
Width: 1716
Flags: W
Fore
1499 1008 m 1,0,-1
 467 641 l 1,1,-1
 1499 276 l 1,2,-1
 1499 94 l 1,3,-1
 217 559 l 1,4,-1
 217 725 l 1,5,-1
 1499 1190 l 1,6,-1
 1499 1008 l 1,0,-1
EndSplineSet
Colour: aaaa88
EndChar
StartChar: equal
Encoding: 61 61 32
Width: 1716
Flags: W
Fore
217 930 m 1,0,-1
 1499 930 l 1,1,-1
 1499 762 l 1,2,-1
 217 762 l 1,3,-1
 217 930 l 1,0,-1
217 522 m 1,4,-1
 1499 522 l 1,5,-1
 1499 352 l 1,6,-1
 217 352 l 1,7,-1
 217 522 l 1,4,-1
EndSplineSet
Colour: aaaa88
EndChar
StartChar: greater
Encoding: 62 62 33
Width: 1716
Flags: W
Fore
217 1008 m 1,0,-1
 217 1190 l 1,1,-1
 1499 725 l 1,2,-1
 1499 559 l 1,3,-1
 217 94 l 1,4,-1
 217 276 l 1,5,-1
 1247 641 l 1,6,-1
 217 1008 l 1,0,-1
EndSplineSet
Colour: aaaa88
EndChar
StartChar: question
Encoding: 63 63 34
Width: 1087
Flags: W
Fore
391 254 m 1,0,-1
 594 254 l 1,1,-1
 594 0 l 1,2,-1
 391 0 l 1,3,-1
 391 254 l 1,0,-1
588 401 m 1,4,-1
 397 401 l 1,5,-1
 397 555 l 2,6,7
 397 656 397 656 425 721 c 128,-1,8
 453 786 453 786 543 872 c 2,9,-1
 633 961 l 2,10,11
 690 1014 690 1014 715.5 1061 c 128,-1,12
 741 1108 741 1108 741 1157 c 0,13,14
 741 1246 741 1246 675.5 1301 c 128,-1,15
 610 1356 610 1356 502 1356 c 0,16,17
 423 1356 423 1356 333.5 1321 c 128,-1,18
 244 1286 244 1286 147 1219 c 1,19,-1
 147 1407 l 1,20,21
 241 1464 241 1464 337.5 1492 c 128,-1,22
 434 1520 434 1520 537 1520 c 0,23,24
 721 1520 721 1520 832.5 1423 c 128,-1,25
 944 1326 944 1326 944 1167 c 0,26,27
 944 1091 944 1091 908 1022.5 c 128,-1,28
 872 954 872 954 782 868 c 2,29,-1
 694 782 l 2,30,31
 647 735 647 735 627.5 708.5 c 128,-1,32
 608 682 608 682 600 657 c 0,33,34
 594 636 594 636 591 606 c 128,-1,35
 588 576 588 576 588 524 c 2,36,-1
 588 401 l 1,4,-1
EndSplineSet
Colour: aaaa88
EndChar
StartChar: at
Encoding: 64 64 35
Width: 2048
Flags: W
Fore
762 537 m 0,0,1
 762 394 762 394 833 312.5 c 128,-1,2
 904 231 904 231 1028 231 c 0,3,4
 1151 231 1151 231 1221.5 313 c 128,-1,5
 1292 395 1292 395 1292 537 c 0,6,7
 1292 677 1292 677 1220 759.5 c 128,-1,8
 1148 842 1148 842 1026 842 c 0,9,10
 905 842 905 842 833.5 760 c 128,-1,11
 762 678 762 678 762 537 c 0,0,1
1307 238 m 1,12,13
 1247 161 1247 161 1169.5 124.5 c 128,-1,14
 1092 88 1092 88 989 88 c 0,15,16
 817 88 817 88 709.5 212.5 c 128,-1,17
 602 337 602 337 602 537 c 256,18,19
 602 737 602 737 710 862 c 128,-1,20
 818 987 818 987 989 987 c 0,21,22
 1092 987 1092 987 1170 949.5 c 128,-1,23
 1248 912 1248 912 1307 836 c 1,24,-1
 1307 967 l 1,25,-1
 1450 967 l 1,26,-1
 1450 231 l 1,27,28
 1596 253 1596 253 1678.5 364.5 c 128,-1,29
 1761 476 1761 476 1761 653 c 0,30,31
 1761 760 1761 760 1729.5 854 c 128,-1,32
 1698 948 1698 948 1634 1028 c 0,33,34
 1530 1159 1530 1159 1380.5 1228.5 c 128,-1,35
 1231 1298 1231 1298 1055 1298 c 0,36,37
 932 1298 932 1298 819 1265.5 c 128,-1,38
 706 1233 706 1233 610 1169 c 0,39,40
 453 1067 453 1067 364.5 901.5 c 128,-1,41
 276 736 276 736 276 543 c 0,42,43
 276 384 276 384 333.5 245 c 128,-1,44
 391 106 391 106 500 0 c 0,45,46
 605 -104 605 -104 743 -158.5 c 128,-1,47
 881 -213 881 -213 1038 -213 c 0,48,49
 1167 -213 1167 -213 1291.5 -169.5 c 128,-1,50
 1416 -126 1416 -126 1520 -45 c 1,51,-1
 1610 -156 l 1,52,53
 1485 -253 1485 -253 1337.5 -304.5 c 128,-1,54
 1190 -356 1190 -356 1038 -356 c 0,55,56
 853 -356 853 -356 689 -290.5 c 128,-1,57
 525 -225 525 -225 397 -100 c 256,58,59
 269 25 269 25 202 189.5 c 128,-1,60
 135 354 135 354 135 543 c 0,61,62
 135 725 135 725 203 890 c 128,-1,63
 271 1055 271 1055 397 1180 c 0,64,65
 526 1307 526 1307 695 1374.5 c 128,-1,66
 864 1442 864 1442 1053 1442 c 0,67,68
 1265 1442 1265 1442 1446.5 1355 c 128,-1,69
 1628 1268 1628 1268 1751 1108 c 0,70,71
 1826 1010 1826 1010 1865.5 895 c 128,-1,72
 1905 780 1905 780 1905 657 c 0,73,74
 1905 394 1905 394 1746 242 c 128,-1,75
 1587 90 1587 90 1307 84 c 1,76,-1
 1307 238 l 1,12,13
EndSplineSet
Colour: aaaa88
EndChar
StartChar: A
Encoding: 65 65 36
Width: 1401
Flags: W
AnchorPoint: "Ogonek" 1247 0 basechar 0
AnchorPoint: "TopCap" 700 1493 basechar 0
AnchorPoint: "Bottom" 700 0 basechar 0
Fore
700 1294 m 1,0,-1
 426 551 l 1,1,-1
 975 551 l 1,2,-1
 700 1294 l 1,0,-1
586 1493 m 1,3,-1
 815 1493 l 1,4,-1
 1384 0 l 1,5,-1
 1174 0 l 1,6,-1
 1038 383 l 1,7,-1
 365 383 l 1,8,-1
 229 0 l 1,9,-1
 16 0 l 1,10,-1
 586 1493 l 1,3,-1
EndSplineSet
Colour: aaaa88
EndChar
StartChar: B
Encoding: 66 66 37
Width: 1405
Flags: W
AnchorPoint: "Bottom" 700 0 basechar 0
AnchorPoint: "TopCap" 700 1493 basechar 0
Fore
403 713 m 1,0,-1
 403 166 l 1,1,-1
 727 166 l 2,2,3
 890 166 890 166 968.5 233.5 c 128,-1,4
 1047 301 1047 301 1047 440 c 0,5,6
 1047 580 1047 580 968.5 646.5 c 128,-1,7
 890 713 890 713 727 713 c 2,8,-1
 403 713 l 1,0,-1
403 1327 m 1,9,-1
 403 877 l 1,10,-1
 702 877 l 2,11,12
 850 877 850 877 922.5 932.5 c 128,-1,13
 995 988 995 988 995 1102 c 0,14,15
 995 1215 995 1215 922.5 1271 c 128,-1,16
 850 1327 850 1327 702 1327 c 2,17,-1
 403 1327 l 1,9,-1
201 1493 m 1,18,-1
 717 1493 l 2,19,20
 948 1493 948 1493 1073 1397 c 128,-1,21
 1198 1301 1198 1301 1198 1124 c 0,22,23
 1198 987 1198 987 1134 906 c 128,-1,24
 1070 825 1070 825 946 805 c 1,25,26
 1095 773 1095 773 1177.5 671.5 c 128,-1,27
 1260 570 1260 570 1260 418 c 4,28,29
 1260 218 1260 218 1124 109 c 128,-1,30
 988 0 988 0 737 0 c 2,31,-1
 201 0 l 1,32,-1
 201 1493 l 1,18,-1
EndSplineSet
Colour: aaaa88
EndChar
StartChar: C
Encoding: 67 67 38
Width: 1430
Flags: W
AnchorPoint: "Cedilla" 845 0 basechar 0
AnchorPoint: "Bottom" 845 0 basechar 0
AnchorPoint: "TopCap" 845 1493 basechar 0
Fore
1319 1378 m 1,0,-1
 1319 1165 l 1,1,2
 1217 1260 1217 1260 1101.5 1307 c 128,-1,3
 986 1354 986 1354 856 1354 c 0,4,5
 600 1354 600 1354 464 1197.5 c 128,-1,6
 328 1041 328 1041 328 745 c 0,7,8
 328 450 328 450 464 293.5 c 128,-1,9
 600 137 600 137 856 137 c 0,10,11
 986 137 986 137 1101.5 184 c 128,-1,12
 1217 231 1217 231 1319 326 c 1,13,-1
 1319 115 l 1,14,15
 1213 43 1213 43 1094.5 7 c 128,-1,16
 976 -29 976 -29 844 -29 c 0,17,18
 505 -29 505 -29 310 178.5 c 128,-1,19
 115 386 115 386 115 745 c 0,20,21
 115 1105 115 1105 310 1312.5 c 128,-1,22
 505 1520 505 1520 844 1520 c 0,23,24
 978 1520 978 1520 1096.5 1484.5 c 128,-1,25
 1215 1449 1215 1449 1319 1378 c 1,0,-1
EndSplineSet
Colour: aaaa88
EndChar
StartChar: D
Encoding: 68 68 39
Width: 1577
Flags: W
AnchorPoint: "Bottom" 788 0 basechar 0
AnchorPoint: "TopCap" 788 1493 basechar 0
Fore
403 1327 m 1,0,-1
 403 166 l 1,1,-1
 647 166 l 2,2,3
 956 166 956 166 1099.5 306 c 128,-1,4
 1243 446 1243 446 1243 748 c 0,5,6
 1243 1048 1243 1048 1099.5 1187.5 c 128,-1,7
 956 1327 956 1327 647 1327 c 2,8,-1
 403 1327 l 1,0,-1
201 1493 m 1,9,-1
 616 1493 l 2,10,11
 1050 1493 1050 1493 1253 1312.5 c 128,-1,12
 1456 1132 1456 1132 1456 748 c 0,13,14
 1456 362 1456 362 1252 181 c 128,-1,15
 1048 0 1048 0 616 0 c 2,16,-1
 201 0 l 1,17,-1
 201 1493 l 1,9,-1
EndSplineSet
Colour: aaaa88
EndChar
StartChar: E
Encoding: 69 69 40
Width: 1294
Flags: W
AnchorPoint: "Ogonek" 970 0 basechar 0
AnchorPoint: "Cedilla" 670 0 basechar 0
AnchorPoint: "Bottom" 670 0 basechar 0
AnchorPoint: "TopCap" 670 1493 basechar 0
Fore
201 1493 m 1,0,-1
 1145 1493 l 1,1,-1
 1145 1323 l 1,2,-1
 403 1323 l 1,3,-1
 403 881 l 1,4,-1
 1114 881 l 1,5,-1
 1114 711 l 1,6,-1
 403 711 l 1,7,-1
 403 170 l 1,8,-1
 1163 170 l 1,9,-1
 1163 0 l 1,10,-1
 201 0 l 1,11,-1
 201 1493 l 1,0,-1
EndSplineSet
Colour: aaaa88
EndChar
StartChar: F
Encoding: 70 70 41
Width: 1178
Flags: W
AnchorPoint: "Bottom" 622 0 basechar 0
AnchorPoint: "TopCap" 622 1493 basechar 0
Fore
201 1493 m 1,0,-1
 1059 1493 l 1,1,-1
 1059 1323 l 1,2,-1
 403 1323 l 1,3,-1
 403 883 l 5,4,-1
 995 883 l 5,5,-1
 995 713 l 5,6,-1
 403 713 l 5,7,-1
 403 0 l 1,8,-1
 201 0 l 1,9,-1
 201 1493 l 1,0,-1
EndSplineSet
Colour: aaaa88
EndChar
StartChar: G
Encoding: 71 71 42
Width: 1587
Flags: W
AnchorPoint: "Bottom" 860 0 basechar 0
AnchorPoint: "TopCap" 860 1493 basechar 0
Fore
1219 213 m 1,0,-1
 1219 614 l 1,1,-1
 889 614 l 1,2,-1
 889 780 l 1,3,-1
 1419 780 l 1,4,-1
 1419 139 l 1,5,6
 1302 56 1302 56 1161 13.5 c 128,-1,7
 1020 -29 1020 -29 860 -29 c 0,8,9
 510 -29 510 -29 312.5 175.5 c 128,-1,10
 115 380 115 380 115 745 c 0,11,12
 115 1111 115 1111 312.5 1315.5 c 128,-1,13
 510 1520 510 1520 860 1520 c 0,14,15
 1006 1520 1006 1520 1137.5 1484 c 128,-1,16
 1269 1448 1269 1448 1380 1378 c 1,17,-1
 1380 1163 l 1,18,19
 1268 1258 1268 1258 1142 1306 c 128,-1,20
 1016 1354 1016 1354 877 1354 c 0,21,22
 603 1354 603 1354 465.5 1201 c 128,-1,23
 328 1048 328 1048 328 745 c 0,24,25
 328 443 328 443 465.5 290 c 128,-1,26
 603 137 603 137 877 137 c 0,27,28
 984 137 984 137 1068 155.5 c 128,-1,29
 1152 174 1152 174 1219 213 c 1,0,-1
EndSplineSet
Colour: aaaa88
EndChar
StartChar: H
Encoding: 72 72 43
Width: 1540
Flags: W
HStem: 0 21G<201 403 1137 1339> 711 170<403 1137> 1473 20G<201 403 1137 1339>
VStem: 201 202<0 1493> 1137 202<0 1493>
AnchorPoint: "Cedilla" 320 0 basechar 0
AnchorPoint: "Bottom" 770 0 basechar 0
AnchorPoint: "TopCap" 770 1493 basechar 0
Fore
201 1493 m 1,0,-1
 403 1493 l 1,1,-1
 403 881 l 1,2,-1
 1137 881 l 1,3,-1
 1137 1493 l 1,4,-1
 1339 1493 l 1,5,-1
 1339 0 l 1,6,-1
 1137 0 l 1,7,-1
 1137 711 l 1,8,-1
 403 711 l 1,9,-1
 403 0 l 1,10,-1
 201 0 l 1,11,-1
 201 1493 l 1,0,-1
EndSplineSet
Colour: aaaa88
EndChar
StartChar: I
Encoding: 73 73 44
Width: 604
Flags: W
HStem: 0 21G<201 403> 1473 20G<201 403>
VStem: 201 202<0 1493>
AnchorPoint: "Ogonek" 302 0 basechar 0
AnchorPoint: "Bottom" 302 0 basechar 0
AnchorPoint: "TopCap" 302 1493 basechar 0
Fore
201 1493 m 1,0,-1
 403 1493 l 1,1,-1
 403 0 l 1,2,-1
 201 0 l 1,3,-1
 201 1493 l 1,0,-1
EndSplineSet
Colour: aaaa88
EndChar
StartChar: J
Encoding: 74 74 45
Width: 604
Flags: W
AnchorPoint: "Bottom" 302 -426 basechar 0
AnchorPoint: "TopCap" 302 1493 basechar 0
Fore
201 1493 m 1,0,-1
 403 1493 l 1,1,-1
 403 104 l 2,2,3
 403 -166 403 -166 300.5 -288 c 128,-1,4
 198 -410 198 -410 -29 -410 c 2,5,-1
 -106 -410 l 1,6,-1
 -106 -240 l 1,7,-1
 -43 -240 l 2,8,9
 91 -240 91 -240 146 -165 c 128,-1,10
 201 -90 201 -90 201 104 c 2,11,-1
 201 1493 l 1,0,-1
EndSplineSet
Colour: aaaa88
EndChar
StartChar: K
Encoding: 75 75 46
Width: 1343
Flags: W
AnchorPoint: "Bottom" 720 0 basechar 0
AnchorPoint: "TopCap" 720 1493 basechar 0
Fore
201 1493 m 1,0,-1
 403 1493 l 1,1,-1
 403 862 l 1,2,-1
 1073 1493 l 1,3,-1
 1333 1493 l 1,4,-1
 592 797 l 1,5,-1
 1386 0 l 1,6,-1
 1120 0 l 1,7,-1
 403 719 l 1,8,-1
 403 0 l 1,9,-1
 201 0 l 1,10,-1
 201 1493 l 1,0,-1
EndSplineSet
Colour: aaaa88
EndChar
StartChar: L
Encoding: 76 76 47
Width: 1141
Flags: W
HStem: 0 170<402 1130> 1473 20G<201 403>
VStem: 201 202<0 1493>
AnchorPoint: "Bottom" 630 0 basechar 0
AnchorPoint: "TopCap" 630 1493 basechar 0
Fore
201 1493 m 5,0,-1
 403 1493 l 5,1,-1
 403 170 l 5,2,-1
 1130 170 l 5,3,-1
 1130 0 l 5,4,-1
 201 0 l 5,5,-1
 201 1493 l 5,0,-1
EndSplineSet
Colour: aaaa88
EndChar
StartChar: M
Encoding: 77 77 48
Width: 1767
Flags: W
AnchorPoint: "Bottom" 883 0 basechar 0
AnchorPoint: "TopCap" 883 1493 basechar 0
Fore
201 1493 m 1,0,-1
 502 1493 l 1,1,-1
 883 477 l 1,2,-1
 1266 1493 l 1,3,-1
 1567 1493 l 1,4,-1
 1567 0 l 1,5,-1
 1370 0 l 1,6,-1
 1370 1311 l 1,7,-1
 985 287 l 1,8,-1
 782 287 l 1,9,-1
 397 1311 l 1,10,-1
 397 0 l 1,11,-1
 201 0 l 1,12,-1
 201 1493 l 1,0,-1
EndSplineSet
Colour: aaaa88
EndChar
StartChar: N
Encoding: 78 78 49
Width: 1532
Flags: W
AnchorPoint: "Bottom" 766 0 basechar 0
AnchorPoint: "TopCap" 766 1493 basechar 0
Fore
201 1493 m 1,0,-1
 473 1493 l 1,1,-1
 1135 244 l 1,2,-1
 1135 1493 l 1,3,-1
 1331 1493 l 1,4,-1
 1331 0 l 1,5,-1
 1059 0 l 1,6,-1
 397 1249 l 1,7,-1
 397 0 l 1,8,-1
 201 0 l 1,9,-1
 201 1493 l 1,0,-1
EndSplineSet
Colour: aaaa88
EndChar
StartChar: O
Encoding: 79 79 50
Width: 1612
Flags: W
AnchorPoint: "Ogonek" 806 0 basechar 0
AnchorPoint: "Horn" 1319 1228 basechar 0
AnchorPoint: "TopCap" 806 1493 basechar 0
AnchorPoint: "Bottom" 806 0 basechar 0
Fore
807 1356 m 128,-1,1
 587 1356 587 1356 457.5 1192 c 128,-1,2
 328 1028 328 1028 328 745 c 0,3,4
 328 463 328 463 457.5 299 c 128,-1,5
 587 135 587 135 807 135 c 128,-1,6
 1027 135 1027 135 1155.5 299 c 128,-1,7
 1284 463 1284 463 1284 745 c 0,8,9
 1284 1028 1284 1028 1155.5 1192 c 128,-1,0
 1027 1356 1027 1356 807 1356 c 128,-1,1
807 1520 m 0,10,11
 1121 1520 1121 1520 1309 1309.5 c 128,-1,12
 1497 1099 1497 1099 1497 745 c 4,13,14
 1497 392 1497 392 1309 181.5 c 132,-1,15
 1121 -29 1121 -29 807 -29 c 0,16,17
 492 -29 492 -29 303.5 181 c 128,-1,18
 115 391 115 391 115 745 c 128,-1,19
 115 1099 115 1099 303.5 1309.5 c 128,-1,20
 492 1520 492 1520 807 1520 c 0,10,11
EndSplineSet
Colour: aaaa88
EndChar
StartChar: P
Encoding: 80 80 51
Width: 1235
Flags: W
AnchorPoint: "Bottom" 640 0 basechar 0
AnchorPoint: "TopCap" 640 1493 basechar 0
Fore
403 1327 m 5,0,-1
 403 766 l 5,1,-1
 657 766 l 6,2,3
 798 766 798 766 875 839 c 132,-1,4
 952 912 952 912 952 1047 c 4,5,6
 952 1181 952 1181 875 1254 c 132,-1,7
 798 1327 798 1327 657 1327 c 6,8,-1
 403 1327 l 5,0,-1
201 1493 m 5,9,-1
 657 1493 l 6,10,11
 908 1493 908 1493 1036.5 1379.5 c 132,-1,12
 1165 1266 1165 1266 1165 1047 c 4,13,14
 1165 826 1165 826 1036.5 713 c 132,-1,15
 908 600 908 600 657 600 c 6,16,-1
 403 600 l 5,17,-1
 403 0 l 5,18,-1
 201 0 l 5,19,-1
 201 1493 l 5,9,-1
EndSplineSet
Colour: aaaa88
EndChar
StartChar: Q
Encoding: 81 81 52
Width: 1612
Flags: W
AnchorPoint: "Bottom" 806 0 basechar 0
AnchorPoint: "TopCap" 806 1493 basechar 0
Fore
807 1356 m 0,0,1
 587 1356 587 1356 457.5 1192 c 128,-1,2
 328 1028 328 1028 328 745 c 0,3,4
 328 463 328 463 457.5 299 c 128,-1,5
 587 135 587 135 807 135 c 0,6,7
 1027 135 1027 135 1155.5 299 c 128,-1,8
 1284 463 1284 463 1284 745 c 0,9,10
 1284 1028 1284 1028 1155.5 1192 c 128,-1,11
 1027 1356 1027 1356 807 1356 c 0,0,1
1090 27 m 1,12,-1
 1356 -264 l 1,13,-1
 1112 -264 l 1,14,-1
 891 -25 l 1,15,16
 858 -27 858 -27 840.5 -28 c 128,-1,17
 823 -29 823 -29 807 -29 c 0,18,19
 492 -29 492 -29 303.5 181.5 c 128,-1,20
 115 392 115 392 115 745 c 0,21,22
 115 1099 115 1099 303.5 1309.5 c 128,-1,23
 492 1520 492 1520 807 1520 c 0,24,25
 1121 1520 1121 1520 1309 1309.5 c 128,-1,26
 1497 1099 1497 1099 1497 745 c 0,27,28
 1497 485 1497 485 1392.5 300 c 128,-1,29
 1288 115 1288 115 1090 27 c 1,12,-1
EndSplineSet
Colour: aaaa88
EndChar
StartChar: R
Encoding: 82 82 53
Width: 1423
Flags: W
AnchorPoint: "Bottom" 650 0 basechar 0
AnchorPoint: "TopCap" 650 1493 basechar 0
Fore
909 700 m 5,0,1
 974 678 974 678 1035.5 606 c 132,-1,2
 1097 534 1097 534 1159 408 c 5,3,-1
 1364 0 l 5,4,-1
 1147 0 l 5,5,-1
 956 383 l 5,6,7
 882 533 882 533 812.5 582 c 132,-1,8
 743 631 743 631 623 631 c 6,9,-1
 403 631 l 5,10,-1
 403 0 l 5,11,-1
 201 0 l 5,12,-1
 201 1493 l 5,13,-1
 657 1493 l 6,14,15
 913 1493 913 1493 1039 1386 c 132,-1,16
 1165 1279 1165 1279 1165 1063 c 4,17,18
 1165 922 1165 922 1099.5 829 c 132,-1,19
 1034 736 1034 736 909 700 c 5,0,1
403 1327 m 5,20,-1
 403 797 l 5,21,-1
 657 797 l 6,22,23
 803 797 803 797 877.5 864.5 c 132,-1,24
 952 932 952 932 952 1063 c 132,-1,26
 952 1194 952 1194 877.5 1260.5 c 132,-1,27
 803 1327 803 1327 657 1327 c 6,28,-1
 403 1327 l 5,20,-1
EndSplineSet
Colour: aaaa88
EndChar
StartChar: S
Encoding: 83 83 54
Width: 1300
Flags: W
AnchorPoint: "Cedilla" 658 0 basechar 0
AnchorPoint: "Bottom" 658 0 basechar 0
AnchorPoint: "TopCap" 658 1493 basechar 0
Fore
1096 1444 m 1,0,-1
 1096 1247 l 1,1,2
 981 1302 981 1302 879 1329 c 128,-1,3
 777 1356 777 1356 682 1356 c 0,4,5
 517 1356 517 1356 427.5 1292 c 128,-1,6
 338 1228 338 1228 338 1110 c 0,7,8
 338 1011 338 1011 397.5 960.5 c 128,-1,9
 457 910 457 910 623 879 c 1,10,-1
 745 854 l 1,11,12
 971 811 971 811 1078.5 702.5 c 128,-1,13
 1186 594 1186 594 1186 412 c 0,14,15
 1186 195 1186 195 1040.5 83 c 128,-1,16
 895 -29 895 -29 614 -29 c 0,17,18
 508 -29 508 -29 388.5 -5 c 128,-1,19
 269 19 269 19 141 66 c 1,20,-1
 141 274 l 1,21,22
 264 205 264 205 382 170 c 128,-1,23
 500 135 500 135 614 135 c 0,24,25
 787 135 787 135 881 203 c 128,-1,26
 975 271 975 271 975 397 c 0,27,28
 975 507 975 507 907.5 569 c 128,-1,29
 840 631 840 631 686 662 c 2,30,-1
 563 686 l 2,31,32
 337 731 337 731 236 827 c 128,-1,33
 135 923 135 923 135 1094 c 0,34,35
 135 1292 135 1292 274.5 1406 c 128,-1,36
 414 1520 414 1520 659 1520 c 0,37,38
 764 1520 764 1520 873 1501 c 128,-1,39
 982 1482 982 1482 1096 1444 c 1,0,-1
EndSplineSet
Colour: aaaa88
EndChar
StartChar: T
Encoding: 84 84 55
Width: 1251
Flags: W
AnchorPoint: "Cedilla" 625 0 basechar 0
AnchorPoint: "Bottom" 625 0 basechar 0
AnchorPoint: "TopCap" 625 1493 basechar 0
Fore
-6 1493 m 1,0,-1
 1257 1493 l 1,1,-1
 1257 1323 l 1,2,-1
 727 1323 l 1,3,-1
 727 0 l 1,4,-1
 524 0 l 1,5,-1
 524 1323 l 1,6,-1
 -6 1323 l 1,7,-1
 -6 1493 l 1,0,-1
EndSplineSet
Colour: aaaa88
EndChar
StartChar: U
Encoding: 85 85 56
Width: 1499
Flags: W
AnchorPoint: "Ogonek" 750 0 basechar 0
AnchorPoint: "Horn" 1226 1369 basechar 0
AnchorPoint: "Bottom" 750 0 basechar 0
AnchorPoint: "TopCap" 750 1493 basechar 0
Fore
178 1493 m 1,0,-1
 381 1493 l 1,1,-1
 381 586 l 2,2,3
 381 346 381 346 468 240.5 c 128,-1,4
 555 135 555 135 750 135 c 0,5,6
 944 135 944 135 1031 240.5 c 128,-1,7
 1118 346 1118 346 1118 586 c 2,8,-1
 1118 1493 l 1,9,-1
 1321 1493 l 1,10,-1
 1321 561 l 2,11,12
 1321 269 1321 269 1176.5 120 c 128,-1,13
 1032 -29 1032 -29 750 -29 c 0,14,15
 467 -29 467 -29 322.5 120 c 128,-1,16
 178 269 178 269 178 561 c 2,17,-1
 178 1493 l 1,0,-1
EndSplineSet
Colour: aaaa88
EndChar
StartChar: V
Encoding: 86 86 57
Width: 1401
Flags: W
AnchorPoint: "Bottom" 700 0 basechar 0
AnchorPoint: "TopCap" 700 1493 basechar 0
Fore
586 0 m 1,0,-1
 16 1493 l 1,1,-1
 227 1493 l 1,2,-1
 700 236 l 1,3,-1
 1174 1493 l 1,4,-1
 1384 1493 l 1,5,-1
 815 0 l 1,6,-1
 586 0 l 1,0,-1
EndSplineSet
Colour: aaaa88
EndChar
StartChar: W
Encoding: 87 87 58
Width: 2025
Flags: W
AnchorPoint: "Bottom" 1012 0 basechar 0
AnchorPoint: "TopCap" 1012 1493 basechar 0
Fore
68 1493 m 1,0,-1
 272 1493 l 1,1,-1
 586 231 l 1,2,-1
 899 1493 l 1,3,-1
 1126 1493 l 1,4,-1
 1440 231 l 1,5,-1
 1753 1493 l 1,6,-1
 1958 1493 l 1,7,-1
 1583 0 l 1,8,-1
 1329 0 l 1,9,-1
 1014 1296 l 1,10,-1
 696 0 l 1,11,-1
 442 0 l 1,12,-1
 68 1493 l 1,0,-1
EndSplineSet
Colour: aaaa88
EndChar
StartChar: X
Encoding: 88 88 59
Width: 1403
Flags: W
AnchorPoint: "Bottom" 701 0 basechar 0
AnchorPoint: "TopCap" 701 1493 basechar 0
Fore
129 1493 m 1,0,-1
 346 1493 l 1,1,-1
 717 938 l 1,2,-1
 1090 1493 l 1,3,-1
 1307 1493 l 1,4,-1
 827 776 l 1,5,-1
 1339 0 l 1,6,-1
 1122 0 l 1,7,-1
 702 635 l 1,8,-1
 279 0 l 1,9,-1
 61 0 l 1,10,-1
 594 797 l 1,11,-1
 129 1493 l 1,0,-1
EndSplineSet
Colour: aaaa88
EndChar
StartChar: Y
Encoding: 89 89 60
Width: 1251
Flags: W
HStem: 0 21G<524 727> 1473 20G<-4 213 1038 1255>
VStem: 524 203<0 711>
AnchorPoint: "Bottom" 625 0 basechar 0
AnchorPoint: "TopCap" 625 1493 basechar 0
Fore
-4 1493 m 1,0,-1
 213 1493 l 1,1,-1
 627 879 l 1,2,-1
 1038 1493 l 1,3,-1
 1255 1493 l 1,4,-1
 727 711 l 1,5,-1
 727 0 l 1,6,-1
 524 0 l 1,7,-1
 524 711 l 1,8,-1
 -4 1493 l 1,0,-1
EndSplineSet
Colour: aaaa88
EndChar
StartChar: Z
Encoding: 90 90 61
Width: 1403
Flags: W
AnchorPoint: "Bottom" 701 0 basechar 0
AnchorPoint: "TopCap" 701 1493 basechar 0
Fore
115 1493 m 1,0,-1
 1288 1493 l 1,1,-1
 1288 1339 l 1,2,-1
 344 170 l 1,3,-1
 1311 170 l 1,4,-1
 1311 0 l 1,5,-1
 92 0 l 1,6,-1
 92 154 l 1,7,-1
 1036 1323 l 1,8,-1
 115 1323 l 1,9,-1
 115 1493 l 1,0,-1
EndSplineSet
Colour: aaaa88
EndChar
StartChar: bracketleft
Encoding: 91 91 62
Width: 799
Flags: W
Fore
176 1556 m 1,0,-1
 600 1556 l 1,1,-1
 600 1413 l 1,2,-1
 360 1413 l 1,3,-1
 360 -127 l 1,4,-1
 600 -127 l 1,5,-1
 600 -270 l 1,6,-1
 176 -270 l 1,7,-1
 176 1556 l 1,0,-1
EndSplineSet
Colour: aaaa88
EndChar
StartChar: backslash
Encoding: 92 92 63
Width: 690
Flags: W
Fore
170 1493 m 1,0,-1
 690 -190 l 1,1,-1
 520 -190 l 1,2,-1
 0 1493 l 1,3,-1
 170 1493 l 1,0,-1
EndSplineSet
Colour: aaaa88
EndChar
StartChar: bracketright
Encoding: 93 93 64
Width: 799
Flags: W
Fore
623 1556 m 1,0,-1
 623 -270 l 1,1,-1
 199 -270 l 1,2,-1
 199 -127 l 1,3,-1
 438 -127 l 1,4,-1
 438 1413 l 1,5,-1
 199 1413 l 1,6,-1
 199 1556 l 1,7,-1
 623 1556 l 1,0,-1
EndSplineSet
Colour: aaaa88
EndChar
StartChar: asciicircum
Encoding: 94 94 65
Width: 1716
Flags: W
Fore
956 1493 m 1,0,-1
 1499 936 l 1,1,-1
 1298 936 l 1,2,-1
 858 1331 l 1,3,-1
 418 936 l 1,4,-1
 217 936 l 1,5,-1
 760 1493 l 1,6,-1
 956 1493 l 1,0,-1
EndSplineSet
Colour: aaaa88
EndChar
StartChar: underscore
Encoding: 95 95 66
Width: 1024
Flags: W
Fore
1044 -340 m 1,0,-1
 1044 -483 l 1,1,-1
 -20 -483 l 1,2,-1
 -20 -340 l 1,3,-1
 1044 -340 l 1,0,-1
EndSplineSet
Colour: aaaa88
EndChar
StartChar: grave
Encoding: 96 96 67
Width: 1024
Flags: W
Fore
367 1638 m 1,0,-1
 649 1264 l 1,1,-1
 496 1264 l 1,2,-1
 170 1638 l 1,3,-1
 367 1638 l 1,0,-1
EndSplineSet
Colour: aaaa88
EndChar
StartChar: a
Encoding: 97 97 68
Width: 1255
Flags: W
AnchorPoint: "Top" 592 1120 basechar 0
AnchorPoint: "Bottom" 592 0 basechar 0
AnchorPoint: "Ogonek" 957 0 basechar 0
Fore
702 563 m 2,0,1
 479 563 479 563 393 512 c 128,-1,2
 307 461 307 461 307 338 c 4,3,4
 307 240 307 240 371.5 182.5 c 132,-1,5
 436 125 436 125 547 125 c 4,6,7
 700 125 700 125 792.5 233.5 c 132,-1,8
 885 342 885 342 885 522 c 2,9,-1
 885 563 l 1,10,-1
 702 563 l 2,0,1
1069 639 m 2,11,-1
 1069 0 l 1,12,-1
 885 0 l 5,13,-1
 885 170 l 5,14,15
 822 68 822 68 728 19.5 c 132,-1,16
 634 -29 634 -29 498 -29 c 4,17,18
 326 -29 326 -29 224.5 67.5 c 132,-1,19
 123 164 123 164 123 326 c 4,20,21
 123 515 123 515 249.5 611 c 128,-1,22
 376 707 376 707 627 707 c 2,23,-1
 885 707 l 1,24,-1
 885 725 l 2,25,26
 885 852 885 852 801.5 921.5 c 128,-1,27
 718 991 718 991 567 991 c 0,28,29
 471 991 471 991 380 968 c 128,-1,30
 289 945 289 945 205 899 c 1,31,-1
 205 1069 l 1,32,33
 306 1108 306 1108 401 1127.5 c 128,-1,34
 496 1147 496 1147 586 1147 c 0,35,36
 829 1147 829 1147 949 1021 c 128,-1,37
 1069 895 1069 895 1069 639 c 2,11,-1
EndSplineSet
Colour: aaaa88
EndChar
StartChar: b
Encoding: 98 98 69
Width: 1300
Flags: W
AnchorPoint: "Bottom" 684 0 basechar 0
AnchorPoint: "Top" 684 1493 basechar 0
Fore
997 559 m 0,0,1
 997 762 997 762 913.5 877.5 c 128,-1,2
 830 993 830 993 684 993 c 0,3,4
 538 993 538 993 454.5 877.5 c 128,-1,5
 371 762 371 762 371 559 c 0,6,7
 371 356 371 356 454.5 240.5 c 128,-1,8
 538 125 538 125 684 125 c 0,9,10
 830 125 830 125 913.5 240.5 c 128,-1,11
 997 356 997 356 997 559 c 0,0,1
371 950 m 1,12,13
 429 1050 429 1050 517.5 1098.5 c 128,-1,14
 606 1147 606 1147 729 1147 c 0,15,16
 933 1147 933 1147 1060.5 985 c 128,-1,17
 1188 823 1188 823 1188 559 c 0,18,19
 1188 295 1188 295 1060.5 133 c 128,-1,20
 933 -29 933 -29 729 -29 c 0,21,22
 606 -29 606 -29 517.5 19.5 c 128,-1,23
 429 68 429 68 371 168 c 1,24,-1
 371 0 l 1,25,-1
 186 0 l 1,26,-1
 186 1556 l 1,27,-1
 371 1556 l 1,28,-1
 371 950 l 1,12,13
EndSplineSet
Colour: aaaa88
EndChar
StartChar: c
Encoding: 99 99 70
Width: 1126
Flags: W
AnchorPoint: "Cedilla" 650 0 basechar 0
AnchorPoint: "Top" 630 1120 basechar 0
AnchorPoint: "Bottom" 630 0 basechar 0
Fore
999 1077 m 1,0,-1
 999 905 l 1,1,2
 921 948 921 948 842.5 969.5 c 128,-1,3
 764 991 764 991 684 991 c 0,4,5
 505 991 505 991 406 877.5 c 128,-1,6
 307 764 307 764 307 559 c 128,-1,7
 307 354 307 354 406 240.5 c 128,-1,8
 505 127 505 127 684 127 c 0,9,10
 764 127 764 127 842.5 148.5 c 128,-1,11
 921 170 921 170 999 213 c 1,12,-1
 999 43 l 1,13,14
 922 7 922 7 839.5 -11 c 128,-1,15
 757 -29 757 -29 664 -29 c 0,16,17
 411 -29 411 -29 262 130 c 128,-1,18
 113 289 113 289 113 559 c 0,19,20
 113 833 113 833 263.5 990 c 128,-1,21
 414 1147 414 1147 676 1147 c 0,22,23
 761 1147 761 1147 842 1129.5 c 128,-1,24
 923 1112 923 1112 999 1077 c 1,0,-1
EndSplineSet
Colour: aaaa88
EndChar
StartChar: d
Encoding: 100 100 71
Width: 1300
Flags: W
AnchorPoint: "Bottom" 616 0 basechar 0
AnchorPoint: "Top" 616 1120 basechar 0
Fore
930 950 m 1,0,-1
 930 1556 l 1,1,-1
 1114 1556 l 1,2,-1
 1114 0 l 1,3,-1
 930 0 l 1,4,-1
 930 168 l 1,5,6
 872 68 872 68 783.5 19.5 c 128,-1,7
 695 -29 695 -29 571 -29 c 0,8,9
 368 -29 368 -29 240.5 133 c 128,-1,10
 113 295 113 295 113 559 c 0,11,12
 113 823 113 823 240.5 985 c 128,-1,13
 368 1147 368 1147 571 1147 c 0,14,15
 695 1147 695 1147 783.5 1098.5 c 128,-1,16
 872 1050 872 1050 930 950 c 1,0,-1
303 559 m 0,17,18
 303 356 303 356 386.5 240.5 c 128,-1,19
 470 125 470 125 616 125 c 0,20,21
 762 125 762 125 846 240.5 c 128,-1,22
 930 356 930 356 930 559 c 0,23,24
 930 762 930 762 846 877.5 c 128,-1,25
 762 993 762 993 616 993 c 0,26,27
 470 993 470 993 386.5 877.5 c 128,-1,28
 303 762 303 762 303 559 c 0,17,18
EndSplineSet
Colour: aaaa88
EndChar
StartChar: e
Encoding: 101 101 72
Width: 1260
Flags: W
AnchorPoint: "Ogonek" 598 0 basechar 0
AnchorPoint: "Bottom" 598 0 basechar 0
AnchorPoint: "Top" 616 1120 basechar 0
Fore
1151 606 m 2,0,-1
 1151 516 l 1,1,-1
 305 516 l 1,2,3
 317 326 317 326 420 226 c 0,4,5
 522 127 522 127 705 127 c 0,6,7
 811 127 811 127 910 153 c 0,8,9
 1010 179 1010 179 1108 231 c 1,10,-1
 1108 57 l 1,11,12
 1009 15 1009 15 905 -7 c 128,-1,13
 801 -29 801 -29 694 -29 c 0,14,15
 426 -29 426 -29 270 127 c 0,16,17
 113 283 113 283 113 549 c 0,18,19
 113 824 113 824 262 986 c 0,20,21
 410 1147 410 1147 662 1147 c 0,22,23
 888 1147 888 1147 1020 1002 c 0,24,25
 1151 856 1151 856 1151 606 c 2,0,-1
967 660 m 1,26,27
 965 811 965 811 882 901 c 0,28,29
 800 991 800 991 664 991 c 0,30,31
 510 991 510 991 418 904 c 0,32,33
 325 817 325 817 311 660 c 1,34,-1
 967 660 l 1,26,27
EndSplineSet
Colour: aaaa88
EndChar
StartChar: f
Encoding: 102 102 73
Width: 721
Flags: W
AnchorPoint: "Bottom" 345 0 basechar 0
AnchorPoint: "Top" 390 1493 basechar 0
Fore
760 1556 m 1,0,-1
 760 1403 l 1,1,-1
 584 1403 l 2,2,3
 485 1403 485 1403 446.5 1363 c 128,-1,4
 408 1323 408 1323 408 1219 c 2,5,-1
 408 1120 l 1,6,-1
 711 1120 l 1,7,-1
 711 977 l 1,8,-1
 408 977 l 1,9,-1
 408 0 l 1,10,-1
 223 0 l 1,11,-1
 223 977 l 1,12,-1
 47 977 l 1,13,-1
 47 1120 l 1,14,-1
 223 1120 l 1,15,-1
 223 1198 l 2,16,17
 223 1385 223 1385 310 1470.5 c 128,-1,18
 397 1556 397 1556 586 1556 c 2,19,-1
 760 1556 l 1,0,-1
EndSplineSet
Colour: aaaa88
EndChar
StartChar: g
Encoding: 103 103 74
Width: 1300
Flags: W
AnchorPoint: "Bottom" 598 -426 basechar 0
AnchorPoint: "Top" 616 1120 basechar 0
Fore
930 573 m 0,0,1
 930 773 930 773 847.5 883 c 128,-1,2
 765 993 765 993 616 993 c 0,3,4
 468 993 468 993 385.5 883 c 128,-1,5
 303 773 303 773 303 573 c 0,6,7
 303 374 303 374 385.5 264 c 128,-1,8
 468 154 468 154 616 154 c 0,9,10
 765 154 765 154 847.5 264 c 128,-1,11
 930 374 930 374 930 573 c 0,0,1
1114 139 m 2,12,13
 1114 -147 1114 -147 987 -286.5 c 128,-1,14
 860 -426 860 -426 598 -426 c 4,15,16
 501 -426 501 -426 415 -411.5 c 132,-1,17
 329 -397 329 -397 248 -367 c 5,18,-1
 248 -188 l 5,19,20
 329 -232 329 -232 408 -253 c 132,-1,21
 487 -274 487 -274 569 -274 c 4,22,23
 750 -274 750 -274 840 -179.5 c 128,-1,24
 930 -85 930 -85 930 106 c 2,25,-1
 930 197 l 1,26,27
 873 98 873 98 784 49 c 128,-1,28
 695 0 695 0 571 0 c 0,29,30
 365 0 365 0 239 157 c 128,-1,31
 113 314 113 314 113 573 c 0,32,33
 113 833 113 833 239 990 c 128,-1,34
 365 1147 365 1147 571 1147 c 0,35,36
 695 1147 695 1147 784 1098 c 128,-1,37
 873 1049 873 1049 930 950 c 1,38,-1
 930 1120 l 1,39,-1
 1114 1120 l 1,40,-1
 1114 139 l 2,12,13
EndSplineSet
Colour: aaaa88
EndChar
StartChar: h
Encoding: 104 104 75
Width: 1298
Flags: W
HStem: 0 21G<186 371 940 1124> 987 160<617.5 829.5>
VStem: 186 185<0 1556> 940 184<0 792>
AnchorPoint: "Cedilla" 286 0 basechar 0
AnchorPoint: "Bottom" 649 0 basechar 0
AnchorPoint: "Top" 649 1493 basechar 0
Fore
1124 676 m 2,0,-1
 1124 0 l 1,1,-1
 940 0 l 1,2,-1
 940 670 l 2,3,4
 940 829 940 829 878 908 c 128,-1,5
 816 987 816 987 692 987 c 0,6,7
 543 987 543 987 457 892 c 128,-1,8
 371 797 371 797 371 633 c 2,9,-1
 371 0 l 1,10,-1
 186 0 l 1,11,-1
 186 1556 l 1,12,-1
 371 1556 l 1,13,-1
 371 946 l 1,14,15
 437 1047 437 1047 526.5 1097 c 128,-1,16
 616 1147 616 1147 733 1147 c 0,17,18
 926 1147 926 1147 1025 1027.5 c 128,-1,19
 1124 908 1124 908 1124 676 c 2,0,-1
EndSplineSet
Colour: aaaa88
EndChar
StartChar: i
Encoding: 105 105 76
Width: 569
Flags: W
AnchorPoint: "Ogonek" 284 0 basechar 0
AnchorPoint: "Top" 284 1120 basechar 0
AnchorPoint: "Bottom" 284 0 basechar 0
Fore
193 1120 m 1,0,-1
 377 1120 l 1,1,-1
 377 0 l 1,2,-1
 193 0 l 1,3,-1
 193 1120 l 1,0,-1
193 1556 m 1,4,-1
 377 1556 l 1,5,-1
 377 1323 l 1,6,-1
 193 1323 l 1,7,-1
 193 1556 l 1,4,-1
EndSplineSet
Colour: aaaa88
EndChar
StartChar: j
Encoding: 106 106 77
Width: 569
Flags: W
HStem: -426 21G<-37 33> 1100 20G<193 377> 1536 20G<193 377>
VStem: 193 184<-20 1120 1323 1556>
AnchorPoint: "Bottom" 284 -426 basechar 0
AnchorPoint: "Top" 284 1120 basechar 0
Fore
193 1120 m 1,0,-1
 377 1120 l 1,1,-1
 377 -20 l 2,2,3
 377 -234 377 -234 295.5 -330 c 128,-1,4
 214 -426 214 -426 33 -426 c 2,5,-1
 -37 -426 l 1,6,-1
 -37 -270 l 1,7,-1
 12 -270 l 2,8,9
 117 -270 117 -270 155 -221.5 c 128,-1,10
 193 -173 193 -173 193 -20 c 2,11,-1
 193 1120 l 1,0,-1
193 1556 m 1,12,-1
 377 1556 l 1,13,-1
 377 1323 l 1,14,-1
 193 1323 l 1,15,-1
 193 1556 l 1,12,-1
EndSplineSet
Colour: aaaa88
EndChar
StartChar: k
Encoding: 107 107 78
Width: 1186
Flags: W
AnchorPoint: "Bottom" 625 0 basechar 0
AnchorPoint: "Top" 625 1493 basechar 0
Fore
186 1556 m 1,0,-1
 371 1556 l 1,1,-1
 371 637 l 1,2,-1
 920 1120 l 1,3,-1
 1155 1120 l 1,4,-1
 561 596 l 1,5,-1
 1180 0 l 1,6,-1
 940 0 l 1,7,-1
 371 547 l 1,8,-1
 371 0 l 1,9,-1
 186 0 l 1,10,-1
 186 1556 l 1,0,-1
EndSplineSet
Colour: aaaa88
EndChar
StartChar: l
Encoding: 108 108 79
Width: 569
Flags: W
AnchorPoint: "Top" 285 1493 basechar 0
AnchorPoint: "Bottom" 284 0 basechar 0
Fore
193 1556 m 1,0,-1
 377 1556 l 5,1,-1
 377 0 l 5,2,-1
 193 0 l 1,3,-1
 193 1556 l 1,0,-1
EndSplineSet
Colour: aaaa88
EndChar
StartChar: m
Encoding: 109 109 80
Width: 1995
Flags: W
AnchorPoint: "Top" 1004 1120 basechar 0
AnchorPoint: "Bottom" 1004 0 basechar 0
Fore
1065 905 m 1,0,1
 1134 1029 1134 1029 1230 1088 c 128,-1,2
 1326 1147 1326 1147 1456 1147 c 0,3,4
 1631 1147 1631 1147 1726 1024.5 c 128,-1,5
 1821 902 1821 902 1821 676 c 2,6,-1
 1821 0 l 1,7,-1
 1636 0 l 1,8,-1
 1636 670 l 2,9,10
 1636 831 1636 831 1579 909 c 128,-1,11
 1522 987 1522 987 1405 987 c 0,12,13
 1262 987 1262 987 1179 892 c 128,-1,14
 1096 797 1096 797 1096 633 c 2,15,-1
 1096 0 l 1,16,-1
 911 0 l 1,17,-1
 911 670 l 2,18,19
 911 832 911 832 854 909.5 c 128,-1,20
 797 987 797 987 678 987 c 0,21,22
 537 987 537 987 454 891.5 c 128,-1,23
 371 796 371 796 371 633 c 2,24,-1
 371 0 l 1,25,-1
 186 0 l 1,26,-1
 186 1120 l 1,27,-1
 371 1120 l 1,28,-1
 371 946 l 1,29,30
 434 1049 434 1049 522 1098 c 128,-1,31
 610 1147 610 1147 731 1147 c 0,32,33
 853 1147 853 1147 938.5 1085 c 128,-1,34
 1024 1023 1024 1023 1065 905 c 1,0,1
EndSplineSet
Colour: aaaa88
EndChar
StartChar: n
Encoding: 110 110 81
Width: 1298
Flags: W
AnchorPoint: "Top" 649 1120 basechar 0
AnchorPoint: "Bottom" 649 0 basechar 0
Fore
1124 676 m 2,0,-1
 1124 0 l 1,1,-1
 940 0 l 1,2,-1
 940 670 l 2,3,4
 940 829 940 829 878 908 c 128,-1,5
 816 987 816 987 692 987 c 0,6,7
 543 987 543 987 457 892 c 128,-1,8
 371 797 371 797 371 633 c 2,9,-1
 371 0 l 1,10,-1
 186 0 l 1,11,-1
 186 1120 l 1,12,-1
 371 1120 l 1,13,-1
 371 946 l 1,14,15
 437 1047 437 1047 526.5 1097 c 128,-1,16
 616 1147 616 1147 733 1147 c 0,17,18
 926 1147 926 1147 1025 1027.5 c 128,-1,19
 1124 908 1124 908 1124 676 c 2,0,-1
EndSplineSet
Colour: aaaa88
EndChar
StartChar: o
Encoding: 111 111 82
Width: 1253
Flags: W
AnchorPoint: "Ogonek" 627 0 basechar 0
AnchorPoint: "Horn" 960 948 basechar 0
AnchorPoint: "Top" 627 1120 basechar 0
AnchorPoint: "Bottom" 627 0 basechar 0
Fore
627 991 m 0,0,1
 479 991 479 991 393 876 c 0,2,3
 307 760 307 760 307 559 c 128,-1,4
 307 358 307 358 392 242 c 0,5,6
 478 127 478 127 627 127 c 0,7,8
 774 127 774 127 860 243 c 128,-1,9
 946 359 946 359 946 559 c 0,10,11
 946 758 946 758 860 874 c 0,12,13
 774 991 774 991 627 991 c 0,0,1
627 1147 m 0,14,15
 867 1147 867 1147 1004 991 c 128,-1,16
 1141 835 1141 835 1141 559 c 0,17,18
 1141 284 1141 284 1004 128 c 0,19,20
 867 -29 867 -29 627 -29 c 0,21,22
 386 -29 386 -29 250 128 c 0,23,24
 113 284 113 284 113 559 c 0,25,26
 113 835 113 835 250 991 c 0,27,28
 386 1147 386 1147 627 1147 c 0,14,15
EndSplineSet
Colour: aaaa88
EndChar
StartChar: p
Encoding: 112 112 83
Width: 1300
Flags: W
AnchorPoint: "Bottom" 684 -426 basechar 0
AnchorPoint: "Top" 684 1120 basechar 0
Fore
371 168 m 1,0,-1
 371 -426 l 1,1,-1
 186 -426 l 1,2,-1
 186 1120 l 1,3,-1
 371 1120 l 1,4,-1
 371 950 l 1,5,6
 429 1050 429 1050 517.5 1098.5 c 128,-1,7
 606 1147 606 1147 729 1147 c 0,8,9
 933 1147 933 1147 1060.5 985 c 128,-1,10
 1188 823 1188 823 1188 559 c 0,11,12
 1188 295 1188 295 1060.5 133 c 128,-1,13
 933 -29 933 -29 729 -29 c 0,14,15
 606 -29 606 -29 517.5 19.5 c 128,-1,16
 429 68 429 68 371 168 c 1,0,-1
997 559 m 0,17,18
 997 762 997 762 913.5 877.5 c 128,-1,19
 830 993 830 993 684 993 c 0,20,21
 538 993 538 993 454.5 877.5 c 128,-1,22
 371 762 371 762 371 559 c 0,23,24
 371 356 371 356 454.5 240.5 c 128,-1,25
 538 125 538 125 684 125 c 0,26,27
 830 125 830 125 913.5 240.5 c 128,-1,28
 997 356 997 356 997 559 c 0,17,18
EndSplineSet
Colour: aaaa88
EndChar
StartChar: q
Encoding: 113 113 84
Width: 1300
Flags: W
AnchorPoint: "Bottom" 616 -426 basechar 0
AnchorPoint: "Top" 616 1120 basechar 0
Fore
303 559 m 0,0,1
 303 356 303 356 386.5 240.5 c 128,-1,2
 470 125 470 125 616 125 c 0,3,4
 762 125 762 125 846 240.5 c 128,-1,5
 930 356 930 356 930 559 c 0,6,7
 930 762 930 762 846 877.5 c 128,-1,8
 762 993 762 993 616 993 c 0,9,10
 470 993 470 993 386.5 877.5 c 128,-1,11
 303 762 303 762 303 559 c 0,0,1
930 168 m 1,12,13
 872 68 872 68 783.5 19.5 c 128,-1,14
 695 -29 695 -29 571 -29 c 0,15,16
 368 -29 368 -29 240.5 133 c 128,-1,17
 113 295 113 295 113 559 c 0,18,19
 113 823 113 823 240.5 985 c 128,-1,20
 368 1147 368 1147 571 1147 c 0,21,22
 695 1147 695 1147 783.5 1098.5 c 128,-1,23
 872 1050 872 1050 930 950 c 1,24,-1
 930 1120 l 1,25,-1
 1114 1120 l 5,26,-1
 1114 -426 l 1,27,-1
 930 -426 l 1,28,-1
 930 168 l 1,12,13
EndSplineSet
Colour: aaaa88
EndChar
StartChar: r
Encoding: 114 114 85
Width: 842
Flags: W
AnchorPoint: "Cedilla" 495 0 basechar 0
AnchorPoint: "Bottom" 495 0 basechar 0
AnchorPoint: "Top" 535 1120 basechar 0
Fore
842 948 m 1,0,1
 811 966 811 966 774.5 974.5 c 128,-1,2
 738 983 738 983 694 983 c 0,3,4
 538 983 538 983 454.5 881.5 c 128,-1,5
 371 780 371 780 371 590 c 2,6,-1
 371 0 l 1,7,-1
 186 0 l 1,8,-1
 186 1120 l 1,9,-1
 371 1120 l 1,10,-1
 371 946 l 1,11,12
 429 1048 429 1048 522 1097.5 c 128,-1,13
 615 1147 615 1147 748 1147 c 0,14,15
 768 1147 768 1147 791 1144.5 c 128,-1,16
 814 1142 814 1142 842 1137 c 1,17,-1
 842 948 l 1,0,1
EndSplineSet
Colour: aaaa88
EndChar
StartChar: s
Encoding: 115 115 86
Width: 1067
Flags: W
AnchorPoint: "Cedilla" 535 0 basechar 0
AnchorPoint: "Top" 535 1120 basechar 0
AnchorPoint: "Bottom" 535 0 basechar 0
Fore
907 1087 m 1,0,-1
 907 913 l 1,1,2
 829 953 829 953 745 973 c 128,-1,3
 661 993 661 993 571 993 c 0,4,5
 434 993 434 993 365.5 951 c 128,-1,6
 297 909 297 909 297 825 c 0,7,8
 297 761 297 761 346 724.5 c 128,-1,9
 395 688 395 688 543 655 c 2,10,-1
 606 641 l 2,11,12
 802 599 802 599 884.5 522.5 c 128,-1,13
 967 446 967 446 967 309 c 0,14,15
 967 153 967 153 843.5 62 c 128,-1,16
 720 -29 720 -29 504 -29 c 0,17,18
 414 -29 414 -29 316.5 -11.5 c 128,-1,19
 219 6 219 6 111 41 c 1,20,-1
 111 231 l 1,21,22
 213 178 213 178 312 151.5 c 128,-1,23
 411 125 411 125 508 125 c 0,24,25
 638 125 638 125 708 169.5 c 128,-1,26
 778 214 778 214 778 295 c 0,27,28
 778 370 778 370 727.5 410 c 128,-1,29
 677 450 677 450 506 487 c 2,30,-1
 442 502 l 1,31,32
 271 538 271 538 195 612.5 c 128,-1,33
 119 687 119 687 119 817 c 0,34,35
 119 975 119 975 231 1061 c 128,-1,36
 343 1147 343 1147 549 1147 c 0,37,38
 651 1147 651 1147 741 1132 c 128,-1,39
 831 1117 831 1117 907 1087 c 1,0,-1
EndSplineSet
Colour: aaaa88
EndChar
StartChar: t
Encoding: 116 116 87
Width: 803
Flags: W
AnchorPoint: "Cedilla" 550 0 basechar 0
AnchorPoint: "Bottom" 422 0 basechar 0
AnchorPoint: "Top" 315 1520 basechar 0
Fore
375 1438 m 1,0,-1
 375 1120 l 1,1,-1
 754 1120 l 1,2,-1
 754 977 l 1,3,-1
 375 977 l 1,4,-1
 375 369 l 2,5,6
 375 232 375 232 412.5 193 c 128,-1,7
 450 154 450 154 565 154 c 2,8,-1
 754 154 l 1,9,-1
 754 0 l 1,10,-1
 565 0 l 2,11,12
 352 0 352 0 271 79.5 c 128,-1,13
 190 159 190 159 190 369 c 2,14,-1
 190 977 l 1,15,-1
 55 977 l 1,16,-1
 55 1120 l 1,17,-1
 190 1120 l 1,18,-1
 190 1438 l 1,19,-1
 375 1438 l 1,0,-1
EndSplineSet
Colour: aaaa88
EndChar
StartChar: u
Encoding: 117 117 88
Width: 1298
Flags: W
AnchorPoint: "Ogonek" 1000 0 basechar 0
AnchorPoint: "Horn" 1005 948 basechar 0
AnchorPoint: "Top" 649 1120 basechar 0
AnchorPoint: "Bottom" 649 0 basechar 0
Fore
174 442 m 2,0,-1
 174 1120 l 1,1,-1
 358 1120 l 1,2,-1
 358 449 l 2,3,4
 358 290 358 290 420 210.5 c 128,-1,5
 482 131 482 131 606 131 c 0,6,7
 755 131 755 131 841.5 226 c 128,-1,8
 928 321 928 321 928 485 c 2,9,-1
 928 1120 l 1,10,-1
 1112 1120 l 1,11,-1
 1112 0 l 1,12,-1
 928 0 l 1,13,-1
 928 172 l 1,14,15
 861 70 861 70 772.5 20.5 c 128,-1,16
 684 -29 684 -29 567 -29 c 0,17,18
 374 -29 374 -29 274 91 c 128,-1,19
 174 211 174 211 174 442 c 2,0,-1
EndSplineSet
Colour: aaaa88
EndChar
StartChar: v
Encoding: 118 118 89
Width: 1212
Flags: W
AnchorPoint: "Top" 606 1120 basechar 0
AnchorPoint: "Bottom" 606 0 basechar 0
Fore
61 1120 m 5,0,-1
 256 1120 l 1,1,-1
 606 180 l 1,2,-1
 956 1120 l 1,3,-1
 1151 1120 l 1,4,-1
 731 0 l 1,5,-1
 481 0 l 1,6,-1
 61 1120 l 5,0,-1
EndSplineSet
Colour: aaaa88
EndChar
StartChar: w
Encoding: 119 119 90
Width: 1675
Flags: W
AnchorPoint: "Top" 838 1120 basechar 0
AnchorPoint: "Bottom" 838 0 basechar 0
Fore
86 1120 m 1,0,-1
 270 1120 l 1,1,-1
 500 246 l 1,2,-1
 729 1120 l 1,3,-1
 946 1120 l 1,4,-1
 1176 246 l 1,5,-1
 1405 1120 l 1,6,-1
 1589 1120 l 1,7,-1
 1296 0 l 1,8,-1
 1079 0 l 1,9,-1
 838 918 l 1,10,-1
 596 0 l 1,11,-1
 379 0 l 1,12,-1
 86 1120 l 1,0,-1
EndSplineSet
Colour: aaaa88
EndChar
StartChar: x
Encoding: 120 120 91
Width: 1212
Flags: W
AnchorPoint: "Top" 606 1120 basechar 0
AnchorPoint: "Bottom" 606 0 basechar 0
Fore
1124 1120 m 1,0,-1
 719 575 l 1,1,-1
 1145 0 l 1,2,-1
 928 0 l 1,3,-1
 602 440 l 1,4,-1
 276 0 l 1,5,-1
 59 0 l 1,6,-1
 494 586 l 1,7,-1
 96 1120 l 1,8,-1
 313 1120 l 1,9,-1
 610 721 l 1,10,-1
 907 1120 l 1,11,-1
 1124 1120 l 1,0,-1
EndSplineSet
Colour: aaaa88
EndChar
StartChar: y
Encoding: 121 121 92
Width: 1212
Flags: W
AnchorPoint: "Bottom" 606 -426 basechar 0
AnchorPoint: "Top" 606 1120 basechar 0
Fore
659 -104 m 1,0,1
 581 -304 581 -304 507 -365 c 128,-1,2
 433 -426 433 -426 309 -426 c 2,3,-1
 162 -426 l 1,4,-1
 162 -272 l 1,5,-1
 270 -272 l 2,6,7
 346 -272 346 -272 388 -236 c 128,-1,8
 430 -200 430 -200 481 -66 c 1,9,-1
 514 18 l 1,10,-1
 61 1120 l 1,11,-1
 256 1120 l 1,12,-1
 606 244 l 1,13,-1
 956 1120 l 1,14,-1
 1151 1120 l 1,15,-1
 659 -104 l 1,0,1
EndSplineSet
Colour: aaaa88
EndChar
StartChar: z
Encoding: 122 122 93
Width: 1075
Flags: W
AnchorPoint: "Top" 539 1120 basechar 0
AnchorPoint: "Bottom" 539 0 basechar 0
Fore
113 1120 m 1,0,-1
 987 1120 l 1,1,-1
 987 952 l 1,2,-1
 295 147 l 1,3,-1
 987 147 l 1,4,-1
 987 0 l 1,5,-1
 88 0 l 1,6,-1
 88 168 l 1,7,-1
 780 973 l 1,8,-1
 113 973 l 1,9,-1
 113 1120 l 1,0,-1
EndSplineSet
Colour: aaaa88
EndChar
StartChar: braceleft
Encoding: 123 123 94
Width: 1303
Flags: W
Fore
1047 -190 m 1,0,-1
 1047 -334 l 1,1,-1
 985 -334 l 2,2,3
 736 -334 736 -334 651.5 -260 c 128,-1,4
 567 -186 567 -186 567 35 c 2,5,-1
 567 274 l 2,6,7
 567 425 567 425 513 483 c 128,-1,8
 459 541 459 541 317 541 c 2,9,-1
 256 541 l 1,10,-1
 256 684 l 1,11,-1
 317 684 l 2,12,13
 460 684 460 684 513.5 741.5 c 128,-1,14
 567 799 567 799 567 948 c 2,15,-1
 567 1188 l 2,16,17
 567 1409 567 1409 651.5 1482.5 c 128,-1,18
 736 1556 736 1556 985 1556 c 2,19,-1
 1047 1556 l 1,20,-1
 1047 1413 l 1,21,-1
 979 1413 l 2,22,23
 838 1413 838 1413 795 1369 c 128,-1,24
 752 1325 752 1325 752 1184 c 2,25,-1
 752 936 l 2,26,27
 752 779 752 779 706.5 708 c 128,-1,28
 661 637 661 637 551 612 c 1,29,30
 662 585 662 585 707 514 c 128,-1,31
 752 443 752 443 752 287 c 2,32,-1
 752 39 l 2,33,34
 752 -102 752 -102 795 -146 c 128,-1,35
 838 -190 838 -190 979 -190 c 2,36,-1
 1047 -190 l 1,0,-1
EndSplineSet
Colour: aaaa88
EndChar
StartChar: bar
Encoding: 124 124 95
Width: 690
Flags: W
Fore
430 1565 m 1,0,-1
 430 -483 l 1,1,-1
 260 -483 l 1,2,-1
 260 1565 l 1,3,-1
 430 1565 l 1,0,-1
EndSplineSet
Colour: aaaa88
EndChar
StartChar: braceright
Encoding: 125 125 96
Width: 1303
Flags: W
Fore
256 -190 m 1,0,-1
 326 -190 l 2,1,2
 466 -190 466 -190 508.5 -147 c 128,-1,3
 551 -104 551 -104 551 39 c 2,4,-1
 551 287 l 2,5,6
 551 443 551 443 596 514 c 128,-1,7
 641 585 641 585 752 612 c 1,8,9
 641 637 641 637 596 708 c 128,-1,10
 551 779 551 779 551 936 c 2,11,-1
 551 1184 l 2,12,13
 551 1326 551 1326 508.5 1369.5 c 128,-1,14
 466 1413 466 1413 326 1413 c 2,15,-1
 256 1413 l 1,16,-1
 256 1556 l 1,17,-1
 319 1556 l 2,18,19
 568 1556 568 1556 651.5 1482.5 c 128,-1,20
 735 1409 735 1409 735 1188 c 2,21,-1
 735 948 l 2,22,23
 735 799 735 799 789 741.5 c 128,-1,24
 843 684 843 684 985 684 c 2,25,-1
 1047 684 l 1,26,-1
 1047 541 l 1,27,-1
 985 541 l 2,28,29
 843 541 843 541 789 483 c 128,-1,30
 735 425 735 425 735 274 c 2,31,-1
 735 35 l 2,32,33
 735 -186 735 -186 651.5 -260 c 128,-1,34
 568 -334 568 -334 319 -334 c 2,35,-1
 256 -334 l 1,36,-1
 256 -190 l 1,0,-1
EndSplineSet
Colour: aaaa88
EndChar
StartChar: asciitilde
Encoding: 126 126 97
Width: 1716
Flags: W
Fore
1499 817 m 1,0,-1
 1499 639 l 1,1,2
 1394 560 1394 560 1304.5 526 c 128,-1,3
 1215 492 1215 492 1118 492 c 0,4,5
 1008 492 1008 492 862 551 c 0,6,7
 851 555 851 555 846 557 c 0,8,9
 839 560 839 560 824 565 c 0,10,11
 669 627 669 627 575 627 c 0,12,13
 487 627 487 627 401 588.5 c 128,-1,14
 315 550 315 550 217 467 c 1,15,-1
 217 645 l 1,16,17
 322 724 322 724 411.5 758.5 c 128,-1,18
 501 793 501 793 598 793 c 0,19,20
 708 793 708 793 855 733 c 0,21,22
 865 729 865 729 870 727 c 0,23,24
 878 724 878 724 892 719 c 0,25,26
 1047 657 1047 657 1141 657 c 0,27,28
 1227 657 1227 657 1311.5 695 c 128,-1,29
 1396 733 1396 733 1499 817 c 1,0,-1
EndSplineSet
Colour: aaaa88
EndChar
StartChar: Aring
Encoding: 197 197 99
Width: 1401
Flags: W
Fore
852 1626 m 256,0,1
 852 1689 852 1689 807.5 1733.5 c 128,-1,2
 763 1778 763 1778 700 1778 c 0,3,4
 636 1778 636 1778 592.5 1734.5 c 128,-1,5
 549 1691 549 1691 549 1626 c 0,6,7
 549 1563 549 1563 593 1519 c 128,-1,8
 637 1475 637 1475 700 1475 c 256,9,10
 763 1475 763 1475 807.5 1519 c 128,-1,11
 852 1563 852 1563 852 1626 c 256,0,1
700 1294 m 1,12,-1
 428 551 l 1,13,-1
 973 551 l 1,14,-1
 700 1294 l 1,12,-1
549 1397 m 1,15,16
 488 1438 488 1438 457 1495.5 c 128,-1,17
 426 1553 426 1553 426 1626 c 0,18,19
 426 1741 426 1741 505.5 1821 c 128,-1,20
 585 1901 585 1901 700 1901 c 0,21,22
 814 1901 814 1901 894.5 1820.5 c 128,-1,23
 975 1740 975 1740 975 1626 c 0,24,25
 975 1556 975 1556 943.5 1497 c 128,-1,26
 912 1438 912 1438 852 1397 c 1,27,-1
 1384 0 l 1,28,-1
 1174 0 l 1,29,-1
 1038 383 l 1,30,-1
 365 383 l 1,31,-1
 229 0 l 1,32,-1
 16 0 l 1,33,-1
 549 1397 l 1,15,16
EndSplineSet
Colour: aaaa88
EndChar
StartChar: dagger
Encoding: 8224 8224 130
Width: 1024
Flags: W
Fore
424 1493 m 1,0,-1
 600 1493 l 1,1,-1
 600 1073 l 1,2,-1
 967 1073 l 1,3,-1
 967 920 l 1,4,-1
 600 920 l 1,5,-1
 600 -197 l 1,6,-1
 424 -197 l 1,7,-1
 424 920 l 1,8,-1
 57 920 l 1,9,-1
 57 1073 l 1,10,-1
 424 1073 l 1,11,-1
 424 1493 l 1,0,-1
EndSplineSet
Colour: aaaa88
EndChar
StartChar: degree
Encoding: 176 176 131
Width: 1024
Flags: W
Fore
512 1391 m 0,0,1
 432 1391 432 1391 377 1335.5 c 128,-1,2
 322 1280 322 1280 322 1200 c 0,3,4
 322 1121 322 1121 377 1066.5 c 128,-1,5
 432 1012 432 1012 512 1012 c 256,6,7
 592 1012 592 1012 647 1066.5 c 128,-1,8
 702 1121 702 1121 702 1200 c 256,9,10
 702 1279 702 1279 646.5 1335 c 128,-1,11
 591 1391 591 1391 512 1391 c 0,0,1
512 1520 m 0,12,13
 576 1520 576 1520 635 1495.5 c 128,-1,14
 694 1471 694 1471 737 1425 c 0,15,16
 783 1380 783 1380 806 1323 c 128,-1,17
 829 1266 829 1266 829 1200 c 0,18,19
 829 1068 829 1068 736.5 976.5 c 128,-1,20
 644 885 644 885 510 885 c 0,21,22
 375 885 375 885 285 975 c 128,-1,23
 195 1065 195 1065 195 1200 c 0,24,25
 195 1334 195 1334 287 1427 c 128,-1,26
 379 1520 379 1520 512 1520 c 0,12,13
EndSplineSet
Colour: aaaa88
EndChar
StartChar: cent
Encoding: 162 162 132
Width: 1303
Flags: W
Fore
678 131 m 1,0,-1
 678 987 l 1,1,2
 531 969 531 969 449 856 c 128,-1,3
 367 743 367 743 367 559 c 0,4,5
 367 374 367 374 449 261 c 128,-1,6
 531 148 531 148 678 131 c 1,0,-1
1059 1077 m 1,7,-1
 1059 905 l 1,8,9
 985 946 985 946 917 967 c 128,-1,10
 849 988 849 988 781 991 c 1,11,-1
 780 127 l 1,12,13
 850 132 850 132 918.5 153 c 128,-1,14
 987 174 987 174 1059 213 c 1,15,-1
 1059 43 l 1,16,17
 994 13 994 13 925.5 -4.5 c 128,-1,18
 857 -22 857 -22 780 -29 c 1,19,-1
 780 -313 l 1,20,-1
 678 -313 l 1,21,-1
 678 -25 l 1,22,23
 437 -5 437 -5 304.5 148.5 c 128,-1,24
 172 302 172 302 172 559 c 0,25,26
 172 817 172 817 304.5 970 c 128,-1,27
 437 1123 437 1123 678 1145 c 1,28,-1
 678 1432 l 1,29,-1
 780 1432 l 1,30,-1
 781 1145 l 1,31,32
 854 1141 854 1141 922.5 1124.5 c 128,-1,33
 991 1108 991 1108 1059 1077 c 1,7,-1
EndSplineSet
Colour: aaaa88
EndChar
StartChar: sterling
Encoding: 163 163 133
Width: 1303
Flags: W
Fore
1102 1460 m 1,0,-1
 1102 1278 l 1,1,2
 1026 1319 1026 1319 958 1339.5 c 128,-1,3
 890 1360 890 1360 829 1360 c 0,4,5
 681 1360 681 1360 623 1282.5 c 128,-1,6
 565 1205 565 1205 565 993 c 2,7,-1
 565 778 l 1,8,-1
 956 778 l 1,9,-1
 956 635 l 1,10,-1
 565 635 l 1,11,-1
 565 170 l 1,12,-1
 1122 170 l 1,13,-1
 1122 0 l 1,14,-1
 129 0 l 1,15,-1
 129 170 l 1,16,-1
 365 170 l 1,17,-1
 365 635 l 1,18,-1
 166 635 l 1,19,-1
 166 778 l 1,20,-1
 365 778 l 1,21,-1
 365 1016 l 2,22,23
 365 1277 365 1277 472 1398.5 c 128,-1,24
 579 1520 579 1520 811 1520 c 0,25,26
 872 1520 872 1520 947.5 1504.5 c 128,-1,27
 1023 1489 1023 1489 1102 1460 c 1,0,-1
EndSplineSet
Colour: aaaa88
EndChar
StartChar: section
Encoding: 167 167 134
Width: 1024
Flags: W
Fore
379 936 m 1,0,1
 316 890 316 890 285 845 c 128,-1,2
 254 800 254 800 254 754 c 0,3,4
 254 678 254 678 323.5 611.5 c 128,-1,5
 393 545 393 545 643 410 c 1,6,7
 706 455 706 455 737 500.5 c 128,-1,8
 768 546 768 546 768 592 c 0,9,10
 768 667 768 667 696.5 735 c 128,-1,11
 625 803 625 803 379 936 c 1,0,1
829 1462 m 1,12,-1
 829 1298 l 1,13,14
 746 1337 746 1337 674.5 1356.5 c 128,-1,15
 603 1376 603 1376 547 1376 c 0,16,17
 450 1376 450 1376 396 1336 c 128,-1,18
 342 1296 342 1296 342 1225 c 0,19,20
 342 1135 342 1135 548 1020 c 0,21,22
 574 1005 574 1005 588 997 c 0,23,24
 799 878 799 878 864.5 801 c 128,-1,25
 930 724 930 724 930 623 c 0,26,27
 930 533 930 533 884 463 c 128,-1,28
 838 393 838 393 745 340 c 1,29,30
 807 288 807 288 835.5 233.5 c 128,-1,31
 864 179 864 179 864 115 c 0,32,33
 864 -27 864 -27 762 -111 c 128,-1,34
 660 -195 660 -195 487 -195 c 0,35,36
 414 -195 414 -195 337 -180.5 c 128,-1,37
 260 -166 260 -166 172 -137 c 1,38,-1
 172 27 l 1,39,40
 259 -12 259 -12 333 -31.5 c 128,-1,41
 407 -51 407 -51 465 -51 c 0,42,43
 567 -51 567 -51 623.5 -9 c 128,-1,44
 680 33 680 33 680 109 c 0,45,46
 680 211 680 211 459 334 c 2,47,-1
 434 348 l 2,48,49
 220 468 220 468 156 544.5 c 128,-1,50
 92 621 92 621 92 723 c 0,51,52
 92 814 92 814 138.5 885.5 c 128,-1,53
 185 957 185 957 276 1006 c 1,54,55
 217 1050 217 1050 187.5 1106 c 128,-1,56
 158 1162 158 1162 158 1231 c 0,57,58
 158 1361 158 1361 258 1440.5 c 128,-1,59
 358 1520 358 1520 524 1520 c 0,60,61
 597 1520 597 1520 673.5 1505.5 c 128,-1,62
 750 1491 750 1491 829 1462 c 1,12,-1
EndSplineSet
Colour: aaaa88
EndChar
StartChar: bullet
Encoding: 8226 8226 135
Width: 1208
Flags: W
Fore
307 762 m 0,0,1
 307 886 307 886 393.5 971.5 c 128,-1,2
 480 1057 480 1057 606 1057 c 0,3,4
 730 1057 730 1057 815.5 971.5 c 128,-1,5
 901 886 901 886 901 762 c 0,6,7
 901 637 901 637 815 551 c 128,-1,8
 729 465 729 465 604 465 c 256,9,10
 479 465 479 465 393 551 c 128,-1,11
 307 637 307 637 307 762 c 0,0,1
EndSplineSet
Colour: aaaa88
EndChar
StartChar: paragraph
Encoding: 182 182 136
Width: 1303
Flags: W
Fore
633 1493 m 2,0,-1
 1081 1493 l 1,1,-1
 1081 -197 l 1,2,-1
 940 -197 l 1,3,-1
 940 1370 l 1,4,-1
 750 1370 l 1,5,-1
 750 -197 l 1,6,-1
 608 -197 l 1,7,-1
 608 649 l 1,8,9
 393 666 393 666 275.5 776.5 c 128,-1,10
 158 887 158 887 158 1071 c 0,11,12
 158 1261 158 1261 288 1377 c 128,-1,13
 418 1493 418 1493 633 1493 c 2,0,-1
EndSplineSet
Colour: aaaa88
EndChar
StartChar: germandbls
Encoding: 223 223 137
Width: 1290
Flags: W
Fore
186 1137 m 2,0,1
 186 1337 186 1337 305.5 1446.5 c 128,-1,2
 425 1556 425 1556 643 1556 c 0,3,4
 851 1556 851 1556 960.5 1440 c 128,-1,5
 1070 1324 1070 1324 1073 1100 c 1,6,7
 922 1092 922 1092 838 1034.5 c 128,-1,8
 754 977 754 977 754 881 c 0,9,10
 754 834 754 834 783 793.5 c 128,-1,11
 812 753 812 753 877 711 c 2,12,-1
 934 674 l 2,13,14
 1100 568 1100 568 1148 497 c 128,-1,15
 1196 426 1196 426 1196 326 c 0,16,17
 1196 154 1196 154 1083.5 62.5 c 128,-1,18
 971 -29 971 -29 760 -29 c 0,19,20
 696 -29 696 -29 628 -16.5 c 128,-1,21
 560 -4 560 -4 487 20 c 1,22,-1
 487 184 l 1,23,24
 567 154 567 154 637 139.5 c 128,-1,25
 707 125 707 125 772 125 c 0,26,27
 888 125 888 125 948 172.5 c 128,-1,28
 1008 220 1008 220 1008 311 c 0,29,30
 1008 374 1008 374 978.5 416 c 128,-1,31
 949 458 949 458 848 520 c 2,32,-1
 756 575 l 2,33,34
 660 634 660 634 616.5 701.5 c 128,-1,35
 573 769 573 769 573 860 c 0,36,37
 573 987 573 987 656.5 1073 c 128,-1,38
 740 1159 740 1159 891 1188 c 1,39,40
 883 1291 883 1291 817.5 1347 c 128,-1,41
 752 1403 752 1403 639 1403 c 0,42,43
 509 1403 509 1403 441 1333.5 c 128,-1,44
 373 1264 373 1264 373 1133 c 2,45,-1
 373 0 l 1,46,-1
 186 0 l 1,47,-1
 186 1137 l 2,0,1
EndSplineSet
Colour: aaaa88
EndChar
StartChar: registered
Encoding: 174 174 138
Width: 2048
Flags: W
Fore
1024 1382 m 0,0,1
 893 1382 893 1382 780 1335 c 128,-1,2
 667 1288 667 1288 573 1194 c 256,3,4
 479 1100 479 1100 431 985.5 c 128,-1,5
 383 871 383 871 383 741 c 0,6,7
 383 612 383 612 431 498.5 c 128,-1,8
 479 385 479 385 573 291 c 256,9,10
 667 197 667 197 780 149.5 c 128,-1,11
 893 102 893 102 1024 102 c 0,12,13
 1156 102 1156 102 1269.5 149.5 c 128,-1,14
 1383 197 1383 197 1477 291 c 0,15,16
 1570 384 1570 384 1616.5 497 c 128,-1,17
 1663 610 1663 610 1663 741 c 0,18,19
 1663 874 1663 874 1616 987.5 c 128,-1,20
 1569 1101 1569 1101 1477 1194 c 0,21,22
 1383 1288 1383 1288 1269.5 1335 c 128,-1,23
 1156 1382 1156 1382 1024 1382 c 0,0,1
1024 1485 m 256,24,25
 1176 1485 1176 1485 1307.5 1430 c 128,-1,26
 1439 1375 1439 1375 1548 1266 c 256,27,28
 1657 1157 1657 1157 1711 1026 c 128,-1,29
 1765 895 1765 895 1765 741 c 0,30,31
 1765 589 1765 589 1711 458.5 c 128,-1,32
 1657 328 1657 328 1548 219 c 256,33,34
 1439 110 1439 110 1307.5 55 c 128,-1,35
 1176 0 1176 0 1024 0 c 256,36,37
 872 0 872 0 740.5 55 c 128,-1,38
 609 110 609 110 500 219 c 256,39,40
 391 328 391 328 337 458.5 c 128,-1,41
 283 589 283 589 283 741 c 0,42,43
 283 895 283 895 337 1026 c 128,-1,44
 391 1157 391 1157 500 1266 c 256,45,46
 609 1375 609 1375 740.5 1430 c 128,-1,47
 872 1485 872 1485 1024 1485 c 256,24,25
997 1071 m 2,48,-1
 874 1071 l 1,49,-1
 874 795 l 1,50,-1
 997 795 l 2,51,52
 1107 795 1107 795 1150.5 826 c 128,-1,53
 1194 857 1194 857 1194 932 c 0,54,55
 1194 1008 1194 1008 1150 1039.5 c 128,-1,56
 1106 1071 1106 1071 997 1071 c 2,48,-1
1004 1174 m 2,57,58
 1180 1174 1180 1174 1267 1114.5 c 128,-1,59
 1354 1055 1354 1055 1354 934 c 0,60,61
 1354 848 1354 848 1301.5 792 c 128,-1,62
 1249 736 1249 736 1153 719 c 1,63,64
 1177 711 1177 711 1210.5 672.5 c 128,-1,65
 1244 634 1244 634 1290 561 c 2,66,-1
 1427 338 l 1,67,-1
 1255 338 l 1,68,-1
 1126 547 l 2,69,70
 1067 643 1067 643 1030.5 668.5 c 128,-1,71
 994 694 994 694 940 694 c 2,72,-1
 874 694 l 1,73,-1
 874 338 l 1,74,-1
 719 338 l 1,75,-1
 719 1174 l 1,76,-1
 1004 1174 l 2,57,58
EndSplineSet
Colour: aaaa88
EndChar
StartChar: copyright
Encoding: 169 169 139
Width: 2048
Flags: W
Fore
1024 1485 m 256,0,1
 1176 1485 1176 1485 1307.5 1430 c 128,-1,2
 1439 1375 1439 1375 1548 1266 c 256,3,4
 1657 1157 1657 1157 1711 1026 c 128,-1,5
 1765 895 1765 895 1765 741 c 0,6,7
 1765 589 1765 589 1711 458.5 c 128,-1,8
 1657 328 1657 328 1548 219 c 256,9,10
 1439 110 1439 110 1307.5 55 c 128,-1,11
 1176 0 1176 0 1024 0 c 256,12,13
 872 0 872 0 740.5 55 c 128,-1,14
 609 110 609 110 500 219 c 256,15,16
 391 328 391 328 337 458.5 c 128,-1,17
 283 589 283 589 283 741 c 0,18,19
 283 895 283 895 337 1026 c 128,-1,20
 391 1157 391 1157 500 1266 c 256,21,22
 609 1375 609 1375 740.5 1430 c 128,-1,23
 872 1485 872 1485 1024 1485 c 256,0,1
1024 1382 m 0,24,25
 893 1382 893 1382 780 1335 c 128,-1,26
 667 1288 667 1288 573 1194 c 256,27,28
 479 1100 479 1100 431 985.5 c 128,-1,29
 383 871 383 871 383 741 c 0,30,31
 383 612 383 612 431 498.5 c 128,-1,32
 479 385 479 385 573 291 c 256,33,34
 667 197 667 197 780 149.5 c 128,-1,35
 893 102 893 102 1024 102 c 0,36,37
 1156 102 1156 102 1269.5 149.5 c 128,-1,38
 1383 197 1383 197 1477 291 c 0,39,40
 1570 384 1570 384 1616.5 497 c 128,-1,41
 1663 610 1663 610 1663 741 c 0,42,43
 1663 874 1663 874 1616 987.5 c 128,-1,44
 1569 1101 1569 1101 1477 1194 c 0,45,46
 1383 1288 1383 1288 1269.5 1335 c 128,-1,47
 1156 1382 1156 1382 1024 1382 c 0,24,25
1323 1137 m 1,48,-1
 1323 1008 l 1,49,50
 1257 1041 1257 1041 1192 1057 c 128,-1,51
 1127 1073 1127 1073 1061 1073 c 0,52,53
 912 1073 912 1073 828.5 985.5 c 128,-1,54
 745 898 745 898 745 741 c 0,55,56
 745 582 745 582 830.5 495 c 128,-1,57
 916 408 916 408 1071 408 c 0,58,59
 1135 408 1135 408 1196 423.5 c 128,-1,60
 1257 439 1257 439 1323 473 c 1,61,-1
 1323 346 l 1,62,63
 1256 317 1256 317 1187.5 303 c 128,-1,64
 1119 289 1119 289 1049 289 c 0,65,66
 833 289 833 289 707.5 411 c 128,-1,67
 582 533 582 533 582 741 c 0,68,69
 582 950 582 950 707.5 1071 c 128,-1,70
 833 1192 833 1192 1049 1192 c 0,71,72
 1122 1192 1122 1192 1190 1178 c 128,-1,73
 1258 1164 1258 1164 1323 1137 c 1,48,-1
EndSplineSet
Colour: aaaa88
EndChar
StartChar: trademark
Encoding: 8482 8482 140
Width: 2048
Flags: W
Fore
1098 1493 m 1,0,-1
 1272 1237 l 1,1,-1
 1436 1493 l 1,2,-1
 1606 1493 l 1,3,-1
 1606 915 l 1,4,-1
 1493 915 l 1,5,-1
 1493 1399 l 1,6,-1
 1298 1096 l 1,7,-1
 1243 1096 l 1,8,-1
 1040 1399 l 1,9,-1
 1040 915 l 1,10,-1
 926 915 l 1,11,-1
 926 1493 l 1,12,-1
 1098 1493 l 1,0,-1
813 1493 m 1,13,-1
 813 1399 l 1,14,-1
 610 1399 l 1,15,-1
 610 915 l 1,16,-1
 496 915 l 1,17,-1
 496 1399 l 1,18,-1
 295 1399 l 1,19,-1
 295 1493 l 1,20,-1
 813 1493 l 1,13,-1
EndSplineSet
Colour: aaaa88
EndChar
StartChar: acute
Encoding: 180 180 141
Width: 1024
Flags: W
Fore
651 1638 m 1,0,-1
 850 1638 l 1,1,-1
 524 1262 l 1,2,-1
 371 1262 l 1,3,-1
 651 1638 l 1,0,-1
EndSplineSet
Colour: aaaa88
EndChar
StartChar: dieresis
Encoding: 168 168 142
Width: 1024
Flags: W
Fore
606 1552 m 1,0,-1
 809 1552 l 1,1,-1
 809 1350 l 1,2,-1
 606 1350 l 1,3,-1
 606 1552 l 1,0,-1
215 1552 m 1,4,-1
 418 1552 l 1,5,-1
 418 1350 l 1,6,-1
 215 1350 l 1,7,-1
 215 1552 l 1,4,-1
EndSplineSet
Colour: aaaa88
EndChar
StartChar: notequal
Encoding: 8800 8800 143
Width: 1716
Flags: W
Fore
217 930 m 1,0,-1
 989 930 l 1,1,-1
 1245 1245 l 1,2,-1
 1370 1143 l 1,3,-1
 1196 930 l 1,4,-1
 1499 930 l 1,5,-1
 1499 762 l 1,6,-1
 1059 762 l 1,7,-1
 864 522 l 1,8,-1
 1499 522 l 1,9,-1
 1499 352 l 1,10,-1
 725 352 l 1,11,-1
 467 39 l 1,12,-1
 342 141 l 1,13,-1
 516 352 l 1,14,-1
 217 352 l 1,15,-1
 217 522 l 1,16,-1
 655 522 l 1,17,-1
 850 762 l 1,18,-1
 217 762 l 1,19,-1
 217 930 l 1,0,-1
EndSplineSet
Colour: aaaa88
EndChar
StartChar: AE
Encoding: 198 198 144
Width: 1995
Flags: W
HStem: 0 170<1104 1864> 383 168<442 901> 711 170<1104 1815> 1323 170<633 1845> 1335 158<633 901>
VStem: 901 203<0 711 551 1323>
AnchorPoint: "Bottom" 1110 0 basechar 0
AnchorPoint: "TopCap" 1110 1493 basechar 0
Fore
1845 1493 m 1,0,-1
 1845 1323 l 1,1,-1
 1104 1323 l 1,2,-1
 1104 881 l 1,3,-1
 1815 881 l 1,4,-1
 1815 711 l 1,5,-1
 1104 711 l 1,6,-1
 1104 170 l 1,7,-1
 1864 170 l 1,8,-1
 1864 0 l 1,9,-1
 901 0 l 1,10,-1
 901 383 l 1,11,-1
 373 383 l 1,12,-1
 213 0 l 1,13,-1
 8 0 l 1,14,-1
 633 1493 l 1,15,-1
 1845 1493 l 1,0,-1
772 1335 m 1,16,-1
 442 551 l 1,17,-1
 901 551 l 1,18,-1
 901 1335 l 1,19,-1
 772 1335 l 1,16,-1
EndSplineSet
Colour: aaaa88
EndChar
StartChar: Oslash
Encoding: 216 216 145
Width: 1612
Flags: W
Fore
1206 1112 m 1,0,-1
 489 266 l 1,1,2
 551 202 551 202 631.5 168.5 c 128,-1,3
 712 135 712 135 807 135 c 0,4,5
 1027 135 1027 135 1155.5 299 c 128,-1,6
 1284 463 1284 463 1284 745 c 0,7,8
 1284 857 1284 857 1264.5 949 c 128,-1,9
 1245 1041 1245 1041 1206 1112 c 1,0,-1
1124 1225 m 1,10,11
 1063 1289 1063 1289 982.5 1322.5 c 128,-1,12
 902 1356 902 1356 807 1356 c 0,13,14
 587 1356 587 1356 457.5 1192 c 128,-1,15
 328 1028 328 1028 328 745 c 0,16,17
 328 633 328 633 347.5 539 c 128,-1,18
 367 445 367 445 406 377 c 1,19,-1
 1124 1225 l 1,10,11
272 219 m 1,20,21
 194 321 194 321 154.5 453 c 128,-1,22
 115 585 115 585 115 745 c 0,23,24
 115 1099 115 1099 303.5 1309.5 c 128,-1,25
 492 1520 492 1520 807 1520 c 0,26,27
 937 1520 937 1520 1047.5 1481.5 c 128,-1,28
 1158 1443 1158 1443 1245 1368 c 1,29,-1
 1407 1559 l 1,30,-1
 1509 1470 l 1,31,-1
 1339 1272 l 1,32,33
 1417 1169 1417 1169 1457 1036 c 128,-1,34
 1497 903 1497 903 1497 745 c 0,35,36
 1497 392 1497 392 1309 181.5 c 128,-1,37
 1121 -29 1121 -29 807 -29 c 0,38,39
 679 -29 679 -29 568.5 8.5 c 128,-1,40
 458 46 458 46 367 121 c 1,41,-1
 205 -70 l 1,42,-1
 102 18 l 1,43,-1
 272 219 l 1,20,21
EndSplineSet
Colour: aaaa88
EndChar
StartChar: infinity
Encoding: 8734 8734 146
Width: 2056
Flags: W
HStem: 139 173<1399 1582> 969 174<1391 1580>
VStem: 115 146<529 754> 1795 146<530 755>
Fore
1143 295 m 12,0,1
 1098 343 1098 343 1028 453 c 5,2,3
 931 296 931 296 846 227 c 4,4,5
 739 142 739 142 573 142 c 20,6,7
 378 142 378 142 250 274 c 4,8,9
 115 414 115 414 115 643 c 28,10,11
 115 864 115 864 250 1013 c 4,12,13
 372 1145 372 1145 576 1145 c 4,14,15
 682 1145 682 1145 760 1107 c 4,16,17
 850 1064 850 1064 913 989 c 12,18,19
 970 922 970 922 1028 831 c 5,20,21
 1125 988 1125 988 1210 1057 c 4,22,23
 1317 1142 1317 1142 1483 1142 c 20,24,25
 1678 1142 1678 1142 1806 1010 c 4,26,27
 1941 870 1941 870 1941 641 c 28,28,29
 1941 420 1941 420 1806 271 c 4,30,31
 1684 139 1684 139 1480 139 c 4,32,33
 1374 139 1374 139 1296 177 c 4,34,35
 1218 214 1218 214 1143 295 c 12,0,1
558 315 m 4,35,36
 795 315 795 315 939 629 c 5,37,38
 755 972 755 972 558 972 c 4,39,40
 413 972 413 972 340 879 c 4,41,42
 261 777 261 777 261 643 c 28,43,44
 261 496 261 496 340 406 c 4,45,46
 420 315 420 315 558 315 c 4,35,36
1498 969 m 4,47,48
 1284 969 1284 969 1117 655 c 5,49,50
 1300 312 1300 312 1498 312 c 4,51,52
 1643 312 1643 312 1716 405 c 4,53,54
 1795 507 1795 507 1795 641 c 28,55,56
 1795 788 1795 788 1716 878 c 4,57,58
 1636 969 1636 969 1498 969 c 4,47,48
EndSplineSet
Colour: aaaa88
EndChar
StartChar: plusminus
Encoding: 177 177 147
Width: 1716
Flags: W
Fore
942 1284 m 1,0,-1
 942 897 l 1,1,-1
 1499 897 l 1,2,-1
 1499 727 l 1,3,-1
 942 727 l 1,4,-1
 942 340 l 1,5,-1
 774 340 l 1,6,-1
 774 727 l 1,7,-1
 217 727 l 1,8,-1
 217 897 l 1,9,-1
 774 897 l 1,10,-1
 774 1284 l 1,11,-1
 942 1284 l 1,0,-1
217 170 m 1,12,-1
 1499 170 l 1,13,-1
 1499 0 l 1,14,-1
 217 0 l 1,15,-1
 217 170 l 1,12,-1
EndSplineSet
Colour: aaaa88
EndChar
StartChar: lessequal
Encoding: 8804 8804 148
Width: 1716
Flags: W
Fore
1499 1016 m 1,0,-1
 539 739 l 1,1,-1
 1499 465 l 1,2,-1
 1499 287 l 1,3,-1
 217 655 l 1,4,-1
 217 825 l 1,5,-1
 1499 1192 l 1,6,-1
 1499 1016 l 1,0,-1
217 170 m 1,7,-1
 1499 170 l 1,8,-1
 1499 0 l 1,9,-1
 217 0 l 1,10,-1
 217 170 l 1,7,-1
EndSplineSet
Colour: aaaa88
EndChar
StartChar: greaterequal
Encoding: 8805 8805 149
Width: 1716
Flags: W
Fore
217 1016 m 1,0,-1
 217 1192 l 1,1,-1
 1499 825 l 1,2,-1
 1499 655 l 1,3,-1
 217 287 l 1,4,-1
 217 465 l 1,5,-1
 1178 739 l 1,6,-1
 217 1016 l 1,0,-1
1499 170 m 1,7,-1
 1499 0 l 1,8,-1
 217 0 l 1,9,-1
 217 170 l 1,10,-1
 1499 170 l 1,7,-1
EndSplineSet
Colour: aaaa88
EndChar
StartChar: yen
Encoding: 165 165 150
Width: 1303
Flags: W
Fore
1165 455 m 1,0,-1
 752 455 l 1,1,-1
 752 0 l 1,2,-1
 551 0 l 1,3,-1
 551 455 l 1,4,-1
 135 455 l 1,5,-1
 135 578 l 1,6,-1
 551 578 l 1,7,-1
 551 629 l 1,8,-1
 467 784 l 1,9,-1
 135 784 l 1,10,-1
 135 907 l 1,11,-1
 399 907 l 1,12,-1
 82 1493 l 1,13,-1
 272 1493 l 1,14,-1
 651 793 l 1,15,-1
 1028 1493 l 1,16,-1
 1219 1493 l 1,17,-1
 901 907 l 1,18,-1
 1165 907 l 1,19,-1
 1165 784 l 1,20,-1
 834 784 l 1,21,-1
 750 629 l 1,22,-1
 750 578 l 1,23,-1
 1165 578 l 1,24,-1
 1165 455 l 1,0,-1
EndSplineSet
Colour: aaaa88
EndChar
StartChar: mu
Encoding: 181 181 151
Width: 1303
Flags: W
Fore
174 -426 m 1,0,-1
 174 1120 l 1,1,-1
 358 1120 l 1,2,-1
 358 424 l 2,3,4
 358 279 358 279 427 205 c 128,-1,5
 496 131 496 131 631 131 c 0,6,7
 779 131 779 131 853.5 215 c 128,-1,8
 928 299 928 299 928 467 c 2,9,-1
 928 1120 l 1,10,-1
 1112 1120 l 1,11,-1
 1112 258 l 2,12,13
 1112 198 1112 198 1129.5 169.5 c 128,-1,14
 1147 141 1147 141 1184 141 c 0,15,16
 1193 141 1193 141 1209 146.5 c 128,-1,17
 1225 152 1225 152 1253 164 c 1,18,-1
 1253 16 l 1,19,20
 1212 -7 1212 -7 1175.5 -18 c 128,-1,21
 1139 -29 1139 -29 1104 -29 c 0,22,23
 1035 -29 1035 -29 994 10 c 128,-1,24
 953 49 953 49 938 129 c 1,25,26
 888 50 888 50 815.5 10.5 c 128,-1,27
 743 -29 743 -29 645 -29 c 0,28,29
 543 -29 543 -29 471.5 10 c 128,-1,30
 400 49 400 49 358 127 c 1,31,-1
 358 -426 l 1,32,-1
 174 -426 l 1,0,-1
EndSplineSet
Colour: aaaa88
EndChar
StartChar: partialdiff
Encoding: 8706 8706 152
Width: 1109
Flags: W
HStem: -29 128<391.5 536> 694 136<404 594> 1201 155<479.5 688>
VStem: 120 171<248.5 435> 806 183<764.5 907.5>
Fore
462 -29 m 4,0,1
 321 -29 321 -29 229 56 c 4,2,3
 120 157 120 157 120 340 c 4,4,5
 120 530 120 530 216 678 c 4,6,7
 315 830 315 830 493 830 c 4,8,9
 610 830 610 830 702 757 c 4,10,11
 756 714 756 714 793 642 c 5,12,13
 806 723 806 723 806 815 c 4,14,15
 806 950 806 950 774 1028 c 4,16,17
 703 1201 703 1201 515 1201 c 4,18,19
 444 1201 444 1201 334 1157 c 5,20,-1
 334 1325 l 13,21,22
 450 1356 450 1356 554 1356 c 4,23,24
 822 1356 822 1356 936 1110 c 4,25,26
 989 994 989 994 989 821 c 4,27,28
 989 708 989 708 964 577 c 4,29,30
 901 249 901 249 738 93 c 4,31,32
 610 -29 610 -29 462 -29 c 4,0,1
291 310 m 4,33,34
 291 210 291 210 335 156 c 4,35,36
 382 99 382 99 454 99 c 4,37,38
 518 99 518 99 569 144 c 4,39,40
 641 206 641 206 694 307 c 4,41,42
 738 390 738 390 760 479 c 5,43,44
 671 694 671 694 517 694 c 4,45,46
 385 694 385 694 327 520 c 4,47,48
 291 412 291 412 291 310 c 4,33,34
EndSplineSet
Colour: aaaa88
EndChar
StartChar: summation
Encoding: 8721 8721 153
Width: 1380
Flags: W
Fore
55 1473 m 1,0,-1
 1313 1473 l 1,1,-1
 1313 1280 l 1,2,-1
 354 1280 l 1,3,-1
 1026 563 l 1,4,-1
 332 -201 l 1,5,-1
 1339 -201 l 1,6,-1
 1339 -393 l 1,7,-1
 25 -393 l 1,8,-1
 25 -244 l 1,9,-1
 750 557 l 1,10,-1
 55 1296 l 1,11,-1
 55 1473 l 1,0,-1
EndSplineSet
Colour: aaaa88
EndChar
StartChar: product
Encoding: 8719 8719 154
Width: 1550
Flags: W
Fore
156 1473 m 1,0,-1
 1393 1473 l 1,1,-1
 1393 -393 l 1,2,-1
 1153 -393 l 1,3,-1
 1153 1268 l 1,4,-1
 395 1268 l 1,5,-1
 395 -393 l 1,6,-1
 156 -393 l 1,7,-1
 156 1473 l 1,0,-1
EndSplineSet
Colour: aaaa88
EndChar
StartChar: pi
Encoding: 960 960 155
Width: 1288
Flags: W
AnchorPoint: "Bottom" 707 0 basechar 0
AnchorPoint: "Top" 707 1120 basechar 0
AnchorPoint: "Ogonek" 707 0 basechar 0
Fore
1238 962 m 1,0,-1
 1056 962 l 1,1,-1
 1056 426 l 2,2,3
 1056 337 1056 337 1058 306 c 0,4,5
 1060 261 1060 261 1065 238 c 0,6,7
 1077 180 1077 180 1105 156 c 0,8,9
 1133 131 1133 131 1188 131 c 0,10,11
 1205 131 1205 131 1228 134 c 0,12,13
 1250 136 1250 136 1286 141 c 1,14,-1
 1286 0 l 1,15,16
 1258 -8 1258 -8 1231 -12 c 0,17,18
 1205 -16 1205 -16 1179 -16 c 0,19,20
 1057 -16 1057 -16 985 35 c 0,21,22
 914 86 914 86 893 186 c 0,23,24
 884 228 884 228 878 304 c 0,25,26
 872 379 872 379 872 537 c 2,27,-1
 872 962 l 1,28,-1
 555 962 l 1,29,-1
 555 0 l 1,30,-1
 371 0 l 1,31,-1
 371 962 l 1,32,-1
 330 962 l 2,33,34
 275 962 275 962 253 930 c 0,35,36
 230 897 230 897 230 829 c 1,37,-1
 70 829 l 1,38,39
 70 997 70 997 126 1057 c 0,40,41
 184 1120 184 1120 349 1120 c 2,42,-1
 1238 1120 l 1,43,-1
 1238 962 l 1,0,-1
EndSplineSet
Colour: aaaa88
EndChar
StartChar: integral
Encoding: 8747 8747 156
Width: 1067
Flags: W
Fore
628 1309 m 10,11,-1
 628 -70 l 18,0,0
 628 -186 628 -186 597 -245 c 0,15,16
 558 -319 558 -319 515 -354 c 0,17,18
 427 -426 427 -426 324 -426 c 0,19,20
 200 -426 200 -426 134 -354 c 9,21,22
 210 -247 l 17,6,7
 249 -291 249 -291 306 -291 c 128,-1,8
 363 -291 363 -291 403 -247 c 0,9,10
 443 -204 443 -204 443 -139 c 2,11,-1
 443 1240 l 18,0,0
 443 1356 443 1356 474 1415 c 0,15,16
 513 1489 513 1489 556 1524 c 0,17,18
 644 1596 644 1596 747 1596 c 4,19,20
 871 1596 871 1596 937 1524 c 9,21,22
 861 1417 l 17,6,7
 822 1461 822 1461 765 1461 c 128,-1,8
 708 1461 708 1461 668 1417 c 0,9,10
 628 1374 628 1374 628 1309 c 10,11,-1
EndSplineSet
Colour: aaaa88
EndChar
StartChar: ordfeminine
Encoding: 170 170 157
Width: 965
Flags: W
Fore
139 592 m 1,0,-1
 827 592 l 1,1,-1
 827 469 l 1,2,-1
 139 469 l 1,3,-1
 139 592 l 1,0,-1
825 1165 m 2,4,-1
 825 717 l 1,5,-1
 676 717 l 1,6,-1
 676 829 l 1,7,8
 632 766 632 766 560 732 c 128,-1,9
 488 698 488 698 395 698 c 0,10,11
 267 698 267 698 191 765.5 c 128,-1,12
 115 833 115 833 115 946 c 0,13,14
 115 1081 115 1081 210.5 1150 c 128,-1,15
 306 1219 306 1219 494 1219 c 2,16,-1
 676 1219 l 1,17,-1
 676 1223 l 2,18,19
 676 1314 676 1314 617.5 1359.5 c 128,-1,20
 559 1405 559 1405 442 1405 c 0,21,22
 380 1405 380 1405 312 1388 c 128,-1,23
 244 1371 244 1371 176 1337 c 1,24,-1
 176 1464 l 1,25,26
 249 1492 249 1492 321.5 1506 c 128,-1,27
 394 1520 394 1520 463 1520 c 0,28,29
 646 1520 646 1520 735.5 1432 c 128,-1,30
 825 1344 825 1344 825 1165 c 2,4,-1
549 1104 m 2,31,32
 388 1104 388 1104 325 1070.5 c 128,-1,33
 262 1037 262 1037 262 958 c 0,34,35
 262 894 262 894 311 855.5 c 128,-1,36
 360 817 360 817 442 817 c 0,37,38
 546 817 546 817 611 889 c 128,-1,39
 676 961 676 961 676 1075 c 2,40,-1
 676 1104 l 1,41,-1
 549 1104 l 2,31,32
EndSplineSet
Colour: aaaa88
EndChar
StartChar: ordmasculine
Encoding: 186 186 158
Width: 965
Flags: W
Fore
139 592 m 1,0,-1
 827 592 l 1,1,-1
 827 469 l 1,2,-1
 139 469 l 1,3,-1
 139 592 l 1,0,-1
483 1520 m 256,4,5
 662 1520 662 1520 765 1409.5 c 128,-1,6
 868 1299 868 1299 868 1108 c 256,7,8
 868 917 868 917 765 807.5 c 128,-1,9
 662 698 662 698 483 698 c 256,10,11
 304 698 304 698 200 808 c 128,-1,12
 96 918 96 918 96 1108 c 0,13,14
 96 1299 96 1299 200 1409.5 c 128,-1,15
 304 1520 304 1520 483 1520 c 256,4,5
483 1405 m 0,16,17
 378 1405 378 1405 315 1324.5 c 128,-1,18
 252 1244 252 1244 252 1108 c 0,19,20
 252 975 252 975 315.5 895 c 128,-1,21
 379 815 379 815 483 815 c 0,22,23
 588 815 588 815 650.5 895 c 128,-1,24
 713 975 713 975 713 1108 c 0,25,26
 713 1245 713 1245 651 1325 c 128,-1,27
 589 1405 589 1405 483 1405 c 0,16,17
EndSplineSet
Colour: aaaa88
EndChar
StartChar: Omega
Encoding: 937 937 159
Width: 1565
Flags: W
AnchorPoint: "TopCap" 783 1493 basechar 0
AnchorPoint: "Bottom" 783 0 basechar 0
Fore
1487 178 m 1,0,-1
 1487 0 l 1,1,-1
 887 0 l 1,2,-1
 887 178 l 1,3,4
 1064 275 1064 275 1163 441 c 128,-1,5
 1262 607 1262 607 1262 809 c 0,6,7
 1262 1049 1262 1049 1130 1194 c 128,-1,8
 998 1339 998 1339 782 1339 c 0,9,10
 566 1339 566 1339 433.5 1193.5 c 128,-1,11
 301 1048 301 1048 301 809 c 0,12,13
 301 607 301 607 400.5 441 c 128,-1,14
 500 275 500 275 678 178 c 1,15,-1
 678 0 l 1,16,-1
 78 0 l 1,17,-1
 78 178 l 1,18,-1
 397 178 l 1,19,20
 239 317 239 317 166.5 466 c 128,-1,21
 94 615 94 615 94 799 c 0,22,23
 94 1117 94 1117 285.5 1314 c 128,-1,24
 477 1511 477 1511 782 1511 c 0,25,26
 1085 1511 1085 1511 1277.5 1314.5 c 128,-1,27
 1470 1118 1470 1118 1470 809 c 0,28,29
 1470 615 1470 615 1399 467 c 128,-1,30
 1328 319 1328 319 1167 178 c 1,31,-1
 1487 178 l 1,0,-1
EndSplineSet
Colour: aaaa88
EndChar
StartChar: ae
Encoding: 230 230 160
Width: 2011
Flags: W
AnchorPoint: "Top" 1006 1120 basechar 0
AnchorPoint: "Bottom" 982 0 basechar 0
Fore
1718 660 m 1,0,1
 1717 811 1717 811 1634.5 901 c 128,-1,2
 1552 991 1552 991 1415 991 c 0,3,4
 1262 991 1262 991 1169.5 904 c 128,-1,5
 1077 817 1077 817 1063 659 c 1,6,-1
 1718 660 l 1,0,1
995 963 m 1,7,8
 1069 1053 1069 1053 1175 1100 c 128,-1,9
 1281 1147 1281 1147 1413 1147 c 0,10,11
 1639 1147 1639 1147 1771 1001.5 c 128,-1,12
 1903 856 1903 856 1903 606 c 2,13,-1
 1903 516 l 1,14,-1
 1057 516 l 1,15,16
 1069 325 1069 325 1171 225 c 128,-1,17
 1273 125 1273 125 1456 125 c 0,18,19
 1560 125 1560 125 1660 151.5 c 128,-1,20
 1760 178 1760 178 1860 231 c 1,21,-1
 1860 57 l 1,22,23
 1760 15 1760 15 1656 -7 c 128,-1,24
 1552 -29 1552 -29 1446 -29 c 0,25,26
 1279 -29 1279 -29 1155 31.5 c 128,-1,27
 1031 92 1031 92 954 211 c 1,28,29
 881 91 881 91 773 31 c 128,-1,30
 665 -29 665 -29 522 -29 c 0,31,32
 333 -29 333 -29 228 64.5 c 128,-1,33
 123 158 123 158 123 326 c 0,34,35
 123 515 123 515 249.5 611 c 128,-1,36
 376 707 376 707 627 707 c 2,37,-1
 885 707 l 1,38,-1
 885 725 l 2,39,40
 885 852 885 852 801.5 921.5 c 128,-1,41
 718 991 718 991 567 991 c 0,42,43
 471 991 471 991 380 968 c 128,-1,44
 289 945 289 945 205 899 c 1,45,-1
 205 1069 l 1,46,47
 306 1108 306 1108 401 1127.5 c 128,-1,48
 496 1147 496 1147 586 1147 c 0,49,50
 728 1147 728 1147 834.5 1099 c 128,-1,51
 941 1051 941 1051 995 963 c 1,7,8
702 563 m 2,52,53
 479 563 479 563 393 512 c 128,-1,54
 307 461 307 461 307 338 c 0,55,56
 307 240 307 240 371.5 182.5 c 128,-1,57
 436 125 436 125 547 125 c 0,58,59
 700 125 700 125 792.5 233.5 c 128,-1,60
 885 342 885 342 885 522 c 2,61,-1
 885 563 l 1,62,-1
 702 563 l 2,52,53
EndSplineSet
Colour: aaaa88
EndChar
StartChar: oslash
Encoding: 248 248 161
Width: 1253
Flags: W
Fore
905 801 m 1,0,-1
 418 209 l 1,1,2
 459 167 459 167 510.5 147 c 128,-1,3
 562 127 562 127 627 127 c 0,4,5
 774 127 774 127 860 243 c 128,-1,6
 946 359 946 359 946 559 c 0,7,8
 946 638 946 638 936 696.5 c 128,-1,9
 926 755 926 755 905 801 c 1,0,-1
834 909 m 1,10,11
 792 950 792 950 740.5 970.5 c 128,-1,12
 689 991 689 991 627 991 c 0,13,14
 476 991 476 991 391.5 873.5 c 128,-1,15
 307 756 307 756 307 545 c 0,16,17
 307 473 307 473 316.5 418 c 128,-1,18
 326 363 326 363 346 317 c 1,19,-1
 834 909 l 1,10,11
221 166 m 1,20,21
 167 243 167 243 140 341.5 c 128,-1,22
 113 440 113 440 113 559 c 0,23,24
 113 835 113 835 249.5 991 c 128,-1,25
 386 1147 386 1147 627 1147 c 0,26,27
 720 1147 720 1147 799.5 1121.5 c 128,-1,28
 879 1096 879 1096 946 1044 c 1,29,-1
 1085 1212 l 1,30,-1
 1180 1133 l 1,31,-1
 1034 954 l 1,32,33
 1087 877 1087 877 1114 778 c 128,-1,34
 1141 679 1141 679 1141 559 c 0,35,36
 1141 284 1141 284 1004 127.5 c 128,-1,37
 867 -29 867 -29 627 -29 c 0,38,39
 531 -29 531 -29 450.5 -3 c 128,-1,40
 370 23 370 23 307 74 c 1,41,-1
 168 -94 l 1,42,-1
 72 -16 l 1,43,-1
 221 166 l 1,20,21
EndSplineSet
Colour: aaaa88
EndChar
StartChar: questiondown
Encoding: 191 191 162
Width: 1087
Flags: W
Fore
500 1092 m 1,0,-1
 690 1092 l 1,1,-1
 690 936 l 2,2,3
 690 835 690 835 662.5 770 c 128,-1,4
 635 705 635 705 545 618 c 2,5,-1
 455 530 l 2,6,7
 397 477 397 477 371.5 430 c 128,-1,8
 346 383 346 383 346 334 c 0,9,10
 346 245 346 245 411.5 190 c 128,-1,11
 477 135 477 135 586 135 c 0,12,13
 664 135 664 135 754 170 c 128,-1,14
 844 205 844 205 940 272 c 1,15,-1
 940 84 l 1,16,17
 846 27 846 27 750 -1 c 128,-1,18
 654 -29 654 -29 551 -29 c 0,19,20
 367 -29 367 -29 255 68 c 128,-1,21
 143 165 143 165 143 324 c 0,22,23
 143 400 143 400 179.5 468.5 c 128,-1,24
 216 537 216 537 305 623 c 2,25,-1
 393 709 l 2,26,27
 441 756 441 756 460 782.5 c 128,-1,28
 479 809 479 809 487 834 c 0,29,30
 494 855 494 855 497 885 c 128,-1,31
 500 915 500 915 500 969 c 2,32,-1
 500 1092 l 1,0,-1
696 1239 m 1,33,-1
 494 1239 l 1,34,-1
 494 1493 l 1,35,-1
 696 1493 l 1,36,-1
 696 1239 l 1,33,-1
EndSplineSet
Colour: aaaa88
EndChar
StartChar: exclamdown
Encoding: 161 161 163
Width: 821
Flags: W
Fore
512 1239 m 1,0,-1
 309 1239 l 1,1,-1
 309 1493 l 1,2,-1
 512 1493 l 1,3,-1
 512 1239 l 1,0,-1
512 0 m 1,4,-1
 309 0 l 1,5,-1
 309 655 l 1,6,-1
 330 1012 l 1,7,-1
 492 1012 l 1,8,-1
 512 655 l 1,9,-1
 512 0 l 1,4,-1
EndSplineSet
Colour: aaaa88
EndChar
StartChar: logicalnot
Encoding: 172 172 164
Width: 1716
Flags: W
Fore
217 862 m 1,0,-1
 1499 862 l 1,1,-1
 1499 287 l 1,2,-1
 1331 287 l 1,3,-1
 1331 692 l 1,4,-1
 217 692 l 1,5,-1
 217 862 l 1,0,-1
EndSplineSet
Colour: aaaa88
EndChar
StartChar: radical
Encoding: 8730 8730 165
Width: 1305
Flags: W
Fore
1116 1661 m 1,0,-1
 1305 1661 l 1,1,-1
 1305 1565 l 1,2,-1
 1190 1565 l 1,3,-1
 596 -41 l 1,4,-1
 530 -41 l 1,5,-1
 211 842 l 1,6,-1
 86 797 l 1,7,-1
 61 877 l 1,8,-1
 344 975 l 1,9,-1
 600 266 l 1,10,-1
 1116 1661 l 1,0,-1
EndSplineSet
Colour: aaaa88
EndChar
StartChar: florin
Encoding: 402 402 166
Width: 721
Flags: W
Fore
408 -70 m 22,0,0
 408 -186 408 -186 377 -245 c 4,15,16
 338 -319 338 -319 295 -354 c 4,17,18
 207 -426 207 -426 104 -426 c 4,19,20
 -20 -426 -20 -426 -86 -354 c 13,21,22
 -10 -247 l 21,6,7
 29 -291 29 -291 86 -291 c 132,-1,8
 143 -291 143 -291 183 -247 c 4,9,10
 223 -204 223 -204 223 -139 c 6,11,-1
 223 977 l 5,12,-1
 47 977 l 5,13,-1
 47 1120 l 5,14,-1
 223 1120 l 5,15,-1
 223 1198 l 6,16,17
 223 1385 223 1385 310 1470 c 4,18,19
 397 1556 397 1556 586 1556 c 6,19,-1
 760 1556 l 5,0,-1
 760 1403 l 5,1,-1
 584 1403 l 6,2,3
 485 1403 485 1403 446 1363 c 4,4,5
 408 1323 408 1323 408 1219 c 6,5,-1
 408 1120 l 5,6,-1
 711 1120 l 5,7,-1
 711 977 l 5,8,-1
 408 977 l 13,9,-1
 408 -70 l 22,0,0
EndSplineSet
Colour: aaaa88
EndChar
StartChar: approxequal
Encoding: 8776 8776 167
Width: 1716
Flags: W
Fore
1499 623 m 1,0,-1
 1499 444 l 1,1,2
 1394 366 1394 366 1304.5 331.5 c 128,-1,3
 1215 297 1215 297 1118 297 c 0,4,5
 1008 297 1008 297 862 356 c 0,6,7
 852 360 852 360 845 363 c 0,8,9
 839 365 839 365 824 371 c 0,10,11
 669 432 669 432 575 432 c 0,12,13
 487 432 487 432 401 394 c 128,-1,14
 315 356 315 356 217 272 c 1,15,-1
 217 451 l 1,16,17
 322 529 322 529 411.5 563.5 c 128,-1,18
 501 598 501 598 598 598 c 0,19,20
 708 598 708 598 855 539 c 0,21,22
 866 534 866 534 871 532 c 0,23,24
 877 530 877 530 892 524 c 0,25,26
 1047 463 1047 463 1141 463 c 0,27,28
 1227 463 1227 463 1311.5 500.5 c 128,-1,29
 1396 538 1396 538 1499 623 c 1,0,-1
1499 1012 m 1,30,-1
 1499 834 l 1,31,32
 1394 755 1394 755 1304.5 720.5 c 128,-1,33
 1215 686 1215 686 1118 686 c 0,34,35
 1008 686 1008 686 862 745 c 0,36,37
 852 749 852 749 845 752 c 0,38,39
 839 754 839 754 824 760 c 0,40,41
 669 821 669 821 575 821 c 0,42,43
 487 821 487 821 401 783 c 128,-1,44
 315 745 315 745 217 662 c 1,45,-1
 217 840 l 1,46,47
 322 918 322 918 411.5 952.5 c 128,-1,48
 501 987 501 987 598 987 c 0,49,50
 708 987 708 987 855 928 c 0,51,52
 865 924 865 924 870 922 c 0,53,54
 877 919 877 919 892 913 c 0,55,56
 1047 852 1047 852 1141 852 c 0,57,58
 1227 852 1227 852 1311.5 889.5 c 128,-1,59
 1396 927 1396 927 1499 1012 c 1,30,-1
EndSplineSet
Colour: aaaa88
EndChar
StartChar: Delta
Encoding: 8710 8710 168
Width: 1370
Flags: W
Fore
684 1262 m 1,0,-1
 266 178 l 1,1,-1
 1102 178 l 1,2,-1
 684 1262 l 1,0,-1
573 1473 m 1,3,-1
 797 1473 l 1,4,-1
 1376 0 l 1,5,-1
 -6 0 l 1,6,-1
 573 1473 l 1,3,-1
EndSplineSet
Colour: aaaa88
EndChar
StartChar: guillemotleft
Encoding: 171 171 169
Width: 1253
Flags: W
Fore
1061 1059 m 1,0,-1
 1061 868 l 1,1,-1
 760 600 l 1,2,-1
 1061 332 l 1,3,-1
 1061 141 l 1,4,-1
 592 559 l 1,5,-1
 592 641 l 1,6,-1
 1061 1059 l 1,0,-1
627 1059 m 1,7,-1
 627 868 l 1,8,-1
 326 600 l 1,9,-1
 627 332 l 1,10,-1
 627 141 l 1,11,-1
 158 559 l 1,12,-1
 158 641 l 1,13,-1
 627 1059 l 1,7,-1
EndSplineSet
Colour: aaaa88
EndChar
StartChar: guillemotright
Encoding: 187 187 170
Width: 1253
Flags: W
Fore
193 1059 m 1,0,-1
 662 641 l 1,1,-1
 662 559 l 1,2,-1
 193 141 l 1,3,-1
 193 332 l 1,4,-1
 494 600 l 1,5,-1
 193 868 l 1,6,-1
 193 1059 l 1,0,-1
627 1059 m 1,7,-1
 1096 641 l 1,8,-1
 1096 559 l 1,9,-1
 627 141 l 1,10,-1
 627 332 l 1,11,-1
 928 600 l 1,12,-1
 627 868 l 1,13,-1
 627 1059 l 1,7,-1
EndSplineSet
Colour: aaaa88
EndChar
StartChar: ellipsis
Encoding: 8230 8230 171
Width: 2048
Flags: W
Fore
918 254 m 1,0,-1
 1130 254 l 1,1,-1
 1130 0 l 1,2,-1
 918 0 l 1,3,-1
 918 254 l 1,0,-1
1599 254 m 1,4,-1
 1812 254 l 1,5,-1
 1812 0 l 1,6,-1
 1599 0 l 1,7,-1
 1599 254 l 1,4,-1
236 254 m 1,8,-1
 449 254 l 1,9,-1
 449 0 l 1,10,-1
 236 0 l 1,11,-1
 236 254 l 1,8,-1
EndSplineSet
Colour: aaaa88
EndChar
StartChar: OE
Encoding: 338 338 176
Width: 2191
Flags: W
Fore
2042 1493 m 1,0,-1
 2042 1323 l 1,1,-1
 1300 1323 l 1,2,-1
 1300 881 l 1,3,-1
 2011 881 l 1,4,-1
 2011 711 l 1,5,-1
 1300 711 l 1,6,-1
 1300 170 l 1,7,-1
 2060 170 l 1,8,-1
 2060 0 l 1,9,-1
 995 0 l 2,10,11
 562 0 562 0 338.5 190 c 128,-1,12
 115 380 115 380 115 748 c 0,13,14
 115 1113 115 1113 338.5 1303 c 128,-1,15
 562 1493 562 1493 995 1493 c 2,16,-1
 2042 1493 l 1,0,-1
1098 1323 m 1,17,-1
 969 1323 l 2,18,19
 648 1323 648 1323 488 1179.5 c 128,-1,20
 328 1036 328 1036 328 748 c 0,21,22
 328 459 328 459 488 314.5 c 128,-1,23
 648 170 648 170 969 170 c 2,24,-1
 1098 170 l 1,25,-1
 1098 1323 l 1,17,-1
EndSplineSet
Colour: aaaa88
EndChar
StartChar: oe
Encoding: 339 339 177
Width: 2095
Flags: W
Fore
1802 660 m 1,0,1
 1800 812 1800 812 1718 901.5 c 128,-1,2
 1636 991 1636 991 1499 991 c 0,3,4
 1346 991 1346 991 1253.5 904 c 128,-1,5
 1161 817 1161 817 1147 659 c 1,6,-1
 1802 660 l 1,0,1
1987 606 m 2,7,-1
 1987 516 l 1,8,-1
 1141 516 l 1,9,10
 1153 326 1153 326 1255 226.5 c 128,-1,11
 1357 127 1357 127 1540 127 c 0,12,13
 1646 127 1646 127 1746 153 c 128,-1,14
 1846 179 1846 179 1944 231 c 1,15,-1
 1944 57 l 1,16,17
 1844 15 1844 15 1740 -7 c 128,-1,18
 1636 -29 1636 -29 1530 -29 c 0,19,20
 1370 -29 1370 -29 1249 26 c 128,-1,21
 1128 81 1128 81 1047 190 c 1,22,23
 976 80 976 80 871.5 25.5 c 128,-1,24
 767 -29 767 -29 627 -29 c 0,25,26
 386 -29 386 -29 249.5 127.5 c 128,-1,27
 113 284 113 284 113 559 c 0,28,29
 113 835 113 835 249.5 991 c 128,-1,30
 386 1147 386 1147 627 1147 c 0,31,32
 767 1147 767 1147 872.5 1091.5 c 128,-1,33
 978 1036 978 1036 1044 928 c 1,34,35
 1122 1035 1122 1035 1238 1091 c 128,-1,36
 1354 1147 1354 1147 1497 1147 c 0,37,38
 1723 1147 1723 1147 1855 1001.5 c 128,-1,39
 1987 856 1987 856 1987 606 c 2,7,-1
627 991 m 0,40,41
 479 991 479 991 393 875.5 c 128,-1,42
 307 760 307 760 307 559 c 256,43,44
 307 358 307 358 392.5 242.5 c 128,-1,45
 478 127 478 127 627 127 c 0,46,47
 774 127 774 127 860 243 c 128,-1,48
 946 359 946 359 946 559 c 0,49,50
 946 758 946 758 860 874.5 c 128,-1,51
 774 991 774 991 627 991 c 0,40,41
EndSplineSet
Colour: aaaa88
EndChar
StartChar: endash
Encoding: 8211 8211 178
Width: 1024
Flags: W
Fore
0 633 m 1,0,-1
 1024 633 l 1,1,-1
 1024 489 l 1,2,-1
 0 489 l 1,3,-1
 0 633 l 1,0,-1
EndSplineSet
Colour: aaaa88
EndChar
StartChar: emdash
Encoding: 8212 8212 179
Width: 2048
Flags: W
Fore
0 633 m 1,0,-1
 2048 633 l 1,1,-1
 2048 489 l 1,2,-1
 0 489 l 1,3,-1
 0 633 l 1,0,-1
EndSplineSet
Colour: aaaa88
EndChar
StartChar: quotedblleft
Encoding: 8220 8220 180
Width: 1061
Flags: W
Fore
385 1001 m 1,0,-1
 174 1001 l 1,1,-1
 174 1174 l 1,2,-1
 338 1493 l 1,3,-1
 467 1493 l 1,4,-1
 385 1174 l 1,5,-1
 385 1001 l 1,0,-1
795 1001 m 1,6,-1
 584 1001 l 1,7,-1
 584 1174 l 1,8,-1
 748 1493 l 1,9,-1
 877 1493 l 1,10,-1
 795 1174 l 1,11,-1
 795 1001 l 1,6,-1
EndSplineSet
Colour: aaaa88
EndChar
StartChar: quotedblright
Encoding: 8221 8221 181
Width: 1061
Flags: W
Fore
256 1493 m 1,0,-1
 467 1493 l 1,1,-1
 467 1321 l 1,2,-1
 303 1001 l 1,3,-1
 174 1001 l 1,4,-1
 256 1321 l 1,5,-1
 256 1493 l 1,0,-1
666 1493 m 1,6,-1
 877 1493 l 1,7,-1
 877 1321 l 1,8,-1
 713 1001 l 1,9,-1
 584 1001 l 1,10,-1
 666 1321 l 1,11,-1
 666 1493 l 1,6,-1
EndSplineSet
Colour: aaaa88
EndChar
StartChar: quoteleft
Encoding: 8216 8216 182
Width: 651
Flags: W
Fore
385 1001 m 1,0,-1
 174 1001 l 1,1,-1
 174 1174 l 1,2,-1
 338 1493 l 1,3,-1
 467 1493 l 1,4,-1
 385 1174 l 1,5,-1
 385 1001 l 1,0,-1
EndSplineSet
Colour: aaaa88
EndChar
StartChar: quoteright
Encoding: 8217 8217 183
Width: 651
Flags: W
Fore
260 1493 m 1,0,-1
 471 1493 l 1,1,-1
 471 1341 l 1,2,-1
 307 1022 l 1,3,-1
 178 1022 l 1,4,-1
 260 1341 l 1,5,-1
 260 1493 l 1,0,-1
EndSplineSet
Colour: aaaa88
EndChar
StartChar: divide
Encoding: 247 247 184
Width: 1716
Flags: W
Fore
735 1135 m 1,0,-1
 981 1135 l 1,1,-1
 981 889 l 1,2,-1
 735 889 l 1,3,-1
 735 1135 l 1,0,-1
735 395 m 1,4,-1
 981 395 l 1,5,-1
 981 150 l 1,6,-1
 735 150 l 1,7,-1
 735 395 l 1,4,-1
217 727 m 1,8,-1
 1499 727 l 1,9,-1
 1499 557 l 1,10,-1
 217 557 l 1,11,-1
 217 727 l 1,8,-1
EndSplineSet
Colour: aaaa88
EndChar
StartChar: lozenge
Encoding: 9674 9674 185
Width: 1012
Flags: W
Fore
506 1409 m 1,0,-1
 121 592 l 1,1,-1
 506 -233 l 1,2,-1
 891 592 l 1,3,-1
 506 1409 l 1,0,-1
506 1653 m 1,4,-1
 1006 592 l 1,5,-1
 506 -477 l 1,6,-1
 6 592 l 1,7,-1
 506 1653 l 1,4,-1
EndSplineSet
Colour: aaaa88
EndChar
StartChar: fraction
Encoding: 8725 8725 188
AltUni: 8260
Width: 342
Flags: W
HStem: -29 21G<-375 -215> 1500 20G<557 717>
Fore
557 1520 m 1,0,-1
 717 1520 l 1,1,-1
 -215 -29 l 1,2,-1
 -375 -29 l 1,3,-1
 557 1520 l 1,0,-1
EndSplineSet
Colour: aaaa88
EndChar
StartChar: currency
Encoding: 164 164 189
Width: 1303
Flags: W
Fore
891 993 m 1,0,-1
 1098 1202 l 1,1,-1
 1212 1087 l 1,2,-1
 1006 881 l 1,3,4
 1043 822 1043 822 1061 762.5 c 128,-1,5
 1079 703 1079 703 1079 641 c 0,6,7
 1079 578 1079 578 1060 520.5 c 128,-1,8
 1041 463 1041 463 1001 406 c 1,9,-1
 1210 199 l 1,10,-1
 1096 86 l 1,11,-1
 889 293 l 1,12,13
 830 253 830 253 772 234 c 128,-1,14
 714 215 714 215 653 215 c 0,15,16
 595 215 595 215 535 233.5 c 128,-1,17
 475 252 475 252 414 289 c 1,18,-1
 207 82 l 1,19,-1
 94 197 l 1,20,-1
 301 403 l 1,21,22
 264 465 264 465 245.5 524 c 128,-1,23
 227 583 227 583 227 641 c 0,24,25
 227 705 227 705 246 763 c 128,-1,26
 265 821 265 821 303 877 c 1,27,-1
 96 1083 l 1,28,-1
 211 1198 l 1,29,-1
 418 991 l 1,30,31
 473 1030 473 1030 531 1048.5 c 128,-1,32
 589 1067 589 1067 653 1067 c 0,33,34
 713 1067 713 1067 771.5 1049 c 128,-1,35
 830 1031 830 1031 891 993 c 1,0,-1
922 643 m 0,36,37
 922 755 922 755 844.5 832 c 128,-1,38
 767 909 767 909 653 909 c 0,39,40
 541 909 541 909 462 832 c 128,-1,41
 383 755 383 755 383 643 c 0,42,43
 383 529 383 529 461.5 451 c 128,-1,44
 540 373 540 373 653 373 c 256,45,46
 766 373 766 373 844 451.5 c 128,-1,47
 922 530 922 530 922 643 c 0,36,37
EndSplineSet
Colour: aaaa88
EndChar
StartChar: guilsinglleft
Encoding: 8249 8249 190
Width: 819
Flags: W
Fore
627 1059 m 1,0,-1
 627 868 l 1,1,-1
 326 600 l 1,2,-1
 627 332 l 1,3,-1
 627 141 l 1,4,-1
 158 559 l 1,5,-1
 158 641 l 1,6,-1
 627 1059 l 1,0,-1
EndSplineSet
Colour: aaaa88
EndChar
StartChar: guilsinglright
Encoding: 8250 8250 191
Width: 819
Flags: W
Fore
193 1059 m 1,0,-1
 662 641 l 1,1,-1
 662 559 l 1,2,-1
 193 141 l 1,3,-1
 193 332 l 1,4,-1
 494 600 l 1,5,-1
 193 868 l 1,6,-1
 193 1059 l 1,0,-1
EndSplineSet
Colour: aaaa88
EndChar
StartChar: fi
Encoding: 64257 64257 192
Width: 1290
Flags: W
Fore
1098 1120 m 1,0,-1
 1098 0 l 1,1,-1
 913 0 l 1,2,-1
 913 977 l 1,3,-1
 408 977 l 1,4,-1
 408 0 l 1,5,-1
 223 0 l 1,6,-1
 223 977 l 1,7,-1
 47 977 l 1,8,-1
 47 1120 l 1,9,-1
 223 1120 l 1,10,-1
 223 1198 l 2,11,12
 223 1381 223 1381 309.5 1468.5 c 128,-1,13
 396 1556 396 1556 575 1556 c 2,14,-1
 760 1556 l 1,15,-1
 760 1403 l 1,16,-1
 584 1403 l 2,17,18
 485 1403 485 1403 446.5 1363 c 128,-1,19
 408 1323 408 1323 408 1219 c 2,20,-1
 408 1120 l 1,21,-1
 1098 1120 l 1,0,-1
913 1554 m 1,22,-1
 1098 1554 l 1,23,-1
 1098 1321 l 1,24,-1
 913 1321 l 1,25,-1
 913 1554 l 1,22,-1
EndSplineSet
Ligature: 0 0 'liga' f i
Colour: aaaa88
EndChar
StartChar: fl
Encoding: 64258 64258 193
Width: 1290
Flags: W
HStem: 0 21G<223 408 913 1098> 977 143<47 223 408 711> 1403 153<558 912>
VStem: 223 185<0 977 1120 1233> 913 185<0 1556>
Fore
586 1556 m 2,0,-1
 1098 1556 l 1,1,-1
 1098 0 l 1,2,-1
 913 0 l 1,3,-1
 913 1403 l 1,4,-1
 584 1403 l 2,5,6
 485 1403 485 1403 446.5 1363 c 128,-1,7
 408 1323 408 1323 408 1219 c 2,8,-1
 408 1120 l 1,9,-1
 711 1120 l 1,10,-1
 711 977 l 1,11,-1
 408 977 l 1,12,-1
 408 0 l 1,13,-1
 223 0 l 1,14,-1
 223 977 l 1,15,-1
 47 977 l 1,16,-1
 47 1120 l 1,17,-1
 223 1120 l 1,18,-1
 223 1198 l 2,19,20
 223 1385 223 1385 310 1470.5 c 128,-1,21
 397 1556 397 1556 586 1556 c 2,0,-1
EndSplineSet
Ligature: 0 0 'liga' f l
Colour: aaaa88
EndChar
StartChar: daggerdbl
Encoding: 8225 8225 194
Width: 1024
Flags: W
Fore
967 223 m 1,0,-1
 600 223 l 1,1,-1
 600 -197 l 1,2,-1
 424 -197 l 1,3,-1
 424 223 l 1,4,-1
 57 223 l 1,5,-1
 57 377 l 1,6,-1
 424 377 l 1,7,-1
 424 920 l 1,8,-1
 57 920 l 1,9,-1
 57 1073 l 1,10,-1
 424 1073 l 1,11,-1
 424 1493 l 1,12,-1
 600 1493 l 1,13,-1
 600 1073 l 1,14,-1
 967 1073 l 1,15,-1
 967 920 l 1,16,-1
 600 920 l 1,17,-1
 600 377 l 1,18,-1
 967 377 l 1,19,-1
 967 223 l 1,0,-1
EndSplineSet
Colour: aaaa88
EndChar
StartChar: periodcentered
Encoding: 183 183 195
Width: 651
Flags: W
Fore
219 838 m 1,0,-1
 430 838 l 1,1,-1
 430 584 l 1,2,-1
 219 584 l 1,3,-1
 219 838 l 1,0,-1
EndSplineSet
Colour: aaaa88
EndChar
StartChar: quotesinglbase
Encoding: 8218 8218 196
Width: 651
Flags: W
Fore
256 254 m 1,0,-1
 467 254 l 1,1,-1
 467 82 l 1,2,-1
 303 -238 l 1,3,-1
 174 -238 l 1,4,-1
 256 82 l 1,5,-1
 256 254 l 1,0,-1
EndSplineSet
Colour: aaaa88
EndChar
StartChar: quotedblbase
Encoding: 8222 8222 197
Width: 1061
Flags: W
Fore
666 254 m 1,0,-1
 877 254 l 1,1,-1
 877 82 l 1,2,-1
 713 -238 l 1,3,-1
 584 -238 l 1,4,-1
 666 82 l 1,5,-1
 666 254 l 1,0,-1
256 254 m 1,6,-1
 467 254 l 1,7,-1
 467 82 l 1,8,-1
 303 -238 l 1,9,-1
 174 -238 l 1,10,-1
 256 82 l 1,11,-1
 256 254 l 1,6,-1
EndSplineSet
Colour: aaaa88
EndChar
StartChar: perthousand
Encoding: 8240 8240 198
Width: 2748
Flags: W
Fore
2292 657 m 0,0,1
 2205 657 2205 657 2155 583 c 128,-1,2
 2105 509 2105 509 2105 377 c 0,3,4
 2105 247 2105 247 2155 172.5 c 128,-1,5
 2205 98 2205 98 2292 98 c 0,6,7
 2377 98 2377 98 2426.5 172.5 c 128,-1,8
 2476 247 2476 247 2476 377 c 0,9,10
 2476 508 2476 508 2426.5 582.5 c 128,-1,11
 2377 657 2377 657 2292 657 c 0,0,1
2292 784 m 0,12,13
 2450 784 2450 784 2543 674 c 128,-1,14
 2636 564 2636 564 2636 377 c 256,15,16
 2636 190 2636 190 2542.5 80.5 c 128,-1,17
 2449 -29 2449 -29 2292 -29 c 0,18,19
 2132 -29 2132 -29 2039 80.5 c 128,-1,20
 1946 190 1946 190 1946 377 c 0,21,22
 1946 565 1946 565 2039.5 674.5 c 128,-1,23
 2133 784 2133 784 2292 784 c 0,12,13
457 1520 m 256,24,25
 615 1520 615 1520 709 1410.5 c 128,-1,26
 803 1301 803 1301 803 1114 c 0,27,28
 803 925 803 925 709.5 816 c 128,-1,29
 616 707 616 707 457 707 c 256,30,31
 298 707 298 707 205.5 816.5 c 128,-1,32
 113 926 113 926 113 1114 c 0,33,34
 113 1300 113 1300 206 1410 c 128,-1,35
 299 1520 299 1520 457 1520 c 256,24,25
1360 1520 m 1,36,-1
 1520 1520 l 1,37,-1
 586 -29 l 1,38,-1
 426 -29 l 1,39,-1
 1360 1520 l 1,36,-1
457 1393 m 256,40,41
 371 1393 371 1393 321.5 1318.5 c 128,-1,42
 272 1244 272 1244 272 1114 c 0,43,44
 272 982 272 982 321 908 c 128,-1,45
 370 834 370 834 457 834 c 256,46,47
 544 834 544 834 593.5 908 c 128,-1,48
 643 982 643 982 643 1114 c 0,49,50
 643 1243 643 1243 593 1318 c 128,-1,51
 543 1393 543 1393 457 1393 c 256,40,41
1489 784 m 0,52,53
 1647 784 1647 784 1740 674 c 128,-1,54
 1833 564 1833 564 1833 377 c 256,55,56
 1833 190 1833 190 1739.5 80.5 c 128,-1,57
 1646 -29 1646 -29 1489 -29 c 0,58,59
 1329 -29 1329 -29 1236 80.5 c 128,-1,60
 1143 190 1143 190 1143 377 c 0,61,62
 1143 565 1143 565 1236.5 674.5 c 128,-1,63
 1330 784 1330 784 1489 784 c 0,52,53
1489 657 m 0,64,65
 1402 657 1402 657 1352.5 583 c 128,-1,66
 1303 509 1303 509 1303 377 c 0,67,68
 1303 247 1303 247 1352.5 172.5 c 128,-1,69
 1402 98 1402 98 1489 98 c 0,70,71
 1574 98 1574 98 1623.5 172.5 c 128,-1,72
 1673 247 1673 247 1673 377 c 0,73,74
 1673 508 1673 508 1623.5 582.5 c 128,-1,75
 1574 657 1574 657 1489 657 c 0,64,65
EndSplineSet
Colour: aaaa88
EndChar
StartChar: dotlessi
Encoding: 305 305 214
Width: 569
Flags: W
HStem: 0 21G<193 377> 1100 20G<193 377>
VStem: 193 184<0 1120>
AnchorPoint: "Bottom" 284 0 basechar 0
AnchorPoint: "Top" 284 1120 basechar 0
AnchorPoint: "Ogonek" 284 0 basechar 0
Fore
193 1120 m 1,0,-1
 377 1120 l 1,1,-1
 377 0 l 1,2,-1
 193 0 l 1,3,-1
 193 1120 l 1,0,-1
EndSplineSet
Colour: aaaa88
EndChar
StartChar: circumflex
Encoding: 710 710 215
Width: 1024
Flags: W
Fore
438 1638 m 1,0,-1
 586 1638 l 1,1,-1
 831 1262 l 1,2,-1
 692 1262 l 1,3,-1
 512 1507 l 1,4,-1
 332 1262 l 1,5,-1
 193 1262 l 1,6,-1
 438 1638 l 1,0,-1
EndSplineSet
Colour: aaaa88
EndChar
StartChar: tilde
Encoding: 732 732 216
Width: 1024
Flags: W
Fore
508 1370 m 2,0,-1
 451 1425 l 2,1,2
 429 1445 429 1445 412.5 1454.5 c 128,-1,3
 396 1464 396 1464 383 1464 c 0,4,5
 345 1464 345 1464 327 1427.5 c 128,-1,6
 309 1391 309 1391 307 1309 c 1,7,-1
 182 1309 l 1,8,9
 184 1444 184 1444 235 1517.5 c 128,-1,10
 286 1591 286 1591 377 1591 c 0,11,12
 415 1591 415 1591 447 1577 c 128,-1,13
 479 1563 479 1563 516 1530 c 2,14,-1
 573 1475 l 2,15,16
 595 1455 595 1455 611.5 1445.5 c 128,-1,17
 628 1436 628 1436 641 1436 c 0,18,19
 679 1436 679 1436 697 1472.5 c 128,-1,20
 715 1509 715 1509 717 1591 c 1,21,-1
 842 1591 l 1,22,23
 840 1456 840 1456 789 1382.5 c 128,-1,24
 738 1309 738 1309 647 1309 c 0,25,26
 609 1309 609 1309 577 1323 c 128,-1,27
 545 1337 545 1337 508 1370 c 2,0,-1
EndSplineSet
Colour: aaaa88
EndChar
StartChar: macron
Encoding: 175 175 217
Width: 1024
Flags: W
Fore
213 1526 m 1,0,-1
 811 1526 l 1,1,-1
 811 1378 l 1,2,-1
 213 1378 l 1,3,-1
 213 1526 l 1,0,-1
EndSplineSet
Colour: aaaa88
EndChar
StartChar: breve
Encoding: 728 728 218
Width: 1024
Flags: W
Fore
199 1608 m 1,0,-1
 317 1608 l 1,1,2
 328 1533 328 1533 376.5 1495.5 c 128,-1,3
 425 1458 425 1458 512 1458 c 0,4,5
 598 1458 598 1458 646 1495 c 128,-1,6
 694 1532 694 1532 707 1608 c 1,7,-1
 825 1608 l 1,8,9
 815 1465 815 1465 736 1393 c 128,-1,10
 657 1321 657 1321 512 1321 c 256,11,12
 367 1321 367 1321 288 1393 c 128,-1,13
 209 1465 209 1465 199 1608 c 1,0,-1
EndSplineSet
Colour: aaaa88
EndChar
StartChar: dotaccent
Encoding: 729 729 219
Width: 1024
Flags: W
Fore
410 1552 m 1,0,-1
 614 1552 l 1,1,-1
 614 1348 l 1,2,-1
 410 1348 l 1,3,-1
 410 1552 l 1,0,-1
EndSplineSet
Colour: aaaa88
EndChar
StartChar: ring
Encoding: 730 730 220
Width: 1024
Flags: W
Fore
664 1524 m 0,0,1
 664 1587 664 1587 620 1631 c 128,-1,2
 576 1675 576 1675 512 1675 c 0,3,4
 447 1675 447 1675 403.5 1631.5 c 128,-1,5
 360 1588 360 1588 360 1524 c 0,6,7
 360 1459 360 1459 403.5 1415.5 c 128,-1,8
 447 1372 447 1372 512 1372 c 0,9,10
 576 1372 576 1372 620 1416 c 128,-1,11
 664 1460 664 1460 664 1524 c 0,0,1
786 1524 m 256,12,13
 786 1409 786 1409 706.5 1329 c 128,-1,14
 627 1249 627 1249 512 1249 c 256,15,16
 397 1249 397 1249 317.5 1329 c 128,-1,17
 238 1409 238 1409 238 1524 c 256,18,19
 238 1639 238 1639 317.5 1718.5 c 128,-1,20
 397 1798 397 1798 512 1798 c 256,21,22
 627 1798 627 1798 706.5 1718.5 c 128,-1,23
 786 1639 786 1639 786 1524 c 256,12,13
EndSplineSet
Colour: aaaa88
EndChar
StartChar: cedilla
Encoding: 184 184 221
Width: 1024
Flags: W
Fore
596 0 m 1,0,1
 651 -62 651 -62 678 -114.5 c 128,-1,2
 705 -167 705 -167 705 -215 c 0,3,4
 705 -304 705 -304 645 -349.5 c 128,-1,5
 585 -395 585 -395 467 -395 c 0,6,7
 421 -395 421 -395 377.5 -389 c 128,-1,8
 334 -383 334 -383 291 -371 c 1,9,-1
 291 -240 l 1,10,11
 325 -257 325 -257 362 -264.5 c 128,-1,12
 399 -272 399 -272 446 -272 c 0,13,14
 505 -272 505 -272 535 -248 c 128,-1,15
 565 -224 565 -224 565 -178 c 0,16,17
 565 -148 565 -148 543.5 -104.5 c 128,-1,18
 522 -61 522 -61 477 0 c 1,19,-1
 596 0 l 1,0,1
EndSplineSet
Colour: aaaa88
EndChar
StartChar: hungarumlaut
Encoding: 733 733 222
Width: 1024
Flags: W
Fore
764 1638 m 1,0,-1
 942 1638 l 1,1,-1
 694 1262 l 1,2,-1
 559 1262 l 1,3,-1
 764 1638 l 1,0,-1
430 1638 m 1,4,-1
 600 1638 l 1,5,-1
 377 1262 l 1,6,-1
 240 1262 l 1,7,-1
 430 1638 l 1,4,-1
EndSplineSet
Colour: aaaa88
EndChar
StartChar: ogonek
Encoding: 731 731 223
Width: 1024
Flags: W
Fore
440 0 m 1,0,-1
 559 0 l 1,1,2
 514 -61 514 -61 492.5 -105 c 128,-1,3
 471 -149 471 -149 471 -180 c 0,4,5
 471 -226 471 -226 498.5 -249 c 128,-1,6
 526 -272 526 -272 580 -272 c 0,7,8
 612 -272 612 -272 643 -264.5 c 128,-1,9
 674 -257 674 -257 705 -242 c 1,10,-1
 705 -375 l 1,11,12
 667 -385 667 -385 633 -390 c 128,-1,13
 599 -395 599 -395 569 -395 c 0,14,15
 447 -395 447 -395 389.5 -351.5 c 128,-1,16
 332 -308 332 -308 332 -215 c 0,17,18
 332 -167 332 -167 358.5 -114.5 c 128,-1,19
 385 -62 385 -62 440 0 c 1,0,-1
EndSplineSet
Colour: aaaa88
EndChar
StartChar: caron
Encoding: 711 711 224
Width: 1024
Flags: W
Fore
438 1262 m 1,0,-1
 193 1638 l 1,1,-1
 332 1638 l 1,2,-1
 512 1393 l 1,3,-1
 692 1638 l 1,4,-1
 831 1638 l 1,5,-1
 586 1262 l 1,6,-1
 438 1262 l 1,0,-1
EndSplineSet
Colour: aaaa88
EndChar
StartChar: Lslash
Encoding: 321 321 225
Width: 1151
Flags: W
Fore
211 1493 m 1,0,-1
 414 1493 l 1,1,-1
 414 877 l 1,2,-1
 727 1096 l 1,3,-1
 807 985 l 1,4,-1
 414 711 l 1,5,-1
 414 170 l 1,6,-1
 1141 170 l 1,7,-1
 1141 0 l 1,8,-1
 211 0 l 1,9,-1
 211 571 l 1,10,-1
 63 465 l 1,11,-1
 -14 575 l 1,12,-1
 211 733 l 1,13,-1
 211 1493 l 1,0,-1
EndSplineSet
Colour: aaaa88
EndChar
StartChar: lslash
Encoding: 322 322 226
Width: 582
Flags: W
Fore
199 1556 m 1,0,-1
 383 1556 l 1,1,-1
 383 954 l 1,2,-1
 508 1044 l 1,3,-1
 584 938 l 1,4,-1
 383 797 l 1,5,-1
 383 0 l 1,6,-1
 199 0 l 1,7,-1
 199 666 l 1,8,-1
 76 578 l 1,9,-1
 2 684 l 1,10,-1
 199 825 l 1,11,-1
 199 1556 l 1,0,-1
EndSplineSet
Colour: aaaa88
EndChar
StartChar: brokenbar
Encoding: 166 166 231
Width: 690
Flags: W
Fore
430 408 m 1,0,-1
 430 -350 l 1,1,-1
 260 -350 l 1,2,-1
 260 408 l 1,3,-1
 430 408 l 1,0,-1
430 1432 m 1,4,-1
 430 674 l 1,5,-1
 260 674 l 1,6,-1
 260 1432 l 1,7,-1
 430 1432 l 1,4,-1
EndSplineSet
Colour: aaaa88
EndChar
StartChar: Eth
Encoding: 208 208 232
Width: 1587
Flags: W
Fore
211 1493 m 1,0,-1
 627 1493 l 2,1,2
 1060 1493 1060 1493 1263 1312.5 c 128,-1,3
 1466 1132 1466 1132 1466 748 c 0,4,5
 1466 362 1466 362 1262.5 181 c 128,-1,6
 1059 0 1059 0 627 0 c 2,7,-1
 211 0 l 1,8,-1
 211 700 l 1,9,-1
 10 700 l 1,10,-1
 10 844 l 1,11,-1
 211 844 l 1,12,-1
 211 1493 l 1,0,-1
414 1327 m 1,13,-1
 414 844 l 1,14,-1
 750 844 l 1,15,-1
 750 700 l 1,16,-1
 414 700 l 1,17,-1
 414 166 l 1,18,-1
 657 166 l 2,19,20
 966 166 966 166 1109.5 306 c 128,-1,21
 1253 446 1253 446 1253 748 c 0,22,23
 1253 1048 1253 1048 1109.5 1187.5 c 128,-1,24
 966 1327 966 1327 657 1327 c 2,25,-1
 414 1327 l 1,13,-1
EndSplineSet
Colour: aaaa88
EndChar
StartChar: eth
Encoding: 240 240 233
Width: 1253
Flags: W
Fore
838 915 m 1,0,1
 788 932 788 932 744 940 c 128,-1,2
 700 948 700 948 659 948 c 0,3,4
 492 948 492 948 399.5 840 c 128,-1,5
 307 732 307 732 307 537 c 0,6,7
 307 349 307 349 394 238 c 128,-1,8
 481 127 481 127 627 127 c 0,9,10
 772 127 772 127 859 238 c 128,-1,11
 946 349 946 349 946 537 c 0,12,13
 946 659 946 659 919 753 c 128,-1,14
 892 847 892 847 838 915 c 1,0,1
901 1141 m 2,15,16
 1027 998 1027 998 1084 854 c 128,-1,17
 1141 710 1141 710 1141 537 c 0,18,19
 1141 282 1141 282 999 126.5 c 128,-1,20
 857 -29 857 -29 627 -29 c 0,21,22
 396 -29 396 -29 254.5 126.5 c 128,-1,23
 113 282 113 282 113 537 c 0,24,25
 113 787 113 787 251 942.5 c 128,-1,26
 389 1098 389 1098 610 1098 c 0,27,28
 628 1098 628 1098 654 1095.5 c 128,-1,29
 680 1093 680 1093 722 1088 c 1,30,-1
 563 1268 l 1,31,-1
 244 1161 l 1,32,-1
 211 1260 l 1,33,-1
 492 1352 l 1,34,-1
 311 1556 l 1,35,-1
 539 1556 l 1,36,-1
 666 1411 l 1,37,-1
 999 1522 l 1,38,-1
 1032 1425 l 1,39,-1
 737 1327 l 1,40,-1
 901 1141 l 2,15,16
EndSplineSet
Colour: aaaa88
EndChar
StartChar: Thorn
Encoding: 222 222 236
Width: 1239
Flags: W
Fore
201 1493 m 1,0,-1
 403 1493 l 1,1,-1
 403 1229 l 1,2,-1
 657 1229 l 2,3,4
 908 1229 908 1229 1036.5 1116.5 c 128,-1,5
 1165 1004 1165 1004 1165 784 c 256,6,7
 1165 564 1165 564 1036.5 451 c 128,-1,8
 908 338 908 338 657 338 c 2,9,-1
 403 338 l 1,10,-1
 403 0 l 1,11,-1
 201 0 l 1,12,-1
 201 1493 l 1,0,-1
403 1063 m 1,13,-1
 403 504 l 1,14,-1
 657 504 l 2,15,16
 798 504 798 504 875 577 c 128,-1,17
 952 650 952 650 952 784 c 256,18,19
 952 918 952 918 875.5 990.5 c 128,-1,20
 799 1063 799 1063 657 1063 c 2,21,-1
 403 1063 l 1,13,-1
EndSplineSet
Colour: aaaa88
EndChar
StartChar: thorn
Encoding: 254 254 237
Width: 1300
Flags: W
Fore
371 168 m 1,0,-1
 371 -426 l 1,1,-1
 186 -426 l 1,2,-1
 186 1556 l 1,3,-1
 371 1556 l 1,4,-1
 371 950 l 1,5,6
 429 1050 429 1050 517.5 1098.5 c 128,-1,7
 606 1147 606 1147 729 1147 c 0,8,9
 933 1147 933 1147 1060.5 985 c 128,-1,10
 1188 823 1188 823 1188 559 c 256,11,12
 1188 295 1188 295 1060.5 133 c 128,-1,13
 933 -29 933 -29 729 -29 c 0,14,15
 606 -29 606 -29 517.5 19.5 c 128,-1,16
 429 68 429 68 371 168 c 1,0,-1
997 559 m 256,17,18
 997 762 997 762 913.5 877.5 c 128,-1,19
 830 993 830 993 684 993 c 256,20,21
 538 993 538 993 454.5 877.5 c 128,-1,22
 371 762 371 762 371 559 c 256,23,24
 371 356 371 356 454.5 240.5 c 128,-1,25
 538 125 538 125 684 125 c 256,26,27
 830 125 830 125 913.5 240.5 c 128,-1,28
 997 356 997 356 997 559 c 256,17,18
EndSplineSet
Colour: aaaa88
EndChar
StartChar: minus
Encoding: 8722 8722 238
Width: 1716
Flags: W
Fore
217 727 m 1,0,-1
 1499 727 l 1,1,-1
 1499 557 l 1,2,-1
 217 557 l 1,3,-1
 217 727 l 1,0,-1
EndSplineSet
Colour: aaaa88
EndChar
StartChar: multiply
Encoding: 215 215 239
Width: 1716
Flags: W
Fore
1436 1100 m 1,0,-1
 979 641 l 1,1,-1
 1436 184 l 1,2,-1
 1317 63 l 1,3,-1
 858 522 l 1,4,-1
 399 63 l 1,5,-1
 281 184 l 1,6,-1
 737 641 l 1,7,-1
 281 1100 l 1,8,-1
 399 1221 l 1,9,-1
 858 762 l 1,10,-1
 1317 1221 l 1,11,-1
 1436 1100 l 1,0,-1
EndSplineSet
Colour: aaaa88
EndChar
StartChar: onesuperior
Encoding: 185 185 240
Width: 821
Flags: W
Fore
156 778 m 1,0,-1
 360 778 l 1,1,-1
 360 1389 l 1,2,-1
 137 1348 l 1,3,-1
 137 1464 l 1,4,-1
 367 1503 l 1,5,-1
 504 1503 l 1,6,-1
 504 778 l 1,7,-1
 709 778 l 1,8,-1
 709 668 l 1,9,-1
 156 668 l 1,10,-1
 156 778 l 1,0,-1
EndSplineSet
Colour: aaaa88
EndChar
StartChar: twosuperior
Encoding: 178 178 241
Width: 821
Flags: W
Fore
268 782 m 1,0,-1
 692 782 l 1,1,-1
 692 668 l 1,2,-1
 94 668 l 1,3,-1
 94 778 l 1,4,5
 128 809 128 809 191 865 c 0,6,7
 535 1170 535 1170 535 1264 c 0,8,9
 535 1330 535 1330 483 1370.5 c 128,-1,10
 431 1411 431 1411 346 1411 c 0,11,12
 294 1411 294 1411 233 1393.5 c 128,-1,13
 172 1376 172 1376 100 1341 c 1,14,-1
 100 1464 l 1,15,16
 177 1492 177 1492 243.5 1506 c 128,-1,17
 310 1520 310 1520 367 1520 c 0,18,19
 512 1520 512 1520 599 1454 c 128,-1,20
 686 1388 686 1388 686 1280 c 0,21,22
 686 1141 686 1141 355 857 c 0,23,24
 299 809 299 809 268 782 c 1,0,-1
EndSplineSet
Colour: aaaa88
EndChar
StartChar: threesuperior
Encoding: 179 179 242
Width: 821
Flags: W
Fore
524 1120 m 1,0,1
 616 1102 616 1102 666.5 1047.5 c 128,-1,2
 717 993 717 993 717 911 c 0,3,4
 717 787 717 787 622 720 c 128,-1,5
 527 653 527 653 350 653 c 0,6,7
 293 653 293 653 230.5 663.5 c 128,-1,8
 168 674 168 674 98 694 c 1,9,-1
 98 815 l 1,10,11
 150 788 150 788 209.5 775 c 128,-1,12
 269 762 269 762 336 762 c 0,13,14
 445 762 445 762 505 801.5 c 128,-1,15
 565 841 565 841 565 911 c 0,16,17
 565 985 565 985 509.5 1023 c 128,-1,18
 454 1061 454 1061 346 1061 c 2,19,-1
 260 1061 l 1,20,-1
 260 1169 l 1,21,-1
 354 1169 l 2,22,23
 448 1169 448 1169 496.5 1200.5 c 128,-1,24
 545 1232 545 1232 545 1292 c 0,25,26
 545 1350 545 1350 495 1380.5 c 128,-1,27
 445 1411 445 1411 350 1411 c 0,28,29
 310 1411 310 1411 259 1402 c 128,-1,30
 208 1393 208 1393 127 1370 c 1,31,-1
 127 1485 l 1,32,33
 200 1502 200 1502 264 1511 c 128,-1,34
 328 1520 328 1520 383 1520 c 0,35,36
 527 1520 527 1520 611.5 1461 c 128,-1,37
 696 1402 696 1402 696 1303 c 0,38,39
 696 1234 696 1234 651 1186 c 128,-1,40
 606 1138 606 1138 524 1120 c 1,0,1
EndSplineSet
Colour: aaaa88
EndChar
StartChar: dcroat
Encoding: 273 273 255
Width: 1300
Flags: W
Fore
930 950 m 1,0,-1
 930 1284 l 1,1,-1
 604 1284 l 1,2,-1
 604 1409 l 1,3,-1
 930 1409 l 1,4,-1
 930 1556 l 1,5,-1
 1114 1556 l 1,6,-1
 1114 1409 l 1,7,-1
 1268 1409 l 1,8,-1
 1268 1284 l 1,9,-1
 1114 1284 l 1,10,-1
 1114 0 l 1,11,-1
 930 0 l 1,12,-1
 930 168 l 1,13,14
 872 68 872 68 783.5 19.5 c 128,-1,15
 695 -29 695 -29 571 -29 c 0,16,17
 368 -29 368 -29 240.5 133 c 128,-1,18
 113 295 113 295 113 559 c 256,19,20
 113 823 113 823 240.5 985 c 128,-1,21
 368 1147 368 1147 571 1147 c 0,22,23
 695 1147 695 1147 783.5 1098.5 c 128,-1,24
 872 1050 872 1050 930 950 c 1,0,-1
303 559 m 256,25,26
 303 356 303 356 386.5 240.5 c 128,-1,27
 470 125 470 125 616 125 c 256,28,29
 762 125 762 125 846 240.5 c 128,-1,30
 930 356 930 356 930 559 c 256,31,32
 930 762 930 762 846 877.5 c 128,-1,33
 762 993 762 993 616 993 c 256,34,35
 470 993 470 993 386.5 877.5 c 128,-1,36
 303 762 303 762 303 559 c 256,25,26
EndSplineSet
Colour: aaaa88
EndChar
StartChar: sfthyphen
Encoding: 173 173 256
Width: 739
Flags: W
Fore
100 643 m 1,0,-1
 639 643 l 1,1,-1
 639 479 l 1,2,-1
 100 479 l 1,3,-1
 100 643 l 1,0,-1
EndSplineSet
Colour: aaaa88
EndChar
StartChar: periodcentered
Encoding: 8729 8729 257
Width: 651
Flags: W
Fore
219 838 m 1,0,-1
 430 838 l 1,1,-1
 430 584 l 1,2,-1
 219 584 l 1,3,-1
 219 838 l 1,0,-1
EndSplineSet
Colour: aaaa88
EndChar
StartChar: Euro
Encoding: 8364 8364 258
Width: 1303
Flags: W
Fore
1167 1378 m 1,0,-1
 1167 1165 l 1,1,2
 1076 1270 1076 1270 991.5 1315 c 128,-1,3
 907 1360 907 1360 805 1360 c 0,4,5
 648 1360 648 1360 547 1260 c 128,-1,6
 446 1160 446 1160 414 973 c 1,7,-1
 991 973 l 1,8,-1
 936 850 l 1,9,-1
 398 850 l 1,10,11
 396 826 396 826 395.5 803 c 128,-1,12
 395 780 395 780 395 745 c 0,13,14
 395 713 395 713 395.5 690 c 128,-1,15
 396 667 396 667 398 643 c 1,16,-1
 844 643 l 1,17,-1
 788 520 l 1,18,-1
 414 520 l 1,19,20
 446 333 446 333 547 232 c 128,-1,21
 648 131 648 131 805 131 c 0,22,23
 907 131 907 131 991.5 176 c 128,-1,24
 1076 221 1076 221 1167 326 c 1,25,-1
 1167 115 l 1,26,27
 1078 43 1078 43 985.5 7 c 128,-1,28
 893 -29 893 -29 797 -29 c 0,29,30
 560 -29 560 -29 405.5 116 c 128,-1,31
 251 261 251 261 211 520 c 1,32,-1
 0 520 l 1,33,-1
 55 643 l 1,34,-1
 194 643 l 1,35,36
 194 666 194 666 193.5 689.5 c 128,-1,37
 193 713 193 713 193 745 c 0,38,39
 193 780 193 780 193.5 803.5 c 128,-1,40
 194 827 194 827 194 850 c 1,41,-1
 0 850 l 1,42,-1
 55 973 l 1,43,-1
 211 973 l 1,44,45
 251 1230 251 1230 406 1375 c 128,-1,46
 561 1520 561 1520 797 1520 c 0,47,48
 895 1520 895 1520 987.5 1484.5 c 128,-1,49
 1080 1449 1080 1449 1167 1378 c 1,0,-1
EndSplineSet
Colour: aaaa88
EndChar
StartChar: Dieresis
Encoding: 65539 -1 259
Width: 1024
Flags: W
Fore
606 1497 m 1,0,-1
 809 1497 l 1,1,-1
 809 1294 l 1,2,-1
 606 1294 l 1,3,-1
 606 1497 l 1,0,-1
215 1497 m 1,4,-1
 418 1497 l 1,5,-1
 418 1294 l 1,6,-1
 215 1294 l 1,7,-1
 215 1497 l 1,4,-1
EndSplineSet
Colour: aaaa88
EndChar
StartChar: Acute
Encoding: 65540 -1 260
Width: 1024
Flags: W
Fore
567 1526 m 1,0,-1
 752 1526 l 1,1,-1
 524 1262 l 1,2,-1
 371 1262 l 1,3,-1
 567 1526 l 1,0,-1
EndSplineSet
Colour: aaaa88
EndChar
StartChar: Tilde
Encoding: 65541 -1 261
Width: 1024
Flags: W
Fore
508 1337 m 2,0,-1
 451 1370 l 2,1,2
 426 1384 426 1384 410.5 1389.5 c 128,-1,3
 395 1395 395 1395 383 1395 c 0,4,5
 347 1395 347 1395 327 1370 c 128,-1,6
 307 1345 307 1345 307 1300 c 2,7,-1
 307 1294 l 1,8,-1
 182 1294 l 1,9,10
 182 1395 182 1395 233.5 1454 c 128,-1,11
 285 1513 285 1513 371 1513 c 0,12,13
 407 1513 407 1513 437.5 1505 c 128,-1,14
 468 1497 468 1497 516 1470 c 2,15,-1
 573 1440 l 2,16,17
 596 1427 596 1427 613 1421 c 128,-1,18
 630 1415 630 1415 645 1415 c 0,19,20
 677 1415 677 1415 697 1440.5 c 128,-1,21
 717 1466 717 1466 717 1507 c 2,22,-1
 717 1513 l 1,23,-1
 842 1513 l 1,24,25
 840 1413 840 1413 788.5 1353.5 c 128,-1,26
 737 1294 737 1294 653 1294 c 0,27,28
 619 1294 619 1294 589.5 1302 c 128,-1,29
 560 1310 560 1310 508 1337 c 2,0,-1
EndSplineSet
Colour: aaaa88
EndChar
StartChar: Grave
Encoding: 65542 -1 262
Width: 1024
Flags: W
Fore
455 1526 m 1,0,-1
 651 1262 l 1,1,-1
 498 1262 l 1,2,-1
 268 1526 l 1,3,-1
 455 1526 l 1,0,-1
EndSplineSet
Colour: aaaa88
EndChar
StartChar: Circumflex
Encoding: 65543 -1 263
Width: 1024
Flags: W
Fore
418 1528 m 1,0,-1
 606 1528 l 1,1,-1
 817 1262 l 1,2,-1
 678 1262 l 1,3,-1
 512 1440 l 1,4,-1
 346 1262 l 1,5,-1
 207 1262 l 1,6,-1
 418 1528 l 1,0,-1
EndSplineSet
Colour: aaaa88
EndChar
StartChar: Caron
Encoding: 65544 -1 264
Width: 1024
Flags: W
Fore
418 1262 m 1,0,-1
 207 1528 l 1,1,-1
 346 1528 l 1,2,-1
 512 1350 l 1,3,-1
 678 1528 l 1,4,-1
 817 1528 l 1,5,-1
 606 1262 l 1,6,-1
 418 1262 l 1,0,-1
EndSplineSet
Colour: aaaa88
EndChar
StartChar: verafoursup
Encoding: 65545 -1 265
Width: 821
Flags: W
Fore
477 1382 m 1,0,-1
 168 963 l 1,1,-1
 477 963 l 1,2,-1
 477 1382 l 1,0,-1
455 1503 m 1,3,-1
 621 1503 l 1,4,-1
 621 963 l 1,5,-1
 756 963 l 1,6,-1
 756 854 l 1,7,-1
 621 854 l 1,8,-1
 621 668 l 1,9,-1
 477 668 l 1,10,-1
 477 854 l 1,11,-1
 63 854 l 1,12,-1
 63 975 l 1,13,-1
 455 1503 l 1,3,-1
EndSplineSet
Colour: aaaa88
EndChar
StartChar: Breve
Encoding: 65546 -1 266
Width: 1024
Flags: W
Fore
199 1528 m 1,0,-1
 317 1528 l 1,1,2
 330 1474 330 1474 379.5 1445.5 c 128,-1,3
 429 1417 429 1417 512 1417 c 0,4,5
 594 1417 594 1417 642.5 1444.5 c 128,-1,6
 691 1472 691 1472 707 1528 c 1,7,-1
 825 1528 l 1,8,9
 815 1409 815 1409 735 1347.5 c 128,-1,10
 655 1286 655 1286 512 1286 c 0,11,12
 368 1286 368 1286 288.5 1347 c 128,-1,13
 209 1408 209 1408 199 1528 c 1,0,-1
EndSplineSet
Colour: aaaa88
EndChar
StartChar: Dotaccent
Encoding: 65547 -1 267
Width: 1024
Flags: W
Fore
410 1499 m 1,0,-1
 614 1499 l 1,1,-1
 614 1294 l 1,2,-1
 410 1294 l 1,3,-1
 410 1499 l 1,0,-1
EndSplineSet
Colour: aaaa88
EndChar
StartChar: Hungarumlaut
Encoding: 65548 -1 268
Width: 1024
Flags: W
TeX: 78 0 0 0
AnchorPoint: "TopCapMkMk" 512 1120 mark 0
AnchorPoint: "TopCapMkMk" 512 1493 basemark 0
AnchorPoint: "TopCap" 512 1120 mark 0
Fore
703 1526 m 1,0,-1
 868 1526 l 1,1,-1
 694 1262 l 1,2,-1
 559 1262 l 1,3,-1
 703 1526 l 1,0,-1
374 1527 m 1,4,-1
 534 1527 l 1,5,-1
 377 1262 l 1,6,-1
 240 1262 l 1,7,-1
 374 1527 l 1,4,-1
EndSplineSet
EndChar
StartChar: HepBar
Encoding: 65549 -1 269
Width: 1024
Flags: W
TeX: 78 0 0 0
HStem: 1700 105<87 937>
Fore
87 1805 m 1,0,-1
 937 1805 l 1,1,-1
 937 1700 l 1,2,-1
 87 1700 l 1,3,-1
 87 1805 l 1,0,-1
EndSplineSet
EndChar
StartChar: Uni030F
Encoding: 65550 -1 270
Width: 1024
Flags: W
TeX: 78 0 0 0
AnchorPoint: "TopCapMkMk" 512 1120 mark 0
AnchorPoint: "TopCapMkMk" 512 1493 basemark 0
AnchorPoint: "TopCap" 512 1120 mark 0
Fore
321 1526 m 1,0,-1
 465 1262 l 1,3,-1
 330 1262 l 1,2,-1
 156 1526 l 1,1,-1
 321 1526 l 1,0,-1
650 1527 m 1,4,-1
 784 1262 l 1,7,-1
 647 1262 l 1,6,-1
 490 1527 l 1,5,-1
 650 1527 l 1,4,-1
EndSplineSet
EndChar
StartChar: Uni0311
Encoding: 65551 -1 271
Width: 1024
Flags: W
TeX: 78 0 0 0
AnchorPoint: "TopCap" 512 1120 mark 0
AnchorPoint: "TopCapMkMk" 512 1493 basemark 0
AnchorPoint: "TopCapMkMk" 512 1120 mark 0
Fore
199 1286 m 1,0,-1
 209 1406 209 1406 288 1467 c 128,-1,13
 368 1528 368 1528 512 1528 c 0,11,12
 655 1528 655 1528 735 1466 c 128,-1,10
 815 1405 815 1405 825 1286 c 1,8,9
 707 1286 l 1,7,-1
 691 1342 691 1342 642 1370 c 128,-1,6
 594 1397 594 1397 512 1397 c 0,4,5
 429 1397 429 1397 380 1368 c 128,-1,3
 330 1340 330 1340 317 1286 c 1,1,2
 199 1286 l 1,0,-1
EndSplineSet
EndChar
StartChar: Macron
Encoding: 65552 -1 272
Width: 1024
Flags: W
TeX: 78 0 0 0
AnchorPoint: "TopCapMkMk" 512 1120 mark 0
AnchorPoint: "TopCapMkMk" 512 1493 basemark 0
AnchorPoint: "TopCap" 512 1120 mark 0
Fore
213 1470 m 1,0,-1
 811 1470 l 1,1,-1
 811 1322 l 1,2,-1
 213 1322 l 1,3,-1
 213 1470 l 1,0,-1
EndSplineSet
EndChar
StartChar: uniFFFD
Encoding: 65533 65533 273
Width: 1087
Flags: W
TeX: 117 0 0 0
Fore
30 1610 m 1,0,-1
 1055 1610 l 1,1,-1
 1055 -105 l 1,2,-1
 30 -105 l 1,3,-1
 30 1610 l 1,0,-1
391 254 m 1,0,-1
 391 0 l 1,3,-1
 594 0 l 1,2,-1
 594 254 l 1,1,-1
 391 254 l 1,0,-1
588 401 m 1,4,-1
 588 524 l 2,36,-1
 588 576 588 576 591 606 c 128,-1,35
 594 636 594 636 600 657 c 0,33,34
 608 682 608 682 627.5 708.5 c 128,-1,32
 647 735 647 735 694 782 c 2,30,31
 782 868 l 2,29,-1
 872 954 872 954 908 1022.5 c 128,-1,28
 944 1091 944 1091 944 1167 c 0,26,27
 944 1326 944 1326 832.5 1423 c 128,-1,25
 721 1520 721 1520 537 1520 c 0,23,24
 434 1520 434 1520 337.5 1492 c 128,-1,22
 241 1464 241 1464 147 1407 c 1,20,21
 147 1219 l 1,19,-1
 244 1286 244 1286 333.5 1321 c 128,-1,18
 423 1356 423 1356 502 1356 c 0,16,17
 610 1356 610 1356 675.5 1301 c 128,-1,15
 741 1246 741 1246 741 1157 c 0,13,14
 741 1108 741 1108 715.5 1061 c 128,-1,12
 690 1014 690 1014 633 961 c 1,10,11
 543 872 l 1,9,-1
 453 786 453 786 425 721 c 128,-1,8
 397 656 397 656 397 555 c 2,6,7
 397 401 l 1,5,-1
 588 401 l 1,4,-1
EndSplineSet
EndChar
StartChar: uni0237
Encoding: 567 567 274
Width: 569
Flags: W
TeX: 117 0 0 0
HStem: 1100 20G<193 377>
VStem: 193 184<-20 1120>
AnchorPoint: "Top" 284 1120 basechar 0
Fore
193 1120 m 1,0,-1
 377 1120 l 1,1,-1
 377 -20 l 2,2,3
 377 -234 377 -234 296 -330 c 0,4,5
 214 -426 214 -426 33 -426 c 2,6,-1
 -37 -426 l 1,7,-1
 -37 -270 l 1,8,-1
 12 -270 l 2,9,10
 117 -270 117 -270 155 -222 c 0,11,12
 193 -173 193 -173 193 -20 c 2,13,-1
 193 1120 l 1,0,-1
EndSplineSet
EndChar
StartChar: uni02B0
Encoding: 688 688 275
Width: 908
VWidth: 2153
Flags: W
TeX: 117 0 0 0
Fore
787 1227 m 2,0,-1
 787 821 l 1,1,-1
 658 821 l 1,2,-1
 658 1223 l 2,3,4
 658 1318 658 1318 615 1366 c 0,5,6
 571 1413 571 1413 484 1413 c 0,6,7
 380 1413 380 1413 320 1356 c 128,-1,8
 260 1299 260 1299 260 1201 c 2,9,-1
 260 821 l 1,10,-1
 130 821 l 1,11,-1
 130 1755 l 1,12,-1
 260 1755 l 1,13,-1
 260 1389 l 1,14,15
 306 1449 306 1449 369 1479 c 0,16,17
 431 1509 431 1509 513 1509 c 0,17,18
 648 1509 648 1509 718 1438 c 0,19,20
 787 1366 787 1366 787 1227 c 2,0,-1
EndSplineSet
EndChar
StartChar: uni02B1
Encoding: 689 689 276
Width: 908
VWidth: 2148
Flags: W
TeX: 117 0 0 0
Fore
130 1519 m 18,0,1
 130 1590 130 1590 152 1624 c 0,2,3
 181 1670 181 1670 209 1690 c 0,4,5
 271 1733 271 1733 343 1733 c 0,6,7
 430 1733 430 1733 476 1690 c 9,8,-1
 423 1626 l 17,9,10
 396 1652 396 1652 356 1652 c 128,-1,11
 316 1652 316 1652 288 1626 c 128,-1,13
 260 1600 260 1600 260 1561 c 2,14,-1
 260 1389 l 1,15,16
 306 1449 306 1449 369 1479 c 0,17,18
 431 1509 431 1509 513 1509 c 0,18,19
 648 1509 648 1509 718 1438 c 0,20,21
 787 1366 787 1366 787 1227 c 2,21,-1
 787 821 l 1,22,-1
 658 821 l 1,23,-1
 658 1223 l 2,24,25
 658 1318 658 1318 615 1366 c 0,26,27
 571 1413 571 1413 484 1413 c 0,27,28
 380 1413 380 1413 320 1356 c 128,-1,29
 260 1299 260 1299 260 1201 c 2,30,-1
 260 821 l 1,31,-1
 130 821 l 9,32,-1
 130 1519 l 18,0,1
EndSplineSet
EndChar
StartChar: uni02B2
Encoding: 690 690 277
Width: 398
VWidth: 2101
Flags: W
TeX: 117 0 0 0
Fore
135 1493 m 1,0,-1
 264 1493 l 1,1,-1
 264 809 l 2,2,3
 264 681 264 681 207 623 c 128,-1,4
 150 565 150 565 23 565 c 2,5,-1
 -26 565 l 1,6,-1
 -26 659 l 1,7,-1
 8 659 l 2,8,9
 82 659 82 659 109 688 c 128,-1,10
 135 717 135 717 135 809 c 2,11,-1
 135 1493 l 1,0,-1
135 1755 m 1,12,-1
 264 1755 l 1,13,-1
 264 1615 l 1,14,-1
 135 1615 l 1,15,-1
 135 1755 l 1,12,-1
EndSplineSet
EndChar
StartChar: uni02B3
Encoding: 691 691 278
Width: 589
VWidth: 2103
Flags: W
TeX: 117 0 0 0
Fore
589 1390 m 1,0,1
 568 1401 568 1401 542 1406 c 128,-1,2
 517 1411 517 1411 486 1411 c 0,3,4
 377 1411 377 1411 318 1350 c 128,-1,5
 260 1289 260 1289 260 1175 c 2,6,-1
 260 821 l 1,7,-1
 130 821 l 1,8,-1
 130 1493 l 1,9,-1
 260 1493 l 1,10,-1
 260 1389 l 1,11,12
 300 1450 300 1450 365 1480 c 128,-1,13
 431 1509 431 1509 524 1509 c 0,14,15
 538 1509 538 1509 554 1508 c 128,-1,16
 570 1506 570 1506 589 1503 c 1,17,-1
 589 1390 l 1,0,1
EndSplineSet
EndChar
StartChar: uni02B4
Encoding: 692 692 279
Width: 589
VWidth: 2097
Flags: W
TeX: 117 0 0 0
Fore
0 924 m 1,0,1
 22 913 22 913 48 908 c 128,-1,2
 73 903 73 903 104 903 c 0,3,4
 213 903 213 903 272 964 c 128,-1,5
 330 1025 330 1025 330 1139 c 2,6,-1
 330 1493 l 1,7,-1
 459 1493 l 1,8,-1
 459 821 l 1,9,-1
 330 821 l 1,10,-1
 330 925 l 1,11,12
 289 864 289 864 224 835 c 128,-1,13
 159 805 159 805 66 805 c 0,14,15
 53 805 53 805 36 806 c 128,-1,16
 18 808 18 808 0 811 c 1,17,-1
 0 924 l 1,0,1
EndSplineSet
EndChar
StartChar: uni02B5
Encoding: 693 693 280
Width: 589
VWidth: 1863
Flags: W
TeX: 117 0 0 0
Fore
459 738 m 18,0,1
 459 699 459 699 487 673 c 128,-1,2
 515 646 515 646 555 646 c 128,-1,3
 595 646 595 646 622 673 c 9,4,-1
 676 609 l 17,5,6
 629 565 629 565 543 565 c 0,7,8
 470 565 470 565 409 609 c 0,9,10
 379 630 379 630 351 674 c 0,11,12
 330 708 330 708 330 779 c 2,13,-1
 330 925 l 1,14,15
 289 864 289 864 224 835 c 0,16,17
 159 805 159 805 66 805 c 0,18,19
 53 805 53 805 36 806 c 0,20,21
 18 808 18 808 0 811 c 1,22,-1
 0 924 l 1,23,24
 22 913 22 913 48 908 c 0,25,26
 73 903 73 903 104 903 c 0,27,28
 213 903 213 903 272 964 c 0,29,30
 330 1025 330 1025 330 1139 c 2,31,-1
 330 1493 l 1,32,-1
 459 1493 l 9,33,-1
 459 738 l 18,0,1
EndSplineSet
EndChar
StartChar: uni02B6
Encoding: 694 694 281
Width: 862
VWidth: 1692
Flags: W
TeX: 117 0 0 0
Fore
557 1178 m 5,0,1
 631 1162 631 1162 670 1120 c 132,-1,22
 709 1078 709 1078 709 1015 c 4,20,21
 709 918 709 918 634 869 c 4,18,19
 559 821 559 821 407 821 c 6,16,17
 135 821 l 5,15,-1
 135 1493 l 5,14,-1
 265 1493 l 5,13,-1
 265 1209 l 5,12,-1
 383 1209 l 6,11,-1
 451 1209 451 1209 492 1231 c 4,9,10
 533 1253 533 1253 578 1321 c 5,7,8
 691 1493 l 5,6,-1
 827 1493 l 5,5,-1
 706 1309 l 5,4,-1
 669 1253 669 1253 632 1221 c 4,2,3
 595 1188 595 1188 557 1178 c 5,0,1
265 914 m 5,23,-1
 403 914 l 6,33,-1
 487 914 487 914 531 939 c 4,31,32
 575 964 575 964 575 1015 c 4,29,30
 575 1065 575 1065 531 1090 c 4,27,28
 487 1116 487 1116 403 1116 c 6,25,26
 265 1116 l 5,24,-1
 265 914 l 5,23,-1
EndSplineSet
EndChar
StartChar: uni02B7
Encoding: 695 695 282
Width: 1172
VWidth: 2049
Flags: W
TeX: 117 0 0 0
Fore
60 1493 m 1,0,-1
 189 1493 l 1,1,-1
 350 969 l 1,2,-1
 510 1493 l 1,3,-1
 662 1493 l 1,4,-1
 823 969 l 1,5,-1
 983.5 1493 l 1,6,-1
 1112 1493 l 1,7,-1
 907 821 l 1,8,-1
 755 821 l 1,9,-1
 587 1372 l 1,10,-1
 417 821 l 1,11,-1
 265 821 l 1,12,-1
 60 1493 l 1,0,-1
EndSplineSet
EndChar
StartChar: uni02B8
Encoding: 696 696 283
Width: 848
VWidth: 1641
Flags: W
TeX: 117 0 0 0
Fore
461 759 m 1,0,1
 407 639 407 639 355 602 c 128,-1,2
 303 565 303 565 216 565 c 2,3,-1
 113 565 l 1,4,-1
 113 658 l 1,5,-1
 189 658 l 2,6,7
 242 658 242 658 272 679 c 128,-1,8
 301 701 301 701 337 781 c 1,9,-1
 360 832 l 1,10,-1
 43 1493 l 1,11,-1
 179 1493 l 1,12,-1
 424 967 l 1,13,-1
 669 1493 l 1,14,-1
 806 1493 l 1,15,-1
 461 759 l 1,0,1
EndSplineSet
EndChar
StartChar: afii64937
Encoding: 701 701 288
Width: 651
Flags: W
TeX: 97 0 0 0
VStem: 196 211<1582 1754>
Fore
407 1754 m 1,0,-1
 407 1582 l 1,1,-1
 489 1262 l 1,2,-1
 360 1262 l 1,3,-1
 196 1582 l 1,4,-1
 196 1754 l 1,5,-1
 407 1754 l 1,0,-1
EndSplineSet
EndChar
StartChar: uni02BE
Encoding: 702 702 289
Width: 1024
Flags: W
TeX: 117 0 0 0
Fore
375 1249 m 9,0,-1
 375 1372 l 17,1,2
 439 1372 439 1372 483 1416 c 128,-1,3
 527 1460 527 1460 527 1524 c 0,4,5
 527 1587 527 1587 483 1631 c 128,-1,6
 439 1675 439 1675 375 1675 c 9,7,-1
 375 1798 l 17,8,9
 490 1798 490 1798 570 1718 c 0,10,11
 649 1639 649 1639 649 1524 c 128,-1,12
 649 1409 649 1409 570 1329 c 0,13,14
 490 1249 490 1249 375 1249 c 9,0,-1
EndSplineSet
EndChar
StartChar: uni02BF
Encoding: 703 703 290
Width: 1024
Flags: W
TeX: 117 0 0 0
Fore
649 1798 m 9,0,-1
 649 1675 l 17,1,2
 585 1675 585 1675 541 1631 c 128,-1,3
 497 1587 497 1587 497 1523 c 0,4,5
 497 1460 497 1460 541 1416 c 128,-1,6
 585 1372 585 1372 649 1372 c 9,7,-1
 649 1249 l 17,8,9
 534 1249 534 1249 454 1329 c 0,10,11
 375 1408 375 1408 375 1523 c 128,-1,12
 375 1638 375 1638 454 1718 c 0,13,14
 534 1798 534 1798 649 1798 c 9,0,-1
EndSplineSet
EndChar
StartChar: uni02C0
Encoding: 704 704 291
Width: 1024
Flags: W
TeX: 117 0 0 0
Fore
342 1575 m 5,0,1
 265 1575 l 5,27,-1
 265 1669 265 1669 337 1733 c 4,25,26
 410 1798 410 1798 512 1798 c 4,23,24
 616 1798 616 1798 687 1733 c 4,21,22
 759 1667 759 1667 759 1575 c 4,19,20
 759 1483 759 1483 687 1418 c 4,17,18
 640 1375 640 1375 578 1360 c 13,15,16
 577 1262 l 5,14,-1
 447 1262 l 5,13,-1
 443 1414 l 29,12,-1
 492 1414 l 6,11,-1
 557 1414 557 1414 600 1454 c 4,9,10
 644 1494 644 1494 644 1551 c 132,-1,8
 644 1608 644 1608 600 1647 c 4,6,7
 556 1687 556 1687 492 1687 c 4,4,5
 427 1687 427 1687 384 1648 c 4,2,3
 350 1617 350 1617 342 1575 c 5,0,1
EndSplineSet
EndChar
StartChar: uni02C1
Encoding: 705 705 292
Width: 1024
Flags: W
TeX: 117 0 0 0
Fore
682 1575 m 1,0,1
 674 1617 674 1617 640 1648 c 0,2,3
 597 1687 597 1687 532 1687 c 0,4,5
 468 1687 468 1687 424 1647 c 0,6,7
 380 1608 380 1608 380 1551 c 128,-1,8
 380 1494 380 1494 424 1454 c 0,9,10
 467 1414 467 1414 532 1414 c 2,11,-1
 581 1414 l 25,12,-1
 577 1262 l 1,13,-1
 447 1262 l 1,14,-1
 446 1360 l 17,15,16
 384 1375 384 1375 337 1418 c 0,17,18
 265 1483 265 1483 265 1575 c 128,-1,20
 265 1667 265 1667 337 1733 c 0,21,22
 408 1798 408 1798 512 1798 c 0,23,24
 614 1798 614 1798 687 1733 c 0,25,26
 759 1669 759 1669 759 1575 c 1,27,-1
 682 1575 l 1,0,1
EndSplineSet
EndChar
StartChar: uni02C2
Encoding: 706 706 293
Width: 1024
Flags: W
TeX: 117 0 0 0
Fore
267 1467 m 1,0,-1
 757 1712 l 1,6,-1
 757 1573 l 1,5,-1
 398 1393 l 1,4,-1
 757 1213 l 1,3,-1
 757 1074 l 1,2,-1
 267 1319 l 1,1,-1
 267 1467 l 1,0,-1
EndSplineSet
EndChar
StartChar: uni02C3
Encoding: 707 707 294
Width: 1024
Flags: W
TeX: 117 0 0 0
Fore
757 1319 m 1,0,-1
 267 1074 l 1,6,-1
 267 1213 l 1,5,-1
 626 1393 l 1,4,-1
 267 1573 l 1,3,-1
 267 1712 l 1,2,-1
 757 1467 l 1,1,-1
 757 1319 l 1,0,-1
EndSplineSet
EndChar
StartChar: uni02C4
Encoding: 708 708 295
Width: 1024
Flags: W
TeX: 117 0 0 0
Fore
438 1148 m 1,0,-1
 193 1638 l 1,1,-1
 332 1638 l 1,2,-1
 512 1279 l 1,3,-1
 692 1638 l 1,4,-1
 831 1638 l 1,5,-1
 586 1148 l 1,6,-1
 438 1148 l 1,0,-1
EndSplineSet
EndChar
StartChar: uni02C5
Encoding: 709 709 296
Width: 1024
Flags: W
TeX: 117 0 0 0
Fore
438 1638 m 1,0,-1
 586 1638 l 1,1,-1
 831 1148 l 1,2,-1
 692 1148 l 1,3,-1
 512 1507 l 1,4,-1
 332 1148 l 1,5,-1
 193 1148 l 1,6,-1
 438 1638 l 1,0,-1
EndSplineSet
EndChar
StartChar: uni02C8
Encoding: 712 712 297
Width: 1024
Flags: W
TeX: 117 0 0 0
VStem: 438 150<1262 1638>
Fore
437 1638 m 1,0,-1
 587 1638 l 1,1,-1
 587 1262 l 1,2,-1
 437 1262 l 1,3,-1
 437 1638 l 1,0,-1
EndSplineSet
EndChar
StartChar: uni02CE
Encoding: 718 718 303
Width: 1024
Flags: W
TeX: 117 0 0 0
Fore
306 -89 m 1,0,-1
 775 -336 l 1,1,-1
 733 -426 l 1,2,-1
 242 -225 l 1,3,-1
 306 -89 l 1,0,-1
EndSplineSet
EndChar
StartChar: uni02CF
Encoding: 719 719 304
Width: 1024
Flags: W
TeX: 117 0 0 0
Fore
719 -89 m 1,0,-1
 783 -225 l 1,1,-1
 292 -426 l 1,2,-1
 250 -336 l 1,3,-1
 719 -89 l 1,0,-1
EndSplineSet
EndChar
StartChar: uni02D0
Encoding: 720 720 305
Width: 690
Flags: W
TeX: 117 0 0 0
Fore
345 729 m 1,0,-1
 177 1059 l 1,1,-1
 514 1059 l 1,2,-1
 345 729 l 1,0,-1
345 330 m 1,3,-1
 514 0 l 1,4,-1
 177 0 l 1,5,-1
 345 330 l 1,3,-1
EndSplineSet
EndChar
StartChar: uni02D1
Encoding: 721 721 306
Width: 690
Flags: W
TeX: 117 0 0 0
Fore
345 729 m 1,0,-1
 177 1059 l 1,1,-1
 514 1059 l 1,2,-1
 345 729 l 1,0,-1
EndSplineSet
EndChar
StartChar: uni02D3
Encoding: 723 723 308
Width: 1024
Flags: W
TeX: 117 0 0 0
Fore
649 -60 m 13,0,-1
 649 -183 l 21,1,2
 585 -183 585 -183 541 -227 c 132,-1,3
 497 -271 497 -271 497 -335 c 4,4,5
 497 -398 497 -398 541 -442 c 132,-1,6
 585 -486 585 -486 649 -486 c 13,7,-1
 649 -609 l 21,8,9
 534 -609 534 -609 454 -529 c 4,10,11
 375 -450 375 -450 375 -335 c 132,-1,12
 375 -220 375 -220 454 -140 c 4,13,14
 534 -60 534 -60 649 -60 c 13,0,-1
EndSplineSet
EndChar
StartChar: uni02D4
Encoding: 724 724 309
Width: 1024
Flags: W
TeX: 117 0 0 0
Fore
737 -342 m 5,0,-1
 737 -492 l 5,1,-1
 287 -492 l 5,2,-1
 287 -342 l 5,3,-1
 437 -342 l 5,4,-1
 437 -42 l 5,5,-1
 587 -42 l 5,6,-1
 587 -342 l 5,7,-1
 737 -342 l 5,0,-1
EndSplineSet
EndChar
StartChar: uni02D5
Encoding: 725 725 310
Width: 1024
Flags: W
TeX: 117 0 0 0
Fore
287 -192 m 5,0,-1
 287 -42 l 5,1,-1
 737 -42 l 5,2,-1
 737 -192 l 5,3,-1
 587 -192 l 5,4,-1
 587 -492 l 5,5,-1
 437 -492 l 5,6,-1
 437 -192 l 5,7,-1
 287 -192 l 5,0,-1
EndSplineSet
EndChar
StartChar: uni02D6
Encoding: 726 726 311
Width: 1024
Flags: W
TeX: 117 0 0 0
Fore
737 -342 m 21,0,-1
 587 -342 l 5,1,-1
 587 -492 l 5,2,-1
 437 -492 l 5,3,-1
 437 -342 l 5,4,-1
 287 -342 l 5,5,-1
 287 -192 l 5,6,-1
 437 -192 l 5,7,-1
 437 -42 l 5,8,-1
 587 -42 l 5,9,-1
 587 -192 l 5,10,-1
 737 -192 l 13,11,-1
 737 -342 l 21,0,-1
EndSplineSet
EndChar
StartChar: uni02D7
Encoding: 727 727 312
Width: 1024
Flags: W
TeX: 117 0 0 0
Fore
737 -342 m 29,0,-1
 287 -342 l 21,1,-1
 287 -192 l 5,2,-1
 737 -192 l 13,3,-1
 737 -342 l 29,0,-1
EndSplineSet
EndChar
StartChar: uni02DE
Encoding: 734 734 313
Width: 608
Flags: W
TeX: 117 0 0 0
Fore
134 874 m 9,0,0
 -170 677 l 25,0,0
 -214 809 l 25,0,0
 310 1147 l 9,0,0
 372 1027 l 9,0,0
 315 989 315 989 315 885 c 0,11,-1
 315 820 315 820 355 777 c 0,9,10
 395 733 395 733 452 733 c 128,-1,8
 509 733 509 733 548 777 c 9,6,7
 624 670 l 17,21,22
 558 598 558 598 434 598 c 0,19,20
 331 598 331 598 243 670 c 0,17,18
 206 700 206 700 161 779 c 0,15,16
 143 811 143 811 134 874 c 9,0,0
EndSplineSet
EndChar
StartChar: uni02DF
Encoding: 735 735 314
Width: 1024
Flags: W
TeX: 117 0 0 0
Fore
604 1262 m 5,0,-1
 512 1359 l 5,1,-1
 419 1262 l 5,2,-1
 239 1262 l 5,3,-1
 420 1449 l 5,4,-1
 239 1638 l 5,5,-1
 419 1638 l 5,6,-1
 512 1542 l 5,7,-1
 604 1638 l 5,8,-1
 784 1638 l 5,9,-1
 602 1449 l 5,10,-1
 784 1262 l 5,11,-1
 604 1262 l 5,0,-1
EndSplineSet
EndChar
StartChar: uni02E0
Encoding: 736 736 315
Width: 848
VWidth: 1641
Flags: W
TeX: 117 0 0 0
Fore
426 924 m 5,0,1
 342 791 342 791 342 755 c 4,2,3
 342 661 342 661 426 661 c 28,4,5
 509 661 509 661 509 755 c 4,6,7
 509 796 509 796 426 924 c 5,0,1
507 1050 m 5,8,9
 638 842 638 842 638 771 c 4,10,11
 638 565 638 565 426 565 c 156,-1,13
 214 565 214 565 214 771 c 4,14,15
 214 840 214 840 346 1051 c 5,16,-1
 67 1493 l 5,17,-1
 226 1493 l 5,18,-1
 427 1171 l 5,19,-1
 628 1493 l 5,20,-1
 787 1493 l 5,21,-1
 507 1050 l 5,8,9
EndSplineSet
EndChar
StartChar: uni02E1
Encoding: 737 737 316
Width: 398
VWidth: 1745
Flags: W
TeX: 117 0 0 0
Fore
135 1755 m 1,0,-1
 264 1755 l 1,1,-1
 264 821 l 1,2,-1
 135 821 l 1,3,-1
 135 1755 l 1,0,-1
EndSplineSet
EndChar
StartChar: uni02E2
Encoding: 738 738 317
Width: 746
VWidth: 1692
Flags: W
TeX: 117 0 0 0
Fore
635 1473 m 1,0,-1
 635 1369 l 1,1,2
 580 1393 580 1393 522 1405 c 128,-1,3
 463 1417 463 1417 400 1417 c 0,4,5
 304 1417 304 1417 256 1392 c 128,-1,6
 208 1366 208 1366 208 1316 c 0,7,8
 208 1278 208 1278 242 1256 c 128,-1,9
 276 1234 276 1234 380 1214 c 2,10,-1
 424 1206 l 2,11,12
 561 1180 561 1180 619 1134 c 128,-1,13
 677 1089 677 1089 677 1006 c 0,14,15
 677 913 677 913 590 858 c 128,-1,16
 504 804 504 804 353 804 c 0,17,18
 290 804 290 804 222 814 c 128,-1,19
 153 825 153 825 78 846 c 1,20,-1
 78 960 l 1,21,22
 149 928 149 928 218 912 c 128,-1,23
 288 896 288 896 356 896 c 0,24,25
 447 896 447 896 496 923 c 128,-1,26
 545 949 545 949 545 998 c 0,27,28
 545 1043 545 1043 509 1067 c 128,-1,29
 474 1091 474 1091 354 1113 c 2,30,-1
 309 1122 l 1,31,32
 190 1144 190 1144 136 1188 c 128,-1,33
 83 1233 83 1233 83 1311 c 0,34,35
 83 1406 83 1406 162 1458 c 128,-1,36
 240 1509 240 1509 384 1509 c 0,37,38
 456 1509 456 1509 519 1500 c 128,-1,39
 582 1491 582 1491 635 1473 c 1,0,-1
EndSplineSet
EndChar
StartChar: uni02E3
Encoding: 739 739 318
Width: 848
VWidth: 1692
Flags: W
TeX: 117 0 0 0
Fore
787 1493 m 1,0,-1
 503 1166 l 1,1,-1
 802 821 l 1,2,-1
 650 821 l 1,3,-1
 421 1085 l 1,4,-1
 193 821 l 1,5,-1
 41 821 l 1,6,-1
 346 1173 l 1,7,-1
 67 1493 l 1,8,-1
 219 1493 l 1,9,-1
 427 1254 l 1,10,-1
 635 1493 l 1,11,-1
 787 1493 l 1,0,-1
EndSplineSet
EndChar
StartChar: uni02E4
Encoding: 740 740 319
Width: 760
VWidth: 1740
Flags: W
TeX: 117 0 0 0
Fore
349 821 m 1,4,-1
 349 1135 l 2,36,-1
 349 1167 349 1167 347 1185 c 128,-1,35
 345 1203 345 1203 341 1215 c 0,33,34
 335 1230 335 1230 322 1246 c 128,-1,32
 306 1264 306 1264 275 1290 c 2,30,31
 214 1342 l 2,29,-1
 149 1396 149 1396 125 1434 c 128,-1,28
 100 1476 100 1476 100 1521 c 0,26,27
 100 1617 100 1617 178 1675 c 128,-1,25
 256 1733 256 1733 385 1733 c 0,23,24
 457 1733 457 1733 525 1716 c 128,-1,22
 592 1699 592 1699 658 1665 c 1,20,21
 658 1552 l 1,19,-1
 590 1593 590 1593 528 1614 c 128,-1,18
 465 1635 465 1635 410 1635 c 0,16,17
 334 1635 334 1635 288 1602 c 128,-1,15
 242 1569 242 1569 242 1515 c 0,13,14
 242 1486 242 1486 260 1458 c 128,-1,12
 278 1429 278 1429 318 1398 c 1,10,11
 381 1344 l 1,9,-1
 444 1293 444 1293 463 1254 c 128,-1,8
 483 1215 483 1215 483 1154 c 2,6,7
 483 821 l 1,5,-1
 349 821 l 1,4,-1
EndSplineSet
EndChar
StartChar: uni02E5
Encoding: 741 741 320
Width: 899
Flags: W
TeX: 117 0 0 0
Fore
723 0 m 9,1,-1
 558 0 l 17,4,-1
 558 1328 l 1,5,-1
 201 1328 l 1,6,-1
 201 1493 l 1,7,-1
 723 1493 l 1,0,-1
 723 0 l 9,1,-1
EndSplineSet
EndChar
StartChar: uni02E6
Encoding: 742 742 321
Width: 899
Flags: W
TeX: 117 0 0 0
Fore
561 1161 m 25,0,0
 561 1493 l 25,0,0
 723 1493 l 1,0,-1
 723 0 l 9,1,-1
 558 0 l 17,4,-1
 558 996 l 1,5,-1
 201 996 l 1,6,-1
 201 1161 l 1,7,-1
 561 1161 l 25,0,0
EndSplineSet
EndChar
StartChar: uni02E7
Encoding: 743 743 322
Width: 899
Flags: W
TeX: 117 0 0 0
Fore
561 829 m 25,0,0
 561 1493 l 25,0,0
 723 1493 l 1,0,-1
 723 0 l 9,1,-1
 558 0 l 17,4,-1
 558 664 l 1,5,-1
 201 664 l 1,6,-1
 201 829 l 1,7,-1
 561 829 l 25,0,0
EndSplineSet
EndChar
StartChar: uni02E8
Encoding: 744 744 323
Width: 899
Flags: W
TeX: 117 0 0 0
Fore
561 497 m 25,0,0
 561 1493 l 25,0,0
 723 1493 l 1,0,-1
 723 0 l 9,1,-1
 558 0 l 17,4,-1
 558 332 l 1,5,-1
 201 332 l 1,6,-1
 201 497 l 1,7,-1
 561 497 l 25,0,0
EndSplineSet
EndChar
StartChar: uni02E9
Encoding: 745 745 324
Width: 899
Flags: W
TeX: 117 0 0 0
Fore
723 1493 m 17,1,-1
 723 0 l 1,0,-1
 201 0 l 1,7,-1
 201 165 l 1,6,-1
 558 165 l 1,5,-1
 558 1493 l 9,4,-1
 723 1493 l 17,1,-1
EndSplineSet
EndChar
StartChar: uni02EE
Encoding: 750 750 327
Width: 1024
Flags: W
TeX: 117 0 0 0
Fore
277 1638 m 5,0,-1
 427 1638 l 5,1,-1
 427 1262 l 5,2,-1
 277 1262 l 5,3,-1
 277 1638 l 5,0,-1
597 1638 m 5,4,-1
 747 1638 l 5,5,-1
 747 1262 l 5,6,-1
 597 1262 l 5,7,-1
 597 1638 l 5,4,-1
EndSplineSet
EndChar
StartChar: uni0305
Encoding: 773 773 333
Width: 0
Flags: W
TeX: 117 0 0 0
HStem: 1378 148<-1185 -67>
AnchorPoint: "TopMkMk" -626 1242 mark 0
AnchorPoint: "TopMkMk" -626 1660 basemark 0
AnchorPoint: "Top" -626 1142 mark 0
Fore
-1185 1526 m 1,0,-1
 -67 1526 l 1,1,-1
 -67 1378 l 1,2,-1
 -1185 1378 l 1,3,-1
 -1185 1526 l 1,0,-1
EndSplineSet
EndChar
StartChar: hookabovecomb
Encoding: 777 777 337
Width: 0
Flags: W
TeX: 104 0 0 0
AnchorPoint: "TopMkMk" -626 1220 mark 0
AnchorPoint: "TopMkMk" -626 1738 basemark 0
AnchorPoint: "Top" -626 1120 mark 0
Fore
-796 1575 m 1,0,1
 -873 1575 l 1,27,-1
 -873 1669 -873 1669 -801 1733 c 0,25,26
 -728 1798 -728 1798 -626 1798 c 0,23,24
 -522 1798 -522 1798 -451 1733 c 0,21,22
 -379 1667 -379 1667 -379 1575 c 0,19,20
 -379 1483 -379 1483 -451 1418 c 0,17,18
 -498 1375 -498 1375 -560 1360 c 9,15,16
 -561 1262 l 1,14,-1
 -691 1262 l 1,13,-1
 -695 1414 l 25,12,-1
 -646 1414 l 2,11,-1
 -581 1414 -581 1414 -538 1454 c 0,9,10
 -494 1494 -494 1494 -494 1551 c 128,-1,8
 -494 1608 -494 1608 -538 1647 c 0,6,7
 -582 1687 -582 1687 -646 1687 c 0,4,5
 -711 1687 -711 1687 -754 1648 c 0,2,3
 -788 1617 -788 1617 -796 1575 c 1,0,1
EndSplineSet
EndChar
StartChar: uni030E
Encoding: 782 782 342
Width: 0
Flags: W
TeX: 117 0 0 0
VStem: -861 150<1262 1638> -541 150<1262 1638>
AnchorPoint: "TopMkMk" -626 1220 mark 0
AnchorPoint: "TopMkMk" -626 1638 basemark 0
AnchorPoint: "Top" -626 1120 mark 0
Fore
-861 1638 m 1,0,-1
 -711 1638 l 1,1,-1
 -711 1262 l 1,2,-1
 -861 1262 l 1,3,-1
 -861 1638 l 1,0,-1
-541 1638 m 1,4,-1
 -391 1638 l 1,5,-1
 -391 1262 l 1,6,-1
 -541 1262 l 1,7,-1
 -541 1638 l 1,4,-1
EndSplineSet
EndChar
StartChar: uni030F
Encoding: 783 783 343
Width: 0
Flags: W
TeX: 117 0 0 0
AnchorPoint: "TopMkMk" -626 1220 mark 0
AnchorPoint: "TopMkMk" -626 1638 basemark 0
AnchorPoint: "Top" -626 1120 mark 0
Fore
-878 1638 m 1,0,-1
 -673 1262 l 1,1,-1
 -808 1262 l 1,2,-1
 -1056 1638 l 1,3,-1
 -878 1638 l 1,0,-1
-544 1638 m 1,4,-1
 -354 1262 l 1,5,-1
 -491 1262 l 1,6,-1
 -714 1638 l 1,7,-1
 -544 1638 l 1,4,-1
EndSplineSet
EndChar
StartChar: uni0318
Encoding: 792 792 352
Width: 0
Flags: W
TeX: 117 0 0 0
HStem: -342 150<-851 -551>
VStem: -551 150<-492 -42>
AnchorPoint: "BottomMkMk" -626 0 mark 0
AnchorPoint: "BottomMkMk" -626 -493 basemark 0
AnchorPoint: "Bottom" -626 0 mark 0
Fore
-551 -42 m 1,0,-1
 -401 -42 l 1,1,-1
 -401 -492 l 1,2,-1
 -551 -492 l 1,3,-1
 -551 -342 l 1,4,-1
 -851 -342 l 1,5,-1
 -851 -192 l 1,6,-1
 -551 -192 l 1,7,-1
 -551 -42 l 1,0,-1
EndSplineSet
EndChar
StartChar: uni0319
Encoding: 793 793 353
Width: 0
Flags: W
TeX: 117 0 0 0
HStem: -342 150<-701 -401>
VStem: -851 150<-492 -42>
AnchorPoint: "BottomMkMk" -626 0 mark 0
AnchorPoint: "BottomMkMk" -626 -493 basemark 0
AnchorPoint: "Bottom" -626 0 mark 0
Fore
-701 -42 m 1,0,-1
 -701 -192 l 1,1,-1
 -401 -192 l 1,2,-1
 -401 -342 l 1,3,-1
 -701 -342 l 1,4,-1
 -701 -492 l 1,5,-1
 -851 -492 l 1,6,-1
 -851 -42 l 1,7,-1
 -701 -42 l 1,0,-1
EndSplineSet
EndChar
StartChar: uni031A
Encoding: 794 794 354
Width: 0
Flags: W
TeX: 117 0 0 0
AnchorPoint: "TopMkMk" -626 1220 mark 0
AnchorPoint: "TopMkMk" -626 1638 basemark 0
AnchorPoint: "Top" -626 1120 mark 0
Fore
-314 1638 m 1,0,-1
 -314 1262 l 1,1,-1
 -464 1262 l 1,2,-1
 -464 1488 l 1,3,-1
 -940 1488 l 1,4,-1
 -940 1638 l 1,5,-1
 -314 1638 l 1,0,-1
EndSplineSet
EndChar
StartChar: uni031B
Encoding: 795 795 355
Width: 105
Flags: W
TeX: 117 0 0 0
AnchorPoint: "Cedilla" -627 0 mark 0
AnchorPoint: "Horn" -208 1001 mark 0
Fore
-251 1068 m 25,12,-1
 -182 1068 l 2,11,-1
 -117 1068 -117 1068 -74 1108 c 0,9,10
 -30 1148 -30 1148 -30 1205 c 128,-1,8
 -30 1262 -30 1262 -74 1301 c 9,6,7
 33 1377 l 17,21,22
 105 1311 105 1311 105 1219 c 0,19,20
 105 1127 105 1127 33 1062 c 0,17,18
 -15 1018 -15 1018 -76 1004 c 0,15,16
 -121 994 -121 994 -251 994 c 9,0,0
 -251 1068 l 25,12,-1
EndSplineSet
EndChar
StartChar: uni031C
Encoding: 796 796 356
Width: 0
Flags: W
TeX: 117 0 0 0
AnchorPoint: "BottomMkMk" -626 0 mark 0
AnchorPoint: "BottomMkMk" -626 -493 basemark 0
AnchorPoint: "Bottom" -626 0 mark 0
Fore
-489 -60 m 9,0,-1
 -489 -183 l 17,1,2
 -553 -183 -553 -183 -597 -227 c 128,-1,3
 -641 -271 -641 -271 -641 -335 c 0,4,5
 -641 -398 -641 -398 -597 -442 c 128,-1,6
 -553 -486 -553 -486 -489 -486 c 9,7,-1
 -489 -609 l 17,8,9
 -604 -609 -604 -609 -684 -529 c 0,10,11
 -763 -450 -763 -450 -763 -335 c 128,-1,12
 -763 -220 -763 -220 -684 -140 c 0,13,14
 -604 -60 -604 -60 -489 -60 c 9,0,-1
EndSplineSet
EndChar
StartChar: uni031D
Encoding: 797 797 357
Width: 0
Flags: W
TeX: 117 0 0 0
HStem: -492 150<-851 -401>
VStem: -701 150<-342 -42>
AnchorPoint: "BottomMkMk" -626 0 mark 0
AnchorPoint: "BottomMkMk" -626 -493 basemark 0
AnchorPoint: "Bottom" -626 0 mark 0
Fore
-401 -342 m 1,0,-1
 -401 -492 l 1,1,-1
 -851 -492 l 1,2,-1
 -851 -342 l 1,3,-1
 -701 -342 l 1,4,-1
 -701 -42 l 1,5,-1
 -551 -42 l 1,6,-1
 -551 -342 l 1,7,-1
 -401 -342 l 1,0,-1
EndSplineSet
EndChar
StartChar: uni031E
Encoding: 798 798 358
Width: 0
Flags: W
TeX: 117 0 0 0
HStem: -192 150<-851 -401>
VStem: -701 150<-492 -192>
AnchorPoint: "BottomMkMk" -626 0 mark 0
AnchorPoint: "BottomMkMk" -626 -493 basemark 0
AnchorPoint: "Bottom" -626 0 mark 0
Fore
-851 -192 m 1,0,-1
 -851 -42 l 1,1,-1
 -401 -42 l 1,2,-1
 -401 -192 l 1,3,-1
 -551 -192 l 1,4,-1
 -551 -492 l 1,5,-1
 -701 -492 l 1,6,-1
 -701 -192 l 1,7,-1
 -851 -192 l 1,0,-1
EndSplineSet
EndChar
StartChar: uni031F
Encoding: 799 799 359
Width: 0
Flags: W
TeX: 117 0 0 0
HStem: -342 150<-851 -701 -551 -401>
VStem: -701 150<-492 -342 -192 -42>
AnchorPoint: "BottomMkMk" -626 0 mark 0
AnchorPoint: "BottomMkMk" -626 -493 basemark 0
AnchorPoint: "Bottom" -626 0 mark 0
Fore
-401 -342 m 17,0,-1
 -551 -342 l 1,1,-1
 -551 -492 l 1,2,-1
 -701 -492 l 1,3,-1
 -701 -342 l 1,4,-1
 -851 -342 l 1,5,-1
 -851 -192 l 1,6,-1
 -701 -192 l 1,7,-1
 -701 -42 l 1,8,-1
 -551 -42 l 1,9,-1
 -551 -192 l 1,10,-1
 -401 -192 l 9,11,-1
 -401 -342 l 17,0,-1
EndSplineSet
EndChar
StartChar: uni0320
Encoding: 800 800 360
Width: 0
Flags: W
TeX: 117 0 0 0
HStem: -342 150<-851 -401>
AnchorPoint: "BottomMkMk" -626 0 mark 0
AnchorPoint: "BottomMkMk" -626 -493 basemark 0
AnchorPoint: "Bottom" -626 0 mark 0
Fore
-401 -342 m 25,0,-1
 -851 -342 l 17,1,-1
 -851 -192 l 1,2,-1
 -401 -192 l 9,3,-1
 -401 -342 l 25,0,-1
EndSplineSet
EndChar
StartChar: uni0321
Encoding: 801 801 361
Width: 0
Flags: W
TeX: 117 0 0 0
Fore
-127 420 m 25,0,-1
 -127 -70 l 18,1,2
 -127 -189 -127 -189 -157 -245 c 0,3,4
 -196 -319 -196 -319 -239 -354 c 0,5,6
 -327 -426 -327 -426 -431 -426 c 0,7,8
 -555 -426 -555 -426 -621 -354 c 9,9,-1
 -545 -247 l 17,10,11
 -506 -291 -506 -291 -449 -291 c 0,12,13
 -384 -291 -384 -291 -352 -247 c 0,14,15
 -312 -191 -312 -191 -312 -139 c 10,16,-1
 -312 420 l 25,17,-1
 -127 420 l 25,0,-1
EndSplineSet
EndChar
StartChar: uni0322
Encoding: 802 802 362
Width: 0
Flags: W
TeX: 117 0 0 0
HStem: -426 135<-369 -255>
VStem: -621 185<-165 -70>
Fore
-312 420 m 25,0,-1
 -127 420 l 25,17,-1
 -127 -139 l 18,16,-1
 -127 -191 -127 -191 -87 -247 c 0,14,15
 -55 -291 -55 -291 10 -291 c 0,12,13
 67 -291 67 -291 106 -247 c 9,10,11
 182 -354 l 17,9,-1
 116 -426 116 -426 -8 -426 c 0,7,8
 -112 -426 -112 -426 -200 -354 c 0,5,6
 -243 -319 -243 -319 -282 -245 c 0,3,4
 -312 -189 -312 -189 -312 -70 c 10,1,2
 -312 420 l 25,0,-1
EndSplineSet
EndChar
StartChar: uni0326
Encoding: 806 806 366
Width: 0
Flags: W
TeX: 117 0 0 0
AnchorPoint: "BottomMkMk" -626 0 mark 0
AnchorPoint: "BottomMkMk" -626 -493 basemark 0
AnchorPoint: "Bottom" -626 0 mark 0
Fore
-731 -124 m 1,0,-1
 -520 -124 l 1,1,-1
 -520 -238 l 1,2,-1
 -684 -492 l 1,3,-1
 -813 -492 l 1,4,-1
 -731 -238 l 1,5,-1
 -731 -124 l 1,0,-1
EndSplineSet
EndChar
StartChar: uni032A
Encoding: 810 810 370
Width: 0
Flags: W
TeX: 117 0 0 0
HStem: -267 150<-925 -327>
VStem: -925 150<-417 -117> -477 150<-417 -267>
AnchorPoint: "BottomMkMk" -626 0 mark 0
AnchorPoint: "BottomMkMk" -626 -493 basemark 0
AnchorPoint: "Bottom" -626 0 mark 0
Fore
-327 -417 m 1,0,-1
 -477 -417 l 1,1,-1
 -477 -267 l 1,2,-1
 -775 -267 l 1,3,-1
 -775 -417 l 1,4,-1
 -925 -417 l 1,5,-1
 -925 -117 l 1,6,-1
 -327 -117 l 1,7,-1
 -327 -417 l 1,0,-1
EndSplineSet
EndChar
StartChar: uni032B
Encoding: 811 811 371
Width: 0
Flags: W
TeX: 117 0 0 0
AnchorPoint: "BottomMkMk" -626 0 mark 0
AnchorPoint: "BottomMkMk" -626 -493 basemark 0
AnchorPoint: "Bottom" -626 0 mark 0
Fore
-565 -130 m 17,0,1
 -565 -194 -565 -194 -521 -238 c 128,-1,2
 -477 -282 -477 -282 -433 -282 c 128,-1,3
 -389 -282 -389 -282 -345 -238 c 128,-1,4
 -301 -194 -301 -194 -301 -130 c 9,5,-1
 -179 -130 l 17,6,7
 -179 -242 -179 -242 -259 -324 c 0,8,9
 -337 -404 -337 -404 -433 -404 c 0,10,11
 -515 -404 -515 -404 -607 -324 c 0,12,13
 -628 -306 -628 -306 -626 -304 c 1,14,15
 -635 -314 -635 -314 -645 -324 c 0,16,17
 -723 -404 -723 -404 -819 -404 c 0,18,19
 -913 -404 -913 -404 -993 -324 c 128,-1,20
 -1073 -244 -1073 -244 -1073 -130 c 9,21,-1
 -951 -130 l 17,22,23
 -951 -194 -951 -194 -907 -238 c 128,-1,24
 -863 -282 -863 -282 -819 -282 c 128,-1,25
 -775 -282 -775 -282 -731 -238 c 128,-1,26
 -687 -194 -687 -194 -687 -130 c 9,27,-1
 -565 -130 l 17,0,1
EndSplineSet
EndChar
StartChar: uni0337
Encoding: 823 823 383
Width: 0
Flags: W
TeX: 117 0 0 0
Fore
-1086 -94 m 17,0,-1
 -1182 -16 l 1,1,-1
 -169 1212 l 1,2,-1
 -74 1133 l 9,3,-1
 -1086 -94 l 17,0,-1
EndSplineSet
EndChar
StartChar: uni0338
Encoding: 824 824 384
Width: 0
Flags: W
TeX: 117 0 0 0
HStem: -29 164<807 839> 1356 164<807 839>
VStem: 115 213<745 779> 1284 213<745 795>
Fore
-1407 -70 m 17,0,-1
 -1510 18 l 1,1,-1
 -205 1559 l 1,2,-1
 -103 1470 l 9,3,-1
 -1407 -70 l 17,0,-1
EndSplineSet
EndChar
StartChar: uni033A
Encoding: 826 826 386
Width: 0
Flags: W
TeX: 117 0 0 0
HStem: -417 150<-925 -327>
VStem: -925 150<-267 -117> -477 150<-417 -117>
AnchorPoint: "BottomMkMk" -626 0 mark 0
AnchorPoint: "BottomMkMk" -626 -493 basemark 0
AnchorPoint: "Bottom" -626 0 mark 0
Fore
-327 -117 m 1,0,-1
 -327 -417 l 1,1,-1
 -925 -417 l 1,2,-1
 -925 -117 l 1,3,-1
 -775 -117 l 1,4,-1
 -775 -267 l 1,5,-1
 -477 -267 l 1,6,-1
 -477 -117 l 1,7,-1
 -327 -117 l 1,0,-1
EndSplineSet
EndChar
StartChar: uni033B
Encoding: 827 827 387
Width: 0
Flags: W
TeX: 117 0 0 0
HStem: -492 150<-851 -401> -192 150<-851 -401>
VStem: -851 150<-492 -42> -551 150<-492 -42>
AnchorPoint: "BottomMkMk" -626 0 mark 0
AnchorPoint: "BottomMkMk" -626 -493 basemark 0
AnchorPoint: "Bottom" -626 0 mark 0
Fore
-851 -42 m 17,0,-1
 -401 -42 l 1,1,-1
 -401 -492 l 1,2,-1
 -851 -492 l 9,3,-1
 -851 -42 l 17,0,-1
-701 -192 m 9,4,-1
 -701 -342 l 17,5,-1
 -551 -342 l 1,6,-1
 -551 -192 l 1,7,-1
 -701 -192 l 9,4,-1
EndSplineSet
EndChar
StartChar: uni033C
Encoding: 828 828 388
Width: 0
Flags: W
TeX: 117 0 0 0
HStem: -252 122<-866 -771 -474 -385>
AnchorPoint: "BottomMkMk" -626 0 mark 0
AnchorPoint: "BottomMkMk" -626 -493 basemark 0
AnchorPoint: "Bottom" -626 0 mark 0
Fore
-565 -374 m 9,0,-1
 -687 -374 l 17,1,2
 -687 -320 -687 -320 -731 -276 c 0,3,4
 -755 -252 -755 -252 -829 -252 c 0,5,6
 -893 -252 -893 -252 -937 -296 c 0,7,8
 -991 -350 -991 -350 -991 -404 c 9,9,-1
 -1073 -404 l 17,10,11
 -1073 -290 -1073 -290 -993 -210 c 128,-1,12
 -913 -130 -913 -130 -819 -130 c 0,13,14
 -723 -130 -723 -130 -645 -210 c 0,15,16
 -635 -220 -635 -220 -626 -230 c 1,17,18
 -628 -228 -628 -228 -607 -210 c 0,19,20
 -515 -130 -515 -130 -433 -130 c 0,21,22
 -337 -130 -337 -130 -259 -210 c 0,23,24
 -179 -292 -179 -292 -179 -404 c 9,25,-1
 -261 -404 l 17,26,27
 -261 -344 -261 -344 -315 -296 c 0,28,29
 -364 -252 -364 -252 -423 -252 c 0,30,31
 -499 -252 -499 -252 -521 -276 c 0,32,33
 -565 -325 -565 -325 -565 -374 c 9,0,-1
EndSplineSet
EndChar
StartChar: uni033D
Encoding: 829 829 389
Width: 0
Flags: W
TeX: 117 0 0 0
AnchorPoint: "TopMkMk" -626 1220 mark 0
AnchorPoint: "TopMkMk" -626 1638 basemark 0
AnchorPoint: "Top" -626 1120 mark 0
Fore
-534 1262 m 1,0,-1
 -626 1359 l 1,1,-1
 -719 1262 l 1,2,-1
 -899 1262 l 1,3,-1
 -718 1449 l 1,4,-1
 -899 1638 l 1,5,-1
 -719 1638 l 1,6,-1
 -626 1542 l 1,7,-1
 -534 1638 l 1,8,-1
 -354 1638 l 1,9,-1
 -536 1449 l 1,10,-1
 -354 1262 l 1,11,-1
 -534 1262 l 1,0,-1
EndSplineSet
EndChar
StartChar: uni033E
Encoding: 830 830 390
Width: 0
Flags: W
TeX: 117 0 0 0
AnchorPoint: "TopMkMk" -626 1220 mark 0
AnchorPoint: "TopMkMk" -626 1738 basemark 0
AnchorPoint: "Top" -626 1120 mark 0
Fore
-706 1546 m 1,0,1
 -739 1583 -739 1583 -753 1615 c 128,-1,2
 -767 1647 -767 1647 -767 1685 c 0,3,4
 -767 1776 -767 1776 -694 1827 c 0,5,6
 -620 1878 -620 1878 -485 1880 c 1,7,-1
 -485 1755 l 1,8,9
 -567 1753 -567 1753 -604 1735 c 0,10,11
 -640 1717 -640 1717 -640 1679 c 0,12,13
 -640 1666 -640 1666 -630 1650 c 0,14,15
 -621 1633 -621 1633 -601 1611 c 2,16,-1
 -546 1554 l 1,17,18
 -513 1517 -513 1517 -499 1485 c 128,-1,19
 -485 1453 -485 1453 -485 1415 c 0,20,21
 -485 1324 -485 1324 -558 1273 c 0,22,23
 -632 1222 -632 1222 -767 1220 c 1,24,-1
 -767 1345 l 1,25,26
 -685 1347 -685 1347 -648 1365 c 0,27,28
 -612 1383 -612 1383 -612 1421 c 0,29,30
 -612 1434 -612 1434 -622 1450 c 0,31,32
 -631 1467 -631 1467 -651 1489 c 2,33,-1
 -706 1546 l 1,0,1
EndSplineSet
EndChar
StartChar: uni0346
Encoding: 838 838 392
Width: 0
Flags: W
TeX: 117 0 0 0
HStem: 1459 150<-925 -327>
VStem: -925 150<1309 1609> -477 150<1309 1459>
AnchorPoint: "Top" -626 1142 mark 0
AnchorPoint: "TopMkMk" -626 1660 basemark 0
AnchorPoint: "TopMkMk" -626 1242 mark 0
Fore
-327 1309 m 1,0,-1
 -477 1309 l 1,1,-1
 -477 1459 l 1,2,-1
 -775 1459 l 1,3,-1
 -775 1309 l 1,4,-1
 -925 1309 l 1,5,-1
 -925 1609 l 1,6,-1
 -327 1609 l 1,7,-1
 -327 1309 l 1,0,-1
EndSplineSet
EndChar
StartChar: uni0347
Encoding: 839 839 393
Width: 0
Flags: W
TeX: 117 0 0 0
HStem: -462 120<-851 -401> -192 120<-851 -401>
AnchorPoint: "BottomMkMk" -626 0 mark 0
AnchorPoint: "BottomMkMk" -626 -463 basemark 0
AnchorPoint: "Bottom" -626 0 mark 0
Fore
-401 -462 m 25,0,-1
 -851 -462 l 17,1,-1
 -851 -342 l 1,2,-1
 -401 -342 l 9,3,-1
 -401 -462 l 25,0,-1
-401 -192 m 25,4,-1
 -851 -192 l 17,5,-1
 -851 -72 l 1,6,-1
 -401 -72 l 9,7,-1
 -401 -192 l 25,4,-1
EndSplineSet
EndChar
StartChar: uni0348
Encoding: 840 840 394
Width: 0
Flags: W
TeX: 117 0 0 0
AnchorPoint: "Bottom" -626 0 mark 0
AnchorPoint: "BottomMkMk" -626 -463 basemark 0
AnchorPoint: "BottomMkMk" -626 0 mark 0
Fore
-861 -116 m 1,0,-1
 -711 -116 l 1,1,-1
 -711 -492 l 1,2,-1
 -861 -492 l 1,3,-1
 -861 -116 l 1,0,-1
-541 -116 m 1,4,-1
 -391 -116 l 1,5,-1
 -391 -492 l 1,6,-1
 -541 -492 l 1,7,-1
 -541 -116 l 1,4,-1
EndSplineSet
EndChar
StartChar: uni0349
Encoding: 841 841 395
Width: 0
Flags: W
TeX: 117 0 0 0
HStem: -192 150<-851 -401>
VStem: -551 150<-492 -42>
AnchorPoint: "Bottom" -626 0 mark 0
AnchorPoint: "BottomMkMk" -626 -463 basemark 0
AnchorPoint: "BottomMkMk" -626 0 mark 0
Fore
-851 -42 m 1,0,-1
 -401 -42 l 1,1,-1
 -401 -492 l 1,2,-1
 -551 -492 l 1,3,-1
 -551 -192 l 1,4,-1
 -851 -192 l 1,5,-1
 -851 -42 l 1,0,-1
EndSplineSet
EndChar
StartChar: uni034A
Encoding: 842 842 396
Width: 0
Flags: W
TeX: 117 0 0 0
HStem: 1309 127<-510 -445.5> 1464 127<-806.5 -742>
AnchorPoint: "TopMkMk" -626 1220 mark 0
AnchorPoint: "TopMkMk" -626 1638 basemark 0
AnchorPoint: "Top" -626 1120 mark 0
Fore
-627 1535 m 9,0,-1
 -561 1638 l 1,1,-1
 -452 1638 l 1,2,-1
 -559 1469 l 17,3,4
 -548 1460 -548 1460 -526 1446 c 0,5,6
 -510 1436 -510 1436 -497 1436 c 0,7,8
 -459 1436 -459 1436 -441 1472 c 0,9,10
 -423 1509 -423 1509 -421 1591 c 1,11,-1
 -296 1591 l 1,12,13
 -298 1456 -298 1456 -349 1382 c 0,14,15
 -400 1309 -400 1309 -491 1309 c 0,16,17
 -529 1309 -529 1309 -561 1323 c 0,18,19
 -591 1336 -591 1336 -624 1365 c 9,20,-1
 -690 1262 l 1,21,-1
 -800 1262 l 1,22,-1
 -693 1430 l 17,23,24
 -706 1441 -706 1441 -726 1454 c 0,25,26
 -742 1464 -742 1464 -755 1464 c 0,27,28
 -793 1464 -793 1464 -811 1428 c 0,29,30
 -829 1391 -829 1391 -831 1309 c 1,31,-1
 -956 1309 l 1,32,33
 -954 1444 -954 1444 -903 1518 c 0,34,35
 -852 1591 -852 1591 -761 1591 c 0,36,37
 -723 1591 -723 1591 -691 1577 c 0,38,39
 -661 1564 -661 1564 -627 1535 c 9,0,-1
EndSplineSet
EndChar
StartChar: uni034B
Encoding: 843 843 397
Width: 0
Flags: W
TeX: 117 0 0 0
AnchorPoint: "TopMkMk" -626 1220 mark 0
AnchorPoint: "TopMkMk" -626 1638 basemark 0
AnchorPoint: "Top" -626 1120 mark 0
Fore
-806 1311 m 1,0,-1
 -656 1311 l 1,1,-1
 -656 1161 l 1,2,-1
 -806 1161 l 1,3,-1
 -806 1311 l 1,0,-1
-596 1740 m 1,4,-1
 -446 1740 l 1,5,-1
 -446 1590 l 1,6,-1
 -596 1590 l 1,7,-1
 -596 1740 l 1,4,-1
EndSplineSet
Refer: 261 -1 N 1 0 0 1 -1138 47 0
EndChar
StartChar: uni034D
Encoding: 845 845 399
Width: 0
Flags: W
TeX: 117 0 0 0
HStem: -317 100<-869 -382>
AnchorPoint: "BottomMkMk" -626 0 mark 0
AnchorPoint: "BottomMkMk" -626 -493 basemark 0
AnchorPoint: "Bottom" -626 0 mark 0
Fore
-514 -472 m 1,0,-1
 -382 -317 l 1,1,-1
 -869 -317 l 1,2,-1
 -737 -472 l 1,3,-1
 -864 -472 l 1,4,-1
 -1039 -267 l 1,5,-1
 -864 -62 l 1,6,-1
 -737 -62 l 1,7,-1
 -869 -217 l 1,8,-1
 -382 -217 l 1,9,-1
 -514 -62 l 1,10,-1
 -388 -62 l 1,11,-1
 -213 -267 l 1,12,-1
 -388 -472 l 1,13,-1
 -514 -472 l 1,0,-1
EndSplineSet
EndChar
StartChar: uni034E
Encoding: 846 846 400
Width: 0
Flags: W
TeX: 117 0 0 0
VStem: -676 100<-492 -261>
AnchorPoint: "BottomMkMk" -626 0 mark 0
AnchorPoint: "BottomMkMk" -626 -493 basemark 0
AnchorPoint: "Bottom" -626 0 mark 0
Fore
-576 -492 m 9,0,-1
 -676 -492 l 17,8,-1
 -676 -261 l 1,7,-1
 -831 -393 l 1,6,-1
 -831 -267 l 1,5,-1
 -626 -92 l 1,4,-1
 -421 -267 l 1,3,-1
 -421 -393 l 1,2,-1
 -576 -261 l 1,1,-1
 -576 -492 l 9,0,-1
EndSplineSet
EndChar
StartChar: uni0360
Encoding: 864 864 401
Width: 0
Flags: W
TeX: 117 0 0 0
Fore
-4 1370 m 2,0,-1
 -148 1425 l 2,1,2
 -176 1436 -176 1436 -255 1454 c 0,3,4
 -299 1464 -299 1464 -335 1464 c 0,5,6
 -436 1464 -436 1464 -489 1428 c 0,7,8
 -559 1380 -559 1380 -564 1309 c 1,9,-1
 -726 1309 l 1,10,11
 -722 1444 -722 1444 -609 1518 c 0,12,13
 -497 1591 -497 1591 -297 1591 c 0,14,15
 -206 1591 -206 1591 -143 1577 c 0,16,17
 -86 1564 -86 1564 4 1530 c 2,18,-1
 148 1475 l 2,19,20
 176 1464 176 1464 255 1446 c 0,21,22
 299 1436 299 1436 335 1436 c 0,23,24
 432 1436 432 1436 489 1472 c 0,25,26
 560 1516 560 1516 564 1591 c 1,27,-1
 726 1591 l 1,28,29
 722 1456 722 1456 609 1382 c 0,30,31
 497 1309 497 1309 297 1309 c 0,32,33
 206 1309 206 1309 143 1323 c 0,34,35
 86 1336 86 1336 -4 1370 c 2,0,-1
EndSplineSet
EndChar
StartChar: uni0361
Encoding: 865 865 402
Width: 0
Flags: W
TeX: 117 0 0 0
Fore
782 1321 m 1,0,-1
 644 1321 l 1,1,2
 606 1398 606 1398 449 1434 c 0,3,4
 287 1471 287 1471 0 1471 c 0,5,6
 -284 1471 -284 1471 -442 1434 c 0,7,8
 -601 1397 -601 1397 -644 1321 c 1,9,-1
 -782 1321 l 1,10,11
 -758 1464 -758 1464 -560 1536 c 128,-1,12
 -362 1608 -362 1608 0 1608 c 128,-1,13
 362 1608 362 1608 560 1536 c 128,-1,14
 758 1464 758 1464 782 1321 c 1,0,-1
EndSplineSet
EndChar
StartChar: uni0362
Encoding: 866 866 403
Width: 0
Flags: W
TeX: 117 0 0 0
HStem: -317 100<-905 746>
AnchorPoint: "BottomMkMk" -626 0 mark 0
AnchorPoint: "BottomMkMk" -626 -493 basemark 0
AnchorPoint: "Bottom" -626 0 mark 0
Fore
-905 -317 m 9,0,-1
 -905 -217 l 17,8,-1
 746 -217 l 1,7,-1
 614 -62 l 1,6,-1
 740 -62 l 1,5,-1
 915 -267 l 1,4,-1
 740 -472 l 1,3,-1
 614 -472 l 1,2,-1
 746 -317 l 1,1,-1
 -905 -317 l 9,0,-1
EndSplineSet
EndChar
StartChar: Hbar
Encoding: 294 294 435
Width: 1540
Flags: W
TeX: 72 0 0 0
HStem: 711 170<403 1137> 1120 170<47 201 403 1137 1339 1491> 1473 20G<201 403 1137 1339>
VStem: 201 202<0 711 0 1120 1290 1493> 1137 202<0 1120 1290 1493>
Fore
1137 881 m 9,0,-1
 1137 1120 l 17,1,-1
 403 1120 l 9,2,-1
 403 881 l 1,3,-1
 1137 881 l 9,0,-1
1339 0 m 17,4,-1
 1137 0 l 1,5,-1
 1137 711 l 1,6,-1
 403 711 l 1,7,-1
 403 0 l 1,8,-1
 201 0 l 1,9,-1
 201 1120 l 1,10,-1
 47 1120 l 5,11,-1
 47 1290 l 5,12,-1
 201 1290 l 1,13,-1
 201 1493 l 1,14,-1
 403 1493 l 1,15,-1
 403 1290 l 1,16,-1
 1137 1290 l 1,17,-1
 1137 1493 l 1,18,-1
 1339 1493 l 1,19,-1
 1339 1290 l 1,20,-1
 1491 1290 l 5,21,-1
 1491 1120 l 5,22,-1
 1339 1120 l 9,23,-1
 1339 0 l 17,4,-1
EndSplineSet
EndChar
StartChar: hbar
Encoding: 295 295 436
Width: 1298
Flags: W
TeX: 104 0 0 0
HStem: 0 21G<186 371 940 1124> 987 160<692 733> 1284 125<32 186 371 697>
VStem: 186 185<0 657 0 1284 1409 1556> 940 184<0 705>
Fore
371 946 m 17,0,1
 437 1047 437 1047 526 1097 c 0,2,3
 616 1147 616 1147 733 1147 c 0,4,5
 926 1147 926 1147 1025 1028 c 0,6,7
 1124 908 1124 908 1124 676 c 2,8,-1
 1124 0 l 1,9,-1
 940 0 l 1,10,-1
 940 670 l 2,11,12
 940 829 940 829 878 908 c 128,-1,13
 816 987 816 987 692 987 c 0,14,15
 543 987 543 987 457 892 c 128,-1,16
 371 797 371 797 371 633 c 2,17,-1
 371 0 l 1,18,-1
 186 0 l 1,19,-1
 186 1284 l 1,20,-1
 32 1284 l 1,21,-1
 32 1409 l 1,22,-1
 186 1409 l 1,23,-1
 186 1556 l 1,24,-1
 371 1556 l 1,25,-1
 371 1409 l 1,26,-1
 697 1409 l 1,27,-1
 697 1284 l 1,28,-1
 371 1284 l 9,29,-1
 371 946 l 17,0,1
EndSplineSet
EndChar
StartChar: Eng
Encoding: 330 330 467
Width: 1532
Flags: W
TeX: 69 0 0 0
HStem: 0 21G<201 397> 1473 20G<201 473 1135 1331>
VStem: 201 196<0 1249> 1135 196<244 1493>
Fore
1108 -92 m 13,0,-1
 397 1249 l 1,1,-1
 397 0 l 1,2,-1
 201 0 l 1,3,-1
 201 1493 l 1,4,-1
 473 1493 l 1,5,-1
 1135 244 l 1,6,-1
 1135 1493 l 1,7,-1
 1331 1493 l 1,8,-1
 1331 104 l 1,9,10
 1331 -168 1331 -168 1230 -288 c 0,11,12
 1128 -410 1128 -410 900 -410 c 2,13,-1
 824 -410 l 1,14,-1
 824 -240 l 1,15,-1
 886 -240 l 2,16,17
 1028 -240 1028 -240 1076 -165 c 0,18,19
 1096 -130 1096 -130 1108 -92 c 13,0,-1
EndSplineSet
EndChar
StartChar: eng
Encoding: 331 331 468
Width: 1298
Flags: W
TeX: 101 0 0 0
HStem: 0 21G<186 371> 987 160<692 733>
VStem: 186 185<0 663 0 1120> 940 184<-20 695>
Fore
1124 -20 m 18,0,1
 1124 -234 1124 -234 1043 -330 c 0,2,3
 961 -426 961 -426 780 -426 c 2,4,-1
 710 -426 l 1,5,-1
 710 -270 l 1,6,-1
 759 -270 l 2,7,8
 864 -270 864 -270 902 -222 c 0,9,10
 940 -173 940 -173 940 -20 c 2,11,-1
 940 670 l 2,12,13
 940 829 940 829 878 908 c 128,-1,14
 816 987 816 987 692 987 c 0,15,16
 543 987 543 987 457 892 c 128,-1,17
 371 797 371 797 371 633 c 2,18,-1
 371 0 l 1,19,-1
 186 0 l 1,20,-1
 186 1120 l 1,21,-1
 371 1120 l 1,22,-1
 371 946 l 1,23,24
 437 1047 437 1047 526 1097 c 0,25,26
 616 1147 616 1147 733 1147 c 0,27,28
 926 1147 926 1147 1025 1028 c 0,29,30
 1124 908 1124 908 1124 676 c 10,31,-1
 1124 -20 l 18,0,1
EndSplineSet
EndChar
StartChar: Tbar
Encoding: 358 358 489
Width: 1251
Flags: W
TeX: 84 0 0 0
HStem: 0 21G<524 727> 711 170<289 524 727 962> 1323 170<-6 524 -6 1257>
VStem: 524 203<0 711 881 1323>
Fore
727 711 m 13,0,-1
 727 0 l 17,1,-1
 524 0 l 1,2,-1
 524 711 l 5,3,-1
 289 711 l 5,4,-1
 289 881 l 5,5,-1
 524 881 l 5,6,-1
 524 1323 l 1,7,-1
 -6 1323 l 1,8,-1
 -6 1493 l 1,9,-1
 1257 1493 l 1,10,-1
 1257 1323 l 1,11,-1
 727 1323 l 1,12,-1
 727 881 l 5,13,-1
 962 881 l 5,14,-1
 962 711 l 5,15,-1
 727 711 l 13,0,-1
EndSplineSet
EndChar
StartChar: tbar
Encoding: 359 359 490
Width: 803
Flags: W
TeX: 116 0 0 0
HStem: 0 154<565 754> 524 143<55 190 375 754> 977 143<55 190 375 754>
VStem: 190 185<369 524 667 977 1120 1438>
Fore
375 524 m 9,0,-1
 375 369 l 2,1,2
 375 232 375 232 412 193 c 0,3,4
 450 154 450 154 565 154 c 2,5,-1
 754 154 l 1,6,-1
 754 0 l 1,7,-1
 565 0 l 2,8,9
 352 0 352 0 271 80 c 0,10,11
 190 159 190 159 190 369 c 2,12,-1
 190 524 l 17,13,-1
 55 524 l 1,14,-1
 55 667 l 1,15,-1
 190 667 l 9,16,-1
 190 977 l 1,17,-1
 55 977 l 1,18,-1
 55 1120 l 1,19,-1
 190 1120 l 1,20,-1
 190 1438 l 1,21,-1
 375 1438 l 1,22,-1
 375 1120 l 1,23,-1
 754 1120 l 1,24,-1
 754 977 l 1,25,-1
 375 977 l 1,26,-1
 375 667 l 17,27,-1
 754 667 l 1,28,-1
 754 524 l 1,29,-1
 375 524 l 9,0,-1
EndSplineSet
EndChar
StartChar: longs
Encoding: 383 383 511
Width: 721
Flags: W
TeX: 108 0 0 0
HStem: 0 21G<223 408> 977 143<47 223> 1403 153<558 760>
VStem: 223 185<0 977 0 1233>
AnchorPoint: "Top" 285 1520 basechar 0
Fore
408 1219 m 10,0,1
 408 0 l 17,17,-1
 223 0 l 1,16,-1
 223 977 l 1,15,-1
 47 977 l 1,14,-1
 47 1120 l 1,13,-1
 223 1120 l 1,12,-1
 223 1198 l 2,11,-1
 223 1385 223 1385 310 1470 c 0,9,10
 397 1556 397 1556 586 1556 c 2,7,8
 760 1556 l 1,6,-1
 760 1403 l 1,5,-1
 584 1403 l 2,4,-1
 485 1403 485 1403 446 1363 c 0,2,3
 408 1323 408 1323 408 1219 c 10,0,1
EndSplineSet
EndChar
StartChar: uni0180
Encoding: 384 384 512
Width: 1300
Flags: W
TeX: 117 0 0 0
Fore
997 559 m 0,0,1
 997 762 997 762 913.5 877.5 c 128,-1,2
 830 993 830 993 684 993 c 0,3,4
 538 993 538 993 454.5 877.5 c 128,-1,5
 371 762 371 762 371 559 c 0,6,7
 371 356 371 356 454.5 240.5 c 128,-1,8
 538 125 538 125 684 125 c 0,9,10
 830 125 830 125 913.5 240.5 c 128,-1,11
 997 356 997 356 997 559 c 0,0,1
186 1409 m 9,0,0
 186 1556 l 1,27,-1
 371 1556 l 1,28,-1
 371 1409 l 17,0,0
 697 1409 l 1,27,-1
 697 1284 l 1,28,-1
 371 1284 l 9,0,0
 371 950 l 1,12,13
 429 1050 429 1050 517.5 1098.5 c 128,-1,14
 606 1147 606 1147 729 1147 c 0,15,16
 933 1147 933 1147 1060.5 985 c 128,-1,17
 1188 823 1188 823 1188 559 c 0,18,19
 1188 295 1188 295 1060.5 133 c 128,-1,20
 933 -29 933 -29 729 -29 c 0,21,22
 606 -29 606 -29 517.5 19.5 c 128,-1,23
 429 68 429 68 371 168 c 1,24,-1
 371 0 l 1,25,-1
 186 0 l 1,26,-1
 186 1284 l 17,0,0
 32 1284 l 1,21,-1
 32 1409 l 1,22,-1
 186 1409 l 9,0,0
EndSplineSet
EndChar
StartChar: uni0181
Encoding: 385 385 513
Width: 1505
Flags: W
TeX: 117 0 0 0
Fore
301 1351 m 29,1,2
 232 1351 l 22,11,-1
 167 1351 167 1351 124 1311 c 4,9,10
 80 1271 80 1271 80 1214 c 132,-1,8
 80 1157 80 1157 124 1118 c 13,6,7
 17 1042 l 21,21,22
 -55 1108 -55 1108 -55 1232 c 4,19,20
 -55 1328 -55 1328 15 1403 c 4,17,18
 63 1453 63 1453 126 1475 c 4,15,16
 179 1493 179 1493 230 1493 c 14,0,0
 817 1493 l 18,4,-1
 1048 1493 1048 1493 1173 1397 c 128,-1,21
 1298 1301 1298 1301 1298 1124 c 0,22,23
 1298 987 1298 987 1234 906 c 128,-1,24
 1170 825 1170 825 1046 805 c 1,25,26
 1197 773 1197 773 1278 672 c 128,-1,27
 1360 570 1360 570 1360 418 c 0,28,29
 1360 218 1360 218 1224 109 c 128,-1,30
 1088 0 1088 0 837 0 c 2,31,-1
 301 0 l 1,32,-1
 301 1351 l 29,1,2
503 713 m 1,0,-1
 503 166 l 1,1,-1
 827 166 l 2,2,3
 990 166 990 166 1068 234 c 128,-1,4
 1147 301 1147 301 1147 440 c 0,5,6
 1147 580 1147 580 1068 646 c 128,-1,7
 990 713 990 713 827 713 c 2,8,-1
 503 713 l 1,0,-1
503 1327 m 1,9,-1
 503 877 l 1,10,-1
 802 877 l 2,11,12
 950 877 950 877 1022 932 c 128,-1,13
 1095 988 1095 988 1095 1102 c 0,14,15
 1095 1215 1095 1215 1022 1271 c 128,-1,16
 950 1327 950 1327 802 1327 c 2,17,-1
 503 1327 l 1,9,-1
EndSplineSet
EndChar
StartChar: uni0182
Encoding: 386 386 514
Width: 1405
Flags: W
TeX: 117 0 0 0
HStem: 0 166<403 762> 713 166<403 762> 1327 166<201 1047>
VStem: 201 202<0 713 0 1327> 1047 213<439 465>
Fore
1047 439 m 24,0,1
 1047 578 1047 578 968 646 c 0,2,3
 890 713 890 713 727 713 c 2,4,-1
 403 713 l 1,5,-1
 403 166 l 1,6,-1
 727 166 l 2,7,8
 890 166 890 166 968 234 c 0,9,10
 1047 301 1047 301 1047 439 c 24,0,1
1047 1493 m 25,11,-1
 1047 1327 l 25,12,-1
 403 1327 l 1,13,-1
 403 879 l 1,14,-1
 737 879 l 2,15,16
 988 879 988 879 1124 770 c 128,-1,17
 1260 661 1260 661 1260 439 c 24,18,19
 1260 218 1260 218 1124 109 c 128,-1,20
 988 0 988 0 737 0 c 2,21,-1
 201 0 l 1,22,-1
 201 1493 l 1,23,-1
 1047 1493 l 25,11,-1
EndSplineSet
EndChar
StartChar: uni0183
Encoding: 387 387 515
Width: 1300
Flags: W
TeX: 117 0 0 0
Fore
371 1339 m 17,1,-1
 371 950 l 1,12,13
 429 1050 429 1050 517.5 1098.5 c 128,-1,14
 606 1147 606 1147 729 1147 c 0,15,16
 933 1147 933 1147 1060.5 985 c 128,-1,17
 1188 823 1188 823 1188 559 c 0,18,19
 1188 295 1188 295 1060.5 133 c 128,-1,20
 933 -29 933 -29 729 -29 c 0,21,22
 606 -29 606 -29 517.5 19.5 c 128,-1,23
 429 68 429 68 371 168 c 1,24,-1
 371 0 l 1,25,-1
 186 0 l 1,26,-1
 186 1493 l 9,0,0
 955 1493 l 1,3,-1
 955 1339 l 9,2,-1
 371 1339 l 17,1,-1
997 559 m 0,0,1
 997 762 997 762 913.5 877.5 c 128,-1,2
 830 993 830 993 684 993 c 0,3,4
 538 993 538 993 454.5 877.5 c 128,-1,5
 371 762 371 762 371 559 c 0,6,7
 371 356 371 356 454.5 240.5 c 128,-1,8
 538 125 538 125 684 125 c 0,9,10
 830 125 830 125 913.5 240.5 c 128,-1,11
 997 356 997 356 997 559 c 0,0,1
EndSplineSet
EndChar
StartChar: uni0184
Encoding: 388 388 516
Width: 1405
Flags: W
TeX: 117 0 0 0
HStem: 0 166<403 762> 713 166<403 762> 1327 166<201 1047>
VStem: 201 202<0 713 0 1327> 1047 213<439 465>
Fore
1047 439 m 24,0,1
 1047 578 1047 578 968 646 c 0,2,3
 890 713 890 713 727 713 c 2,4,-1
 403 713 l 1,5,-1
 403 166 l 1,6,-1
 727 166 l 2,7,8
 890 166 890 166 968 234 c 0,9,10
 1047 301 1047 301 1047 439 c 24,0,1
403 1556 m 17,12,-1
 403 879 l 1,14,-1
 737 879 l 1,15,16
 989 879 989 879 1124 770 c 128,-1,17
 1260 661 1260 661 1260 439 c 24,18,19
 1260 218 1260 218 1124 109 c 128,-1,20
 988 0 988 0 737 0 c 2,21,-1
 201 0 l 1,22,-1
 201 902 l 1,23,-1
 0 1120 l 25,11,-1
 403 1556 l 17,12,-1
EndSplineSet
EndChar
StartChar: uni0185
Encoding: 389 389 517
Width: 1300
Flags: W
TeX: 117 0 0 0
Fore
186 902 m 17,23,-1
 -1 1120 l 25,11,-1
 371 1556 l 17,12,-1
 371 950 l 1,14,-1
 429 1050 429 1050 517.5 1098.5 c 128,-1,14
 606 1147 606 1147 729 1147 c 0,15,16
 933 1147 933 1147 1060.5 985 c 128,-1,17
 1188 823 1188 823 1188 559 c 0,18,19
 1188 295 1188 295 1060.5 133 c 128,-1,20
 933 -29 933 -29 729 -29 c 0,21,22
 606 -29 606 -29 517.5 19.5 c 128,-1,23
 429 68 429 68 371 168 c 1,24,-1
 371 0 l 1,25,-1
 186 0 l 9,26,-1
 186 902 l 17,23,-1
997 559 m 0,0,1
 997 762 997 762 913.5 877.5 c 128,-1,2
 830 993 830 993 684 993 c 0,3,4
 538 993 538 993 454.5 877.5 c 128,-1,5
 371 762 371 762 371 559 c 0,6,7
 371 356 371 356 454.5 240.5 c 128,-1,8
 538 125 538 125 684 125 c 0,9,10
 830 125 830 125 913.5 240.5 c 128,-1,11
 997 356 997 356 997 559 c 0,0,1
EndSplineSet
EndChar
StartChar: uni0186
Encoding: 390 390 518
Width: 1430
Flags: W
TeX: 117 0 0 0
Fore
115 113 m 1,0,-1
 115 326 l 1,1,2
 234 231 234 231 332 184 c 128,-1,3
 440 137 440 137 578 137 c 0,4,5
 834 137 834 137 970 294 c 128,-1,6
 1106 450 1106 450 1106 746 c 0,7,8
 1106 1041 1106 1041 970 1198 c 128,-1,9
 834 1354 834 1354 578 1354 c 0,10,11
 448 1354 448 1354 332 1307 c 128,-1,12
 217 1260 217 1260 115 1165 c 1,13,-1
 115 1376 l 1,14,15
 221 1448 221 1448 340 1484 c 128,-1,16
 458 1520 458 1520 590 1520 c 0,17,18
 929 1520 929 1520 1124 1312 c 128,-1,19
 1319 1105 1319 1105 1319 746 c 0,20,21
 1319 386 1319 386 1124 178 c 128,-1,22
 929 -29 929 -29 590 -29 c 0,23,24
 456 -29 456 -29 338 6 c 128,-1,25
 219 42 219 42 115 113 c 1,0,-1
EndSplineSet
EndChar
StartChar: uni0187
Encoding: 391 391 519
Width: 1430
Flags: W
TeX: 117 0 0 0
Fore
1177 1454 m 5,0,0
 1161 1463 1161 1463 1096 1484 c 132,-1,25
 981 1520 981 1520 844 1520 c 0,23,24
 505 1520 505 1520 310 1312 c 128,-1,22
 115 1105 115 1105 115 745 c 0,20,21
 115 386 115 386 310 178 c 128,-1,19
 505 -29 505 -29 844 -29 c 0,17,18
 976 -29 976 -29 1094 7 c 128,-1,16
 1213 43 1213 43 1319 115 c 1,14,15
 1319 326 l 1,13,-1
 1217 231 1217 231 1102 184 c 128,-1,12
 986 137 986 137 856 137 c 0,10,11
 600 137 600 137 464 294 c 128,-1,9
 328 450 328 450 328 745 c 0,7,8
 328 1041 328 1041 464 1198 c 128,-1,6
 600 1354 600 1354 856 1354 c 0,4,5
 986 1354 986 1354 1102 1307 c 132,-1,3
 1217 1260 1217 1260 1319 1165 c 13,1,2
 1319 1447 l 22,11,-1
 1319 1512 1319 1512 1359 1555 c 4,9,10
 1399 1599 1399 1599 1456 1599 c 132,-1,8
 1513 1599 1513 1599 1552 1555 c 13,6,7
 1628 1662 l 21,21,22
 1562 1734 1562 1734 1438 1734 c 4,19,20
 1342 1734 1342 1734 1267 1664 c 4,17,18
 1217 1616 1217 1616 1195 1553 c 4,15,16
 1177 1500 1177 1500 1177 1454 c 5,0,0
EndSplineSet
EndChar
StartChar: uni0188
Encoding: 392 392 520
Width: 1126
Flags: W
TeX: 117 0 0 0
Fore
858 1125 m 133,-1,25
 858 1150 858 1150 875 1202 c 4,15,16
 897 1265 897 1265 947 1313 c 4,17,18
 1022 1383 1022 1383 1118 1383 c 4,19,20
 1242 1383 1242 1383 1308 1311 c 13,21,22
 1232 1204 l 21,6,7
 1193 1248 1193 1248 1136 1248 c 132,-1,8
 1079 1248 1079 1248 1039 1204 c 4,9,10
 999 1161 999 1161 999 1096 c 6,11,-1
 999 905 l 21,12,-1
 921 948 921 948 842 970 c 132,-1,3
 764 991 764 991 684 991 c 0,4,5
 505 991 505 991 406 878 c 128,-1,6
 307 764 307 764 307 559 c 0,7,8
 307 354 307 354 406 240 c 128,-1,9
 505 127 505 127 684 127 c 0,10,11
 764 127 764 127 842 148 c 128,-1,12
 921 170 921 170 999 213 c 1,13,-1
 999 43 l 1,14,15
 922 7 922 7 840 -11 c 128,-1,16
 757 -29 757 -29 664 -29 c 0,17,18
 411 -29 411 -29 262 130 c 128,-1,19
 113 289 113 289 113 559 c 0,20,21
 113 833 113 833 264 990 c 128,-1,22
 414 1147 414 1147 676 1147 c 0,23,24
 792 1147 792 1147 858 1125 c 133,-1,25
EndSplineSet
EndChar
StartChar: uni018A
Encoding: 394 394 522
Width: 1677
Flags: W
TeX: 117 0 0 0
Fore
230 1493 m 10,0,0
 716 1493 l 2,10,11
 1150 1493 1150 1493 1353 1312 c 128,-1,12
 1556 1132 1556 1132 1556 748 c 0,13,14
 1556 362 1556 362 1352 181 c 128,-1,15
 1148 0 1148 0 716 0 c 2,16,-1
 301 0 l 9,17,-1
 301 1351 l 25,1,-1
 232 1351 l 18,11,-1
 167 1351 167 1351 124 1311 c 0,9,10
 80 1271 80 1271 80 1214 c 128,-1,8
 80 1157 80 1157 124 1118 c 9,6,7
 17 1042 l 17,21,22
 -55 1108 -55 1108 -55 1232 c 0,19,20
 -55 1330 -55 1330 15 1403 c 0,17,18
 63 1453 63 1453 126 1475 c 0,15,16
 179 1493 179 1493 230 1493 c 10,0,0
503 1327 m 1,0,-1
 503 166 l 1,1,-1
 747 166 l 2,2,3
 1056 166 1056 166 1200 306 c 128,-1,4
 1343 446 1343 446 1343 748 c 0,5,6
 1343 1048 1343 1048 1200 1188 c 128,-1,7
 1056 1327 1056 1327 747 1327 c 2,8,-1
 503 1327 l 1,0,-1
EndSplineSet
EndChar
StartChar: uni018B
Encoding: 395 395 523
Width: 1405
Flags: W
TeX: 117 0 0 0
HStem: 0 166<699 1058> 713 166<699 1058> 1327 166<414 1260>
VStem: 1058 202<0 713 0 1327> 201 213<439 465>
Fore
414 439 m 28,0,1
 414 301 414 301 493 234 c 4,9,10
 571 166 571 166 734 166 c 6,7,8
 1058 166 l 5,6,-1
 1058 713 l 5,5,-1
 734 713 l 6,4,-1
 571 713 571 713 493 646 c 4,2,3
 414 578 414 578 414 439 c 28,0,1
414 1493 m 25,11,-1
 1260 1493 l 1,23,-1
 1260 0 l 5,22,-1
 724 0 l 6,21,-1
 473 0 473 0 337 109 c 132,-1,20
 201 218 201 218 201 439 c 28,18,19
 201 661 201 661 337 770 c 132,-1,17
 473 879 473 879 724 879 c 6,15,16
 1058 879 l 5,14,-1
 1058 1327 l 1,13,-1
 414 1327 l 25,12,-1
 414 1493 l 25,11,-1
EndSplineSet
EndChar
StartChar: uni018C
Encoding: 396 396 524
Width: 1300
Flags: W
TeX: 117 0 0 0
Fore
1003 1339 m 9,1,-1
 419 1339 l 17,2,-1
 419 1493 l 1,3,-1
 1188 1493 l 17,0,0
 1188 0 l 1,26,-1
 1003 0 l 1,25,-1
 1003 168 l 1,24,-1
 945 68 945 68 856 20 c 128,-1,23
 768 -29 768 -29 645 -29 c 0,21,22
 441 -29 441 -29 314 133 c 128,-1,20
 186 295 186 295 186 559 c 0,18,19
 186 823 186 823 314 985 c 128,-1,17
 441 1147 441 1147 645 1147 c 0,15,16
 768 1147 768 1147 856 1098 c 128,-1,14
 945 1050 945 1050 1003 950 c 1,12,13
 1003 1339 l 9,1,-1
377 559 m 0,0,1
 377 356 377 356 460 240 c 128,-1,11
 544 125 544 125 690 125 c 0,9,10
 836 125 836 125 920 240 c 128,-1,8
 1003 356 1003 356 1003 559 c 0,6,7
 1003 762 1003 762 920 878 c 128,-1,5
 836 993 836 993 690 993 c 0,3,4
 544 993 544 993 460 878 c 128,-1,2
 377 762 377 762 377 559 c 0,0,1
EndSplineSet
EndChar
StartChar: uni018D
Encoding: 397 397 525
Width: 1253
Flags: W
TeX: 117 0 0 0
HStem: 1364 156<612 627> -29 153<548 591>
VStem: 947 194<911 932> 844 188<239 245> 113 195<911 942>
Fore
250 -177 m 17,0,1
 352 -247 352 -247 591 -247 c 0,2,3
 844 -247 844 -247 844 -130 c 24,4,5
 844 -38 844 -38 580 10 c 0,6,7
 372 47 372 47 255 159 c 0,8,9
 113 294 113 294 113 571 c 0,10,11
 113 836 113 836 250 992 c 0,12,13
 387 1149 387 1149 627 1149 c 0,14,15
 866 1149 866 1149 1004 992 c 0,16,17
 1141 836 1141 836 1141 561 c 0,18,19
 1141 357 1141 357 1004 192 c 0,20,21
 951 128 951 128 876 92 c 1,22,23
 1032 13 1032 13 1032 -128 c 8,24,25
 1032 -400 1032 -400 591 -400 c 0,26,27
 370 -400 370 -400 250 -330 c 9,28,-1
 250 -177 l 17,0,1
738 142 m 1,29,30
 806 171 806 171 861 244 c 0,31,32
 947 357 947 357 947 561 c 0,33,34
 947 764 947 764 862 878 c 0,35,36
 776 993 776 993 627 993 c 0,37,38
 480 993 480 993 394 877 c 128,-1,39
 308 761 308 761 308 571 c 0,40,41
 308 372 308 372 399 276 c 0,42,43
 496 173 496 173 622 162 c 0,44,45
 686 156 686 156 738 142 c 1,29,30
EndSplineSet
EndChar
StartChar: uni018E
Encoding: 398 398 526
Width: 1294
Flags: W
TeX: 117 0 0 0
Fore
1163 1493 m 1,0,-1
 1163 0 l 1,11,-1
 201 0 l 1,10,-1
 201 170 l 1,9,-1
 961 170 l 1,8,-1
 961 711 l 1,7,-1
 250 711 l 1,6,-1
 250 881 l 1,5,-1
 961 881 l 1,4,-1
 961 1323 l 1,3,-1
 219 1323 l 1,2,-1
 219 1493 l 1,1,-1
 1163 1493 l 1,0,-1
EndSplineSet
EndChar
StartChar: uni018F
Encoding: 399 399 527
Width: 1612
Flags: W
TeX: 117 0 0 0
HStem: -27 165<750 802> 620 170<129 1275> 1356 164<704 778>
VStem: 129 217<620 685>
AnchorPoint: "Bottom" 776 0 basechar 0
AnchorPoint: "TopCap" 776 1493 basechar 0
AnchorPoint: "Ogonek" 776 0 basechar 0
Fore
346 620 m 1,0,1
 348 396 348 396 468 265 c 0,2,3
 584 138 584 138 776 138 c 0,4,5
 991 138 991 138 1122 261 c 0,6,7
 1255 385 1255 385 1275 620 c 1,8,-1
 346 620 l 1,0,1
185 1211 m 9,9,-1
 185 1407 l 17,10,11
 316 1463 316 1463 452 1491 c 0,12,13
 589 1520 589 1520 730 1520 c 0,14,15
 1083 1520 1083 1520 1288 1315 c 0,16,17
 1495 1110 1495 1110 1495 760 c 0,18,19
 1495 398 1495 398 1299 185 c 0,20,21
 1104 -27 1104 -27 772 -27 c 0,22,23
 472 -27 472 -27 301 164 c 0,24,25
 129 356 129 356 129 685 c 2,26,-1
 129 790 l 1,27,-1
 1283 790 l 1,28,29
 1261 1095 1261 1095 1135 1216 c 0,30,31
 989 1355 989 1355 752 1356 c 0,32,33
 607 1356 607 1356 463 1320 c 0,34,35
 321 1284 321 1284 185 1211 c 9,9,-1
EndSplineSet
EndChar
StartChar: uni0190
Encoding: 400 400 528
Width: 1303
Flags: W
TeX: 117 0 0 0
Fore
464 805 m 1,0,1
 333 838 333 838 262 924 c 128,-1,40
 191 1009 191 1009 191 1133 c 0,38,39
 191 1311 191 1311 325 1416 c 128,-1,37
 459 1520 459 1520 689 1520 c 0,35,36
 778 1520 778 1520 878 1504 c 128,-1,34
 979 1488 979 1488 1094 1456 c 1,32,33
 1094 1276 l 1,31,-1
 980 1314 980 1314 885 1332 c 128,-1,30
 790 1350 790 1350 707 1350 c 0,28,29
 555 1350 555 1350 474 1288 c 128,-1,27
 392 1227 392 1227 392 1112 c 0,25,26
 392 1000 392 1000 471 940 c 128,-1,24
 550 881 550 881 699 881 c 2,22,23
 881 881 l 1,21,-1
 881 715 l 1,20,-1
 707 715 l 2,19,-1
 542 715 542 715 450 640 c 128,-1,18
 357 566 357 566 357 434 c 0,16,17
 357 291 357 291 456 216 c 128,-1,15
 556 141 556 141 746 141 c 0,13,14
 855 141 855 141 955 166 c 128,-1,12
 1055 191 1055 191 1139 240 c 1,10,11
 1139 45 l 1,9,-1
 1033 8 1033 8 934 -10 c 128,-1,8
 834 -29 834 -29 740 -29 c 0,6,7
 460 -29 460 -29 308 92 c 128,-1,5
 156 213 156 213 156 434 c 0,3,4
 156 578 156 578 238 676 c 128,-1,2
 319 774 319 774 464 805 c 1,0,1
EndSplineSet
EndChar
StartChar: uni0191
Encoding: 401 401 529
Width: 1178
Flags: W
TeX: 117 0 0 0
Fore
403 -70 m 6,8,-1
 403 -178 403 -178 372 -245 c 4,15,16
 345 -304 345 -304 284 -354 c 4,17,18
 196 -426 196 -426 87 -426 c 4,19,20
 -42 -426 -42 -426 -108 -354 c 13,21,22
 -32 -247 l 21,6,7
 7 -291 7 -291 64 -291 c 132,-1,8
 121 -291 121 -291 161 -247 c 4,9,10
 201 -204 201 -204 201 -139 c 6,11,-1
 201 1493 l 5,0,-1
 1059 1493 l 1,1,-1
 1059 1323 l 1,2,-1
 403 1323 l 5,3,-1
 403 883 l 5,4,-1
 995 883 l 1,5,-1
 995 713 l 1,6,-1
 403 713 l 5,7,-1
 403 -70 l 6,8,-1
EndSplineSet
EndChar
StartChar: uni0193
Encoding: 403 403 530
Width: 1587
Flags: W
TeX: 117 0 0 0
Fore
1238 1450 m 5,0,0
 1189 1469 1189 1469 1138 1484 c 128,-1,16
 1014 1520 1014 1520 860 1520 c 0,14,15
 510 1520 510 1520 312 1316 c 128,-1,13
 115 1113 115 1113 115 745 c 0,11,12
 115 380 115 380 312 176 c 128,-1,10
 510 -29 510 -29 860 -29 c 0,8,9
 1020 -29 1020 -29 1161 14 c 128,-1,7
 1302 56 1302 56 1419 139 c 1,5,6
 1419 780 l 1,4,-1
 889 780 l 1,3,-1
 889 614 l 1,2,-1
 1219 614 l 1,1,-1
 1219 213 l 1,0,-1
 1152 174 1152 174 1068 156 c 128,-1,29
 984 137 984 137 877 137 c 0,27,28
 603 137 603 137 466 290 c 128,-1,26
 328 443 328 443 328 745 c 0,24,25
 328 1048 328 1048 466 1201 c 128,-1,23
 603 1354 603 1354 877 1354 c 0,21,22
 1016 1354 1016 1354 1142 1306 c 128,-1,20
 1268 1258 1268 1258 1380 1163 c 13,1,2
 1380 1447 l 22,11,-1
 1380 1512 1380 1512 1420 1555 c 4,9,10
 1460 1599 1460 1599 1517 1599 c 132,-1,8
 1574 1599 1574 1599 1613 1555 c 13,6,7
 1689 1662 l 21,21,22
 1623 1734 1623 1734 1499 1734 c 4,19,20
 1403 1734 1403 1734 1328 1664 c 4,17,18
 1278 1616 1278 1616 1256 1553 c 4,15,16
 1238 1500 1238 1500 1238 1450 c 5,0,0
EndSplineSet
EndChar
StartChar: uni0194
Encoding: 404 404 531
Width: 1477
Flags: W
TeX: 117 0 0 0
HStem: -426 160<587 890.5> 1473 20G<24 251 1229 1456>
VStem: 435 184<-255 -26.5> 857 185<-255 -24.5>
Fore
739 171 m 1,0,1
 619 -50 619 -50 619 -110 c 0,2,3
 619 -266 619 -266 739 -266 c 24,4,5
 857 -266 857 -266 857 -110 c 0,6,7
 857 -41 857 -41 739 171 c 1,0,1
854 381 m 1,8,9
 1042 35 1042 35 1042 -84 c 0,10,11
 1042 -426 1042 -426 739 -426 c 24,12,13
 435 -426 435 -426 435 -84 c 0,14,15
 435 31 435 31 625 383 c 1,16,-1
 24 1493 l 1,17,-1
 251 1493 l 1,18,-1
 740 584 l 1,19,-1
 1229 1493 l 1,20,-1
 1456 1493 l 1,21,-1
 854 381 l 1,8,9
EndSplineSet
EndChar
StartChar: uni0195
Encoding: 405 405 532
Width: 1843
Flags: W
TeX: 117 0 0 0
HStem: -29 21G<1144.5 1351.5> 0 21G<186 371> 987 160<587.5 754.5>
VStem: 186 185<0 1556> 840 184<442 792> 1474 184<324 1120>
Fore
1024 676 m 10,0,-1
 1024 449 l 18,1,2
 1024 290 1024 290 1086 210 c 0,3,4
 1146 131 1146 131 1249 131 c 136,-1,5
 1352 131 1352 131 1412 210 c 0,6,7
 1474 292 1474 292 1474 449 c 2,8,-1
 1474 1120 l 1,9,-1
 1658 1120 l 1,10,-1
 1658 442 l 2,11,12
 1658 206 1658 206 1558 91 c 0,13,14
 1454 -29 1454 -29 1249 -29 c 16,15,16
 1040 -29 1040 -29 940 91 c 0,17,18
 840 210 840 210 840 442 c 2,19,-1
 840 670 l 18,20,21
 840 829 840 829 778 908 c 128,-1,22
 716 987 716 987 642 987 c 0,23,24
 533 987 533 987 447 892 c 0,25,26
 371 808 371 808 371 633 c 2,27,-1
 371 0 l 1,28,-1
 186 0 l 1,29,-1
 186 1556 l 1,30,-1
 371 1556 l 1,31,-1
 371 946 l 1,32,33
 457 1066 457 1066 506 1097 c 0,34,35
 588 1147 588 1147 683 1147 c 0,36,37
 826 1147 826 1147 925 1028 c 128,-1,38
 1024 908 1024 908 1024 676 c 10,0,-1
EndSplineSet
EndChar
StartChar: uni0196
Encoding: 406 406 533
Width: 604
Flags: W
TeX: 117 0 0 0
HStem: -16 147<496 514> 1100 20G<193 377>
VStem: 193 184<382 1120>
Fore
403 430 m 18,1,2
 403 341 403 341 405 310 c 0,3,4
 407 265 407 265 412 242 c 0,5,6
 426 178 426 178 448 160 c 0,7,8
 476 135 476 135 521 135 c 0,9,10
 536 135 536 135 559 138 c 0,11,12
 573 140 573 140 615 145 c 1,13,-1
 615 0 l 1,14,15
 587 -8 587 -8 560 -12 c 0,16,17
 534 -16 534 -16 508 -16 c 0,18,19
 386 -16 386 -16 314 35 c 0,20,21
 243 86 243 86 222 186 c 0,22,23
 215 219 215 219 207 304 c 0,24,25
 201 370 201 370 201 537 c 2,26,-1
 201 1493 l 1,0,-1
 403 1493 l 9,1,-1
 403 430 l 18,1,2
EndSplineSet
EndChar
StartChar: uni0197
Encoding: 407 407 534
Width: 604
Flags: W
TeX: 117 0 0 0
HStem: 0 21G<201 403> 700 144<11 201 403 593> 1473 20G<201 403>
VStem: 201 202<0 700 844 1493>
Fore
403 711 m 9,0,-1
 403 0 l 1,1,-1
 201 0 l 1,2,-1
 201 711 l 17,3,-1
 -9 711 l 1,4,-1
 -9 881 l 1,5,-1
 201 881 l 9,6,-1
 201 1493 l 1,7,-1
 403 1493 l 1,8,-1
 403 881 l 17,9,-1
 613 881 l 1,10,-1
 613 711 l 1,11,-1
 403 711 l 9,0,-1
EndSplineSet
EndChar
StartChar: uni0198
Encoding: 408 408 535
Width: 1493
Flags: W
TeX: 117 0 0 0
Fore
1232 1520 m 0,0,0
 1313 1520 1313 1520 1362 1500 c 0,15,16
 1421 1476 1421 1476 1458 1435 c 0,17,18
 1530 1360 1530 1360 1530 1272 c 0,19,20
 1530 1175 1530 1175 1458 1109 c 9,21,22
 1352 1185 l 17,6,7
 1396 1223 1396 1223 1396 1271 c 128,-1,8
 1396 1318 1396 1318 1352 1357 c 0,9,10
 1317 1387 1317 1387 1268 1387 c 0,0,0
 1220 1387 1220 1387 1161 1332 c 26,0,0
 592 797 l 17,5,-1
 1386 0 l 1,6,-1
 1120 0 l 1,7,-1
 403 719 l 1,8,-1
 403 0 l 1,9,-1
 201 0 l 1,10,-1
 201 1493 l 1,0,-1
 403 1493 l 1,1,-1
 403 862 l 9,2,-1
 1006 1430 l 26,0,0
 1102 1520 1102 1520 1232 1520 c 0,0,0
EndSplineSet
EndChar
StartChar: uni0199
Encoding: 409 409 536
Width: 1186
Flags: W
TeX: 117 0 0 0
Fore
186 0 m 9,10,-1
 186 1164 l 22,0,0
 186 1282 186 1282 217 1339 c 4,15,16
 256 1413 256 1413 299 1448 c 4,17,18
 387 1520 387 1520 490 1520 c 4,19,20
 614 1520 614 1520 680 1448 c 13,21,22
 604 1341 l 21,6,7
 565 1385 565 1385 508 1385 c 132,-1,8
 451 1385 451 1385 411 1341 c 4,9,10
 371 1298 371 1298 371 1233 c 6,11,-1
 371 637 l 1,2,-1
 920 1120 l 1,3,-1
 1155 1120 l 1,4,-1
 561 596 l 1,5,-1
 1180 0 l 1,6,-1
 940 0 l 1,7,-1
 371 547 l 1,8,-1
 371 0 l 1,9,-1
 186 0 l 9,10,-1
EndSplineSet
EndChar
StartChar: uni019A
Encoding: 410 410 537
Width: 569
Flags: W
TeX: 117 0 0 0
Fore
377 867 m 17,0,0
 564 867 l 1,7,-1
 564 724 l 1,8,-1
 377 724 l 9,0,0
 377 0 l 1,2,-1
 193 0 l 1,3,-1
 193 724 l 17,0,0
 5 724 l 1,13,-1
 5 867 l 1,14,-1
 193 867 l 9,0,0
 193 1556 l 1,0,-1
 377 1556 l 1,1,-1
 377 867 l 17,0,0
EndSplineSet
EndChar
StartChar: uni019B
Encoding: 411 411 538
Width: 1313
Flags: W
TeX: 117 0 0 0
Fore
552 1278 m 25,0,0
 728 1404 l 1,3,-1
 804 1298 l 1,4,-1
 615 1165 l 25,0,0
 1257 0 l 1,0,-1
 1054 0 l 9,1,-1
 660 713 l 1,2,-1
 264 0 l 1,3,-1
 61 0 l 1,4,-1
 558 900 l 1,5,-1
 469 1061 l 25,0,0
 206 874 l 1,9,-1
 132 980 l 1,10,-1
 407 1176 l 25,0,0
 327 1319 l 2,6,7
 317 1337 317 1337 306 1347 c 0,8,9
 277 1372 277 1372 223 1372 c 0,10,11
 208 1372 208 1372 183 1369 c 0,12,13
 125 1362 l 1,14,-1
 125 1503 l 1,15,16
 152 1511 152 1511 180 1515 c 0,17,18
 206 1519 206 1519 232 1519 c 0,19,20
 350 1519 350 1519 424 1468 c 0,21,22
 463 1441 463 1441 487 1397 c 2,23,-1
 552 1278 l 25,0,0
EndSplineSet
EndChar
StartChar: uni019C
Encoding: 412 412 539
Width: 2125
Flags: W
TeX: 117 0 0 0
Fore
995 230 m 1,0,1
 921 97 921 97 818 34 c 128,-1,2
 715 -29 715 -29 576 -29 c 0,3,4
 386 -29 386 -29 287 101 c 128,-1,5
 186 233 186 233 186 475 c 2,6,-1
 186 1493 l 1,7,-1
 384 1493 l 1,8,-1
 384 481 l 2,9,10
 384 309 384 309 445 226 c 128,-1,11
 506 142 506 142 631 142 c 0,12,13
 784 142 784 142 873 244 c 128,-1,14
 962 345 962 345 962 521 c 2,15,-1
 962 1493 l 1,16,-1
 1159 1493 l 1,17,-1
 1159 481 l 2,18,19
 1159 308 1159 308 1220 226 c 128,-1,20
 1281 142 1281 142 1409 142 c 0,21,22
 1557 142 1557 142 1648 245 c 128,-1,23
 1737 346 1737 346 1737 521 c 2,24,-1
 1737 1493 l 1,25,-1
 1935 1493 l 1,26,-1
 1935 0 l 1,27,-1
 1737 0 l 1,28,-1
 1737 186 l 1,29,30
 1670 76 1670 76 1576 23 c 128,-1,31
 1482 -29 1482 -29 1352 -29 c 0,32,33
 1220 -29 1220 -29 1130 37 c 128,-1,34
 1039 104 1039 104 995 230 c 1,0,1
EndSplineSet
EndChar
StartChar: uni019D
Encoding: 413 413 540
Width: 1532
Flags: W
TeX: 117 0 0 0
Fore
201 -139 m 2,9,-1
 201 1493 l 1,0,-1
 473 1493 l 1,1,-1
 1135 244 l 1,2,-1
 1135 1493 l 1,3,-1
 1331 1493 l 1,4,-1
 1331 0 l 1,5,-1
 1059 0 l 1,6,-1
 397 1249 l 1,7,-1
 397 -70 l 2,8,-1
 397 -178 397 -178 366 -245 c 0,15,16
 339 -304 339 -304 278 -354 c 0,17,18
 190 -426 190 -426 81 -426 c 0,19,20
 -48 -426 -48 -426 -114 -354 c 9,21,22
 -38 -247 l 17,6,7
 1 -291 1 -291 60 -291 c 128,-1,8
 119 -291 119 -291 159 -247 c 0,9,10
 201 -202 201 -202 201 -139 c 2,9,-1
EndSplineSet
EndChar
StartChar: uni019E
Encoding: 414 414 541
Width: 1298
Flags: W
TeX: 117 0 0 0
Fore
1124 676 m 2,0,-1
 1124 -426 l 1,1,-1
 940 -426 l 1,2,-1
 940 670 l 2,3,4
 940 829 940 829 878 908 c 128,-1,5
 816 987 816 987 692 987 c 0,6,7
 543 987 543 987 457 892 c 128,-1,8
 371 797 371 797 371 633 c 2,9,-1
 371 0 l 1,10,-1
 186 0 l 1,11,-1
 186 1120 l 1,12,-1
 371 1120 l 1,13,-1
 371 946 l 1,14,15
 437 1047 437 1047 526.5 1097 c 128,-1,16
 616 1147 616 1147 733 1147 c 0,17,18
 926 1147 926 1147 1025 1027.5 c 128,-1,19
 1124 908 1124 908 1124 676 c 2,0,-1
EndSplineSet
EndChar
StartChar: uni019F
Encoding: 415 415 542
Width: 1612
Flags: W
TeX: 117 0 0 0
Fore
336 881 m 9,0,0
 1276 881 l 1,0,0
 1251 1070 1251 1070 1156 1192 c 128,-1,11
 1027 1356 1027 1356 807 1356 c 0,0,1
 587 1356 587 1356 458 1192 c 128,-1,2
 361 1070 361 1070 336 881 c 9,0,0
328 711 m 17,0,0
 336 453 336 453 458 299 c 128,-1,5
 587 135 587 135 807 135 c 0,6,7
 1027 135 1027 135 1156 299 c 128,-1,8
 1276 453 1276 453 1284 711 c 1,0,0
 328 711 l 17,0,0
807 1520 m 0,12,13
 1121 1520 1121 1520 1309 1310 c 128,-1,14
 1497 1099 1497 1099 1497 745 c 0,15,16
 1497 392 1497 392 1309 182 c 128,-1,17
 1121 -29 1121 -29 807 -29 c 0,18,19
 492 -29 492 -29 304 181 c 128,-1,20
 115 391 115 391 115 745 c 0,21,22
 115 1099 115 1099 304 1310 c 128,-1,23
 492 1520 492 1520 807 1520 c 0,12,13
EndSplineSet
EndChar
StartChar: uni01A2
Encoding: 418 418 545
Width: 2104
Flags: W
TeX: 117 0 0 0
HStem: -29 21G<649.5 964> 1356 164<649.5 945.5> 1366 154<1503.5 1683.5>
VStem: 1284 213<569 903.5> 1702 201<-426 1301.19>
Fore
1346 1264 m 1,0,1
 1497 1062 1497 1062 1497 745 c 0,2,3
 1497 392 1497 392 1309 182 c 0,4,5
 1121 -29 1121 -29 807 -29 c 0,6,7
 492 -29 492 -29 304 181 c 0,8,9
 115 391 115 391 115 745 c 128,-1,10
 115 1099 115 1099 304 1310 c 0,11,12
 492 1520 492 1520 807 1520 c 0,13,14
 1084 1520 1084 1520 1263 1357 c 1,15,16
 1355 1450 1355 1450 1432 1481 c 0,17,18
 1529 1520 1529 1520 1635 1520 c 0,19,20
 1732 1520 1732 1520 1818 1453 c 0,21,22
 1903 1386 1903 1386 1903 1216 c 2,23,-1
 1903 -426 l 1,24,-1
 1702 -426 l 1,25,-1
 1702 1212 l 2,26,27
 1702 1366 1702 1366 1545 1366 c 0,28,29
 1462 1366 1462 1366 1346 1264 c 1,0,1
807 1356 m 0,30,31
 589 1356 589 1356 458 1192 c 0,32,33
 328 1028 328 1028 328 745 c 0,34,35
 328 463 328 463 458 299 c 0,36,37
 587 135 587 135 807 135 c 128,-1,38
 1029 135 1029 135 1156 299 c 0,39,40
 1284 463 1284 463 1284 745 c 0,41,42
 1284 1028 1284 1028 1156 1192 c 0,43,44
 1027 1356 1027 1356 807 1356 c 0,30,31
EndSplineSet
EndChar
StartChar: uni01A3
Encoding: 419 419 546
Width: 1695
Flags: W
TeX: 117 0 0 0
HStem: -29 156<506.5 747> 991 156<506.5 728> 1017 130<1153.5 1308>
VStem: 946 195<421.5 682> 1326 184<-426 940>
Fore
1032 956 m 1,0,1
 1141 805 1141 805 1141 559 c 0,2,3
 1141 284 1141 284 1004 128 c 0,4,5
 867 -29 867 -29 627 -29 c 0,6,7
 386 -29 386 -29 250 128 c 0,8,9
 113 286 113 286 113 559 c 0,10,11
 113 835 113 835 250 991 c 0,12,13
 386 1147 386 1147 627 1147 c 0,14,15
 829 1147 829 1147 958 1037 c 1,16,17
 1017 1087 1017 1087 1069 1108 c 0,18,19
 1166 1147 1166 1147 1262 1147 c 0,20,21
 1354 1147 1354 1147 1435 1080 c 0,22,23
 1510 1018 1510 1018 1510 843 c 2,24,-1
 1510 -426 l 1,25,-1
 1326 -426 l 1,26,-1
 1326 863 l 2,27,28
 1326 1017 1326 1017 1189 1017 c 0,29,30
 1118 1017 1118 1017 1032 956 c 1,0,1
627 991 m 0,31,32
 479 991 479 991 393 876 c 0,33,34
 307 760 307 760 307 559 c 128,-1,35
 307 358 307 358 392 242 c 0,36,37
 478 127 478 127 627 127 c 0,38,39
 774 127 774 127 860 243 c 128,-1,40
 946 359 946 359 946 559 c 0,41,42
 946 758 946 758 860 874 c 0,43,44
 774 991 774 991 627 991 c 0,31,32
EndSplineSet
EndChar
StartChar: uni01A4
Encoding: 420 420 547
Width: 1335
Flags: W
TeX: 117 0 0 0
Fore
503 1327 m 1,0,-1
 503 766 l 1,1,-1
 757 766 l 2,2,3
 898 766 898 766 975 839 c 128,-1,4
 1052 912 1052 912 1052 1047 c 0,5,6
 1052 1181 1052 1181 975 1254 c 128,-1,7
 898 1327 898 1327 757 1327 c 2,8,-1
 503 1327 l 1,0,-1
301 1351 m 25,1,-1
 232 1351 l 18,11,-1
 167 1351 167 1351 124 1311 c 0,9,10
 80 1271 80 1271 80 1214 c 128,-1,8
 80 1157 80 1157 124 1118 c 9,6,7
 17 1042 l 17,21,22
 -55 1108 -55 1108 -55 1232 c 0,19,20
 -55 1328 -55 1328 15 1403 c 0,17,18
 63 1453 63 1453 126 1475 c 0,15,16
 179 1493 179 1493 230 1493 c 10,0,0
 757 1493 l 18,10,11
 1008 1493 1008 1493 1136 1380 c 128,-1,12
 1265 1266 1265 1266 1265 1047 c 0,13,14
 1265 826 1265 826 1136 713 c 128,-1,15
 1008 600 1008 600 757 600 c 2,16,-1
 503 600 l 1,17,-1
 503 0 l 1,18,-1
 301 0 l 1,19,-1
 301 1351 l 25,1,-1
EndSplineSet
EndChar
StartChar: uni01A5
Encoding: 421 421 548
Width: 1300
Flags: W
TeX: 117 0 0 0
Fore
371 1233 m 2,4,-1
 371 950 l 1,5,6
 428 1048 428 1048 518 1098 c 128,-1,7
 606 1147 606 1147 729 1147 c 0,8,9
 933 1147 933 1147 1060 985 c 128,-1,10
 1188 823 1188 823 1188 559 c 0,11,12
 1188 295 1188 295 1060 133 c 128,-1,13
 933 -29 933 -29 729 -29 c 0,14,15
 609 -29 609 -29 518 20 c 128,-1,16
 429 68 429 68 371 168 c 1,0,-1
 371 -426 l 1,1,-1
 186 -426 l 1,2,-1
 186 1164 l 2,3,-1
 186 1282 186 1282 217 1339 c 0,15,16
 258 1415 258 1415 299 1448 c 0,17,18
 387 1520 387 1520 490 1520 c 0,19,20
 614 1520 614 1520 680 1448 c 9,21,22
 604 1341 l 17,6,7
 565 1385 565 1385 508 1385 c 128,-1,8
 451 1385 451 1385 411 1341 c 0,9,10
 371 1298 371 1298 371 1233 c 2,4,-1
997 559 m 0,17,18
 997 762 997 762 914 878 c 128,-1,19
 830 993 830 993 684 993 c 0,20,21
 538 993 538 993 454 878 c 128,-1,22
 371 762 371 762 371 559 c 0,23,24
 371 356 371 356 454 240 c 128,-1,25
 538 125 538 125 684 125 c 0,26,27
 830 125 830 125 914 240 c 128,-1,28
 997 356 997 356 997 559 c 0,17,18
EndSplineSet
EndChar
StartChar: uni01A6
Encoding: 422 422 549
Width: 1423
Flags: W
TeX: 117 0 0 0
Fore
404 1286 m 25,0,0
 657 1286 l 2,14,15
 913 1286 913 1286 1039 1179 c 128,-1,16
 1165 1072 1165 1072 1165 856 c 0,17,18
 1165 715 1165 715 1100 622 c 128,-1,19
 1034 529 1034 529 909 493 c 1,0,1
 974 471 974 471 1036 399 c 128,-1,2
 1097 327 1097 327 1159 201 c 1,3,-1
 1364 -207 l 1,4,-1
 1147 -207 l 1,5,-1
 956 176 l 1,6,7
 882 326 882 326 812 375 c 128,-1,8
 743 424 743 424 623 424 c 2,9,-1
 403 424 l 1,10,-1
 403 0 l 1,11,-1
 201 0 l 1,12,-1
 201 1493 l 1,13,-1
 404 1493 l 25,0,0
 404 1286 l 25,0,0
403 1120 m 1,20,-1
 403 590 l 1,21,-1
 657 590 l 2,22,23
 803 590 803 590 878 658 c 128,-1,24
 952 725 952 725 952 856 c 0,25,26
 952 989 952 989 878 1054 c 128,-1,27
 803 1120 803 1120 657 1120 c 2,28,-1
 403 1120 l 1,20,-1
EndSplineSet
EndChar
